SplineFontDB: 3.0
FontName: Glegoo-Regular
FullName: Glegoo
FamilyName: Glegoo
Weight: Regular
Copyright: Copyright (c) 2011, Eduardo Tunni (http://www.tipo.net.ar), Copyright 2011-13 Lohit Fonts Project contributors (http://fedorahosted.org/lohit)
Version: 2.0.1
FONDName: Glegoo
ItalicAngle: 0
UnderlinePosition: 0
UnderlineWidth: 0
Ascent: 800
Descent: 200
UFOAscent: 1052
UFODescent: -227
LayerCount: 2
Layer: 0 0 "Back"  1
Layer: 1 0 "Fore"  0
FSType: 0
OS2Version: 0
OS2_WeightWidthSlopeOnly: 0
OS2_UseTypoMetrics: 0
CreationTime: 1407107280
ModificationTime: 1407110610
PfmFamily: 17
TTFWeight: 400
TTFWidth: 5
LineGap: 0
VLineGap: 0
Panose: 0 0 0 0 0 0 0 0 0 0
OS2TypoAscent: 0
OS2TypoAOffset: 1
OS2TypoDescent: 0
OS2TypoDOffset: 1
OS2TypoLinegap: 0
OS2WinAscent: 0
OS2WinAOffset: 1
OS2WinDescent: 0
OS2WinDOffset: 1
HheadAscent: 0
HheadAOffset: 1
HheadDescent: 0
HheadDOffset: 1
OS2SubXSize: 700
OS2SubYSize: 650
OS2SubXOff: 0
OS2SubYOff: 140
OS2SupXSize: 700
OS2SupYSize: 650
OS2SupXOff: 0
OS2SupYOff: 477
OS2StrikeYSize: 50
OS2StrikeYPos: 250
OS2Vendor: 'TIPO'
OS2CodePages: 20000093.00000000
OS2UnicodeRanges: a00080af.5000204b.00000000.00000000
Lookup: 4 0 0 "'haln' Halant Forms lookup 0"  {"'haln' Halant Forms lookup 0 subtable"  } ['haln' ('DFLT' <'dflt' > 'dev2' <'MAR ' 'NEP ' 'dflt' > 'deva' <'MAR ' 'NEP ' 'dflt' > ) ]
Lookup: 1 0 0 "'locl' Localized Forms lookup 1"  {"'locl' Localized Forms lookup 1 subtable"  } ['locl' ('dev2' <'MAR ' > 'deva' <'MAR ' > ) ]
Lookup: 4 0 0 "'locl' Localized Forms lookup 2"  {"'locl' Localized Forms lookup 2 subtable"  } ['locl' ('dev2' <'MAR ' > 'deva' <'MAR ' > ) ]
Lookup: 1 0 0 "'locl' Localized Forms lookup 3"  {"'locl' Localized Forms lookup 3 subtable"  } ['locl' ('dev2' <'NEP ' > 'deva' <'NEP ' > ) ]
Lookup: 4 0 0 "'locl' Localized Forms lookup 4"  {"'locl' Localized Forms lookup 4 subtable"  } ['locl' ('dev2' <'NEP ' > 'deva' <'NEP ' > ) ]

StartChar: .notdef
Encoding: 65537 -1 1
Width: 1040
VWidth: 0
Flags: W
PickledData: "(dp1
S'org.robofab.postScriptHintData'
p2
(dp3
S'vHints'
p4
((I130
I65
t(I846
I64
ttp5
sS'hHints'
p6
((I0
I65
t(I846
I64
ttp7
ssS'org.robofab.fontlab.mark'
p8
I26
s."
LayerCount: 2
Fore
SplineSet
195 65 m 257
 846 65 l 257
 846 846 l 257
 195 846 l 257
 195 65 l 257
130 0 m 257
 130 910 l 257
 910 910 l 257
 910 0 l 257
 130 0 l 257
EndSplineSet
Validated: 1
EndChar

StartChar: A
Encoding: 65 65 2
Width: 653
VWidth: 0
Flags: W
PickledData: "(dp1
S'org.robofab.postScriptHintData'
p2
(dp3
S'hHints'
p4
((I0
I50
t(I236
I59
t(I730
I-20
ttp5
ssS'org.robofab.fontlab.maskData'
p6
((dp7
S'method'
p8
S'beginPath'
p9
s(dp10
S'segmentType'
p11
S'curve'
p12
sS'smooth'
p13
I01
sg8
S'addPoint'
p14
sS'pt'
p15
(I224
I560
tp16
s(dp17
g8
S'addPoint'
p18
sg15
(I224
I541
tp19
s(dp20
g8
S'addPoint'
p21
sg15
(I239
I526
tp22
s(dp23
g11
S'curve'
p24
sg13
I01
sg8
S'addPoint'
p25
sg15
(I258
I526
tp26
s(dp27
g8
S'addPoint'
p28
sg15
(I277
I526
tp29
s(dp30
g8
S'addPoint'
p31
sg15
(I293
I541
tp32
s(dp33
g11
S'curve'
p34
sg13
I01
sg8
S'addPoint'
p35
sg15
(I293
I560
tp36
s(dp37
g8
S'addPoint'
p38
sg15
(I293
I579
tp39
s(dp40
g8
S'addPoint'
p41
sg15
(I277
I595
tp42
s(dp43
g11
S'curve'
p44
sg13
I01
sg8
S'addPoint'
p45
sg15
(I258
I595
tp46
s(dp47
g8
S'addPoint'
p48
sg15
(I239
I595
tp49
s(dp50
g8
S'addPoint'
p51
sg15
(I224
I579
tp52
s(dp53
g8
S'endPath'
p54
s(dp55
g8
S'beginPath'
p56
s(dp57
g11
S'curve'
p58
sg13
I01
sg8
S'addPoint'
p59
sg15
(I63
I76
tp60
s(dp61
g8
S'addPoint'
p62
sg15
(I63
I57
tp63
s(dp64
g8
S'addPoint'
p65
sg15
(I78
I42
tp66
s(dp67
g11
S'curve'
p68
sg13
I01
sg8
S'addPoint'
p69
sg15
(I97
I42
tp70
s(dp71
g8
S'addPoint'
p72
sg15
(I116
I42
tp73
s(dp74
g8
S'addPoint'
p75
sg15
(I132
I57
tp76
s(dp77
g11
S'curve'
p78
sg13
I01
sg8
S'addPoint'
p79
sg15
(I132
I76
tp80
s(dp81
g8
S'addPoint'
p82
sg15
(I132
I95
tp83
s(dp84
g8
S'addPoint'
p85
sg15
(I116
I111
tp86
s(dp87
g11
S'curve'
p88
sg13
I01
sg8
S'addPoint'
p89
sg15
(I97
I111
tp90
s(dp91
g8
S'addPoint'
p92
sg15
(I78
I111
tp93
s(dp94
g8
S'addPoint'
p95
sg15
(I63
I95
tp96
s(dp97
g8
S'endPath'
p98
s(dp99
g8
S'beginPath'
p100
s(dp101
g11
S'curve'
p102
sg13
I01
sg8
S'addPoint'
p103
sg15
(I312
I414
tp104
s(dp105
g8
S'addPoint'
p106
sg15
(I312
I376
tp107
s(dp108
g8
S'addPoint'
p109
sg15
(I342
I346
tp110
s(dp111
g11
S'curve'
p112
sg13
I01
sg8
S'addPoint'
p113
sg15
(I380
I346
tp114
s(dp115
g8
S'addPoint'
p116
sg15
(I418
I346
tp117
s(dp118
g8
S'addPoint'
p119
sg15
(I448
I376
tp120
s(dp121
g11
S'curve'
p122
sg13
I01
sg8
S'addPoint'
p123
sg15
(I448
I414
tp124
s(dp125
g8
S'addPoint'
p126
sg15
(I448
I452
tp127
s(dp128
g8
S'addPoint'
p129
sg15
(I418
I482
tp130
s(dp131
g11
S'curve'
p132
sg13
I01
sg8
S'addPoint'
p133
sg15
(I380
I482
tp134
s(dp135
g8
S'addPoint'
p136
sg15
(I342
I482
tp137
s(dp138
g8
S'addPoint'
p139
sg15
(I312
I452
tp140
s(dp141
g8
S'endPath'
p142
stp143
sS'org.robofab.fontlab.mark'
p144
I144
s."
LayerCount: 2
Fore
SplineSet
278 730 m 257
 51 50 l 257
 5 50 l 257
 5 0 l 257
 183 0 l 257
 183 50 l 257
 123 50 l 257
 184 236 l 257
 468 236 l 257
 529 50 l 257
 470 50 l 257
 470 0 l 257
 648 0 l 257
 648 50 l 257
 601 50 l 257
 375 730 l 257
 278 730 l 257
326 667 m 257
 449 295 l 257
 204 295 l 257
 326 667 l 257
EndSplineSet
Validated: 9
Position2: "'cpsp' Capital Spacing lookup 0 subtable" dx=5 dy=0 dh=10 dv=0
EndChar

StartChar: AE
Encoding: 198 198 3
Width: 943
VWidth: 0
Flags: W
PickledData: "(dp1
S'org.robofab.postScriptHintData'
p2
(dp3
S'vHints'
p4
((I453
I72
ttp5
sS'hHints'
p6
((I0
I59
t(I341
I60
t(I671
I59
t(I572
I-20
ttp7
ssS'org.robofab.fontlab.mark'
p8
I144
s."
LayerCount: 2
Fore
SplineSet
5 0 m 257
 183 0 l 257
 183 50 l 257
 126 50 l 257
 237 341 l 257
 453 341 l 257
 453 50 l 257
 393 50 l 257
 393 0 l 257
 883 0 l 257
 883 158 l 257
 827 158 l 257
 827 59 l 257
 525 59 l 257
 525 341 l 257
 813 341 l 257
 813 401 l 257
 525 401 l 257
 525 671 l 257
 807 671 l 257
 807 572 l 257
 863 572 l 257
 863 730 l 257
 807 730 l 257
 318 730 l 257
 54 50 l 257
 5 50 l 257
 5 0 l 257
453 671 m 257
 453 401 l 257
 260 401 l 257
 364 671 l 257
 453 671 l 257
EndSplineSet
Validated: 9
Position2: "'cpsp' Capital Spacing lookup 0 subtable" dx=5 dy=0 dh=10 dv=0
EndChar

StartChar: AEacute
Encoding: 508 508 4
Width: 943
VWidth: 0
Flags: W
PickledData: "(dp1
S'org.robofab.postScriptHintData'
p2
(dp3
S'vHints'
p4
((I453
I72
ttp5
sS'hHints'
p6
((I0
I59
t(I341
I60
t(I671
I59
t(I572
I-20
t(I985
I-20
ttp7
ssS'org.robofab.fontlab.mark'
p8
I80
s."
LayerCount: 2
Fore
SplineSet
5 0 m 257
 183 0 l 257
 183 50 l 257
 126 50 l 257
 237 341 l 257
 453 341 l 257
 453 50 l 257
 393 50 l 257
 393 0 l 257
 883 0 l 257
 883 158 l 257
 827 158 l 257
 827 59 l 257
 525 59 l 257
 525 341 l 257
 813 341 l 257
 813 401 l 257
 525 401 l 257
 525 671 l 257
 807 671 l 257
 807 572 l 257
 863 572 l 257
 863 730 l 257
 318 730 l 257
 54 50 l 257
 5 50 l 257
 5 0 l 257
453 671 m 257
 453 401 l 257
 260 401 l 257
 364 671 l 257
 453 671 l 257
521 782 m 257
 693 932 l 257
 640 985 l 257
 479 824 l 257
 521 782 l 257
EndSplineSet
Validated: 9
Position2: "'cpsp' Capital Spacing lookup 0 subtable" dx=5 dy=0 dh=10 dv=0
EndChar

StartChar: Aacute
Encoding: 193 193 5
Width: 653
VWidth: 0
Flags: W
PickledData: "(dp1
S'org.robofab.postScriptHintData'
p2
(dp3
S'hHints'
p4
((I0
I50
t(I236
I59
t(I730
I-20
t(I985
I-20
ttp5
ssS'org.robofab.fontlab.mark'
p6
I144
s."
LayerCount: 2
Fore
SplineSet
278 730 m 257
 51 50 l 257
 5 50 l 257
 5 0 l 257
 183 0 l 257
 183 50 l 257
 123 50 l 257
 184 236 l 257
 468 236 l 257
 529 50 l 257
 470 50 l 257
 470 0 l 257
 648 0 l 257
 648 50 l 257
 601 50 l 257
 375 730 l 257
 278 730 l 257
326 667 m 257
 449 295 l 257
 204 295 l 257
 326 667 l 257
261 782 m 257
 433 932 l 257
 380 985 l 257
 219 824 l 257
 261 782 l 257
EndSplineSet
Validated: 9
Position2: "'cpsp' Capital Spacing lookup 0 subtable" dx=5 dy=0 dh=10 dv=0
EndChar

StartChar: Abreve
Encoding: 258 258 6
Width: 653
VWidth: 0
Flags: W
PickledData: "(dp1
S'org.robofab.postScriptHintData'
p2
(dp3
S'replaceTable'
p4
((dp5
S'index'
p6
I2
sS'type'
p7
I1
s(dp8
g6
I0
sg7
I1
s(dp9
g6
I1
sg7
I1
s(dp10
g6
I4
sg7
I1
s(dp11
g6
I1
sg7
I255
s(dp12
g6
I3
sg7
I1
s(dp13
g6
I0
sg7
I1
s(dp14
g6
I1
sg7
I1
s(dp15
g6
I4
sg7
I1
s(dp16
g6
I2
sg7
I255
s(dp17
g6
I2
sg7
I1
s(dp18
g6
I1
sg7
I1
s(dp19
g6
I4
sg7
I1
s(dp20
g6
I0
sg7
I1
stp21
sS'hHints'
p22
((I0
I50
t(I236
I59
t(I802
I135
t(I802
I61
t(I730
I-20
ttp23
ssS'org.robofab.fontlab.mark'
p24
I80
s."
LayerCount: 2
Fore
SplineSet
278 730 m 257
 51 50 l 257
 5 50 l 257
 5 0 l 257
 183 0 l 257
 183 50 l 257
 123 50 l 257
 184 236 l 257
 468 236 l 257
 529 50 l 257
 470 50 l 257
 470 0 l 257
 648 0 l 257
 648 50 l 257
 601 50 l 257
 375 730 l 257
 278 730 l 257
326 667 m 257
 449 295 l 257
 204 295 l 257
 326 667 l 257
452 937 m 257
 452 868 439 802 326 802 c 256
 214 802 201 868 201 937 c 257
 256 937 l 257
 256 899 260 863 326 863 c 256
 392 863 396 899 396 937 c 257
 452 937 l 257
EndSplineSet
Validated: 9
Position2: "'cpsp' Capital Spacing lookup 0 subtable" dx=5 dy=0 dh=10 dv=0
EndChar

StartChar: Acircumflex
Encoding: 194 194 7
Width: 653
VWidth: 0
Flags: W
PickledData: "(dp1
S'org.robofab.postScriptHintData'
p2
(dp3
S'hHints'
p4
((I0
I50
t(I236
I59
t(I730
I-20
t(I979
I-20
ttp5
ssS'org.robofab.fontlab.mark'
p6
I144
s."
LayerCount: 2
Fore
SplineSet
278 730 m 257
 51 50 l 257
 5 50 l 257
 5 0 l 257
 183 0 l 257
 183 50 l 257
 123 50 l 257
 184 236 l 257
 468 236 l 257
 529 50 l 257
 470 50 l 257
 470 0 l 257
 648 0 l 257
 648 50 l 257
 601 50 l 257
 375 730 l 257
 278 730 l 257
326 667 m 257
 449 295 l 257
 204 295 l 257
 326 667 l 257
218 782 m 257
 326 892 l 257
 435 782 l 257
 477 824 l 257
 341 979 l 257
 312 979 l 257
 176 824 l 257
 218 782 l 257
EndSplineSet
Validated: 9
Position2: "'cpsp' Capital Spacing lookup 0 subtable" dx=5 dy=0 dh=10 dv=0
EndChar

StartChar: Adieresis
Encoding: 196 196 8
Width: 653
VWidth: 0
Flags: W
PickledData: "(dp1
S'org.robofab.postScriptHintData'
p2
(dp3
S'vHints'
p4
((I177
I88
t(I387
I88
ttp5
sS'hHints'
p6
((I0
I50
t(I236
I59
t(I830
I107
t(I730
I-20
ttp7
ssS'org.robofab.fontlab.mark'
p8
I144
s."
LayerCount: 2
Fore
SplineSet
278 730 m 257
 51 50 l 257
 5 50 l 257
 5 0 l 257
 183 0 l 257
 183 50 l 257
 123 50 l 257
 184 236 l 257
 468 236 l 257
 529 50 l 257
 470 50 l 257
 470 0 l 257
 648 0 l 257
 648 50 l 257
 601 50 l 257
 375 730 l 257
 278 730 l 257
326 667 m 257
 449 295 l 257
 204 295 l 257
 326 667 l 257
220 830 m 256
 179 830 177 858 177 883 c 256
 177 909 179 937 220 937 c 256
 263 937 265 909 265 883 c 256
 265 858 263 830 220 830 c 256
430 830 m 256
 389 830 387 858 387 883 c 256
 387 909 389 937 430 937 c 256
 473 937 475 909 475 883 c 256
 475 858 473 830 430 830 c 256
EndSplineSet
Validated: 9
Position2: "'cpsp' Capital Spacing lookup 0 subtable" dx=5 dy=0 dh=10 dv=0
EndChar

StartChar: Agrave
Encoding: 192 192 9
Width: 653
VWidth: 0
Flags: W
PickledData: "(dp1
S'org.robofab.postScriptHintData'
p2
(dp3
S'hHints'
p4
((I0
I50
t(I236
I59
t(I985
I-20
t(I730
I-20
ttp5
ssS'org.robofab.fontlab.mark'
p6
I144
s."
LayerCount: 2
Fore
SplineSet
278 730 m 257
 51 50 l 257
 5 50 l 257
 5 0 l 257
 183 0 l 257
 183 50 l 257
 123 50 l 257
 184 236 l 257
 468 236 l 257
 529 50 l 257
 470 50 l 257
 470 0 l 257
 648 0 l 257
 648 50 l 257
 601 50 l 257
 375 730 l 257
 278 730 l 257
326 667 m 257
 449 295 l 257
 204 295 l 257
 326 667 l 257
391 782 m 257
 219 932 l 257
 272 985 l 257
 433 824 l 257
 391 782 l 257
EndSplineSet
Validated: 9
Position2: "'cpsp' Capital Spacing lookup 0 subtable" dx=5 dy=0 dh=10 dv=0
EndChar

StartChar: Amacron
Encoding: 256 256 10
Width: 653
VWidth: 0
Flags: W
PickledData: "(dp1
S'org.robofab.postScriptHintData'
p2
(dp3
S'hHints'
p4
((I0
I50
t(I236
I59
t(I852
I65
t(I730
I-20
ttp5
ssS'org.robofab.fontlab.mark'
p6
I80
s."
LayerCount: 2
Fore
SplineSet
278 730 m 257
 51 50 l 257
 5 50 l 257
 5 0 l 257
 183 0 l 257
 183 50 l 257
 123 50 l 257
 184 236 l 257
 468 236 l 257
 529 50 l 257
 470 50 l 257
 470 0 l 257
 648 0 l 257
 648 50 l 257
 601 50 l 257
 375 730 l 257
 278 730 l 257
326 667 m 257
 449 295 l 257
 204 295 l 257
 326 667 l 257
199 852 m 257
 453 852 l 257
 453 917 l 257
 199 917 l 257
 199 852 l 257
EndSplineSet
Validated: 9
Position2: "'cpsp' Capital Spacing lookup 0 subtable" dx=5 dy=0 dh=10 dv=0
EndChar

StartChar: Aogonek
Encoding: 260 260 11
Width: 653
VWidth: 0
Flags: W
PickledData: "(dp1
S'org.robofab.postScriptHintData'
p2
(dp3
S'vHints'
p4
((I455
I58
ttp5
sS'hHints'
p6
((I-227
I53
t(I0
I50
t(I236
I59
t(I730
I-20
ttp7
ssS'org.robofab.fontlab.mark'
p8
I80
s."
LayerCount: 2
Fore
SplineSet
645 -112 m 257
 629 -149 596 -174 563 -174 c 256
 530 -174 513 -154 513 -123 c 256
 513 -95 520 -78 565 -51 c 258
 648 0 l 257
 648 50 l 257
 601 50 l 257
 375 730 l 257
 278 730 l 257
 51 50 l 257
 5 50 l 257
 5 0 l 257
 183 0 l 257
 183 50 l 257
 123 50 l 257
 184 236 l 257
 468 236 l 257
 529 50 l 257
 470 50 l 257
 470 0 l 257
 566 0 l 257
 537 -15 l 258
 474 -47 455 -82 455 -128 c 256
 455 -193 490 -227 558 -227 c 256
 612 -227 662 -191 687 -140 c 257
 645 -112 l 257
326 667 m 257
 449 295 l 257
 204 295 l 257
 326 667 l 257
EndSplineSet
Validated: 9
Position2: "'cpsp' Capital Spacing lookup 0 subtable" dx=5 dy=0 dh=10 dv=0
EndChar

StartChar: Aring
Encoding: 197 197 12
Width: 653
VWidth: 0
Flags: W
PickledData: "(dp1
S'org.robofab.postScriptHintData'
p2
(dp3
S'vHints'
p4
((I231
I52
t(I369
I52
ttp5
sS'hHints'
p6
((I0
I50
t(I236
I59
t(I786
I43
t(I938
I43
t(I730
I-20
ttp7
ssS'org.robofab.fontlab.mark'
p8
I144
s."
LayerCount: 2
Fore
SplineSet
278 730 m 257
 51 50 l 257
 5 50 l 257
 5 0 l 257
 183 0 l 257
 183 50 l 257
 123 50 l 257
 184 236 l 257
 468 236 l 257
 529 50 l 257
 470 50 l 257
 470 0 l 257
 648 0 l 257
 648 50 l 257
 601 50 l 257
 375 730 l 257
 278 730 l 257
326 667 m 257
 449 295 l 257
 204 295 l 257
 326 667 l 257
325 829 m 256
 285 829 283 858 283 883 c 256
 283 909 285 938 325 938 c 256
 367 938 369 909 369 883 c 256
 369 858 367 829 325 829 c 256
325 786 m 256
 416 786 421 837 421 883 c 256
 421 929 416 981 325 981 c 256
 236 981 231 929 231 883 c 256
 231 837 236 786 325 786 c 256
EndSplineSet
Validated: 9
Position2: "'cpsp' Capital Spacing lookup 0 subtable" dx=5 dy=0 dh=10 dv=0
EndChar

StartChar: Aringacute
Encoding: 506 506 13
Width: 653
VWidth: 0
Flags: W
PickledData: "(dp1
S'org.robofab.postScriptHintData'
p2
(dp3
S'vHints'
p4
((I234
I52
t(I372
I52
ttp5
sS'hHints'
p6
((I0
I50
t(I236
I59
t(I786
I43
t(I938
I43
t(I730
I-20
t(I1057
I-20
ttp7
ssS'org.robofab.fontlab.mark'
p8
I80
s."
LayerCount: 2
Fore
SplineSet
278 730 m 257
 51 50 l 257
 5 50 l 257
 5 0 l 257
 183 0 l 257
 183 50 l 257
 123 50 l 257
 184 236 l 257
 468 236 l 257
 529 50 l 257
 470 50 l 257
 470 0 l 257
 648 0 l 257
 648 50 l 257
 601 50 l 257
 375 730 l 257
 278 730 l 257
326 667 m 257
 449 295 l 257
 204 295 l 257
 326 667 l 257
328 786 m 256
 419 786 424 837 424 883 c 256
 424 907 422 933 408 952 c 257
 479 1018 l 257
 430 1057 l 257
 368 976 l 257
 357 979 343 981 328 981 c 256
 239 981 234 929 234 883 c 256
 234 837 239 786 328 786 c 256
328 829 m 256
 288 829 286 858 286 883 c 256
 286 909 288 938 328 938 c 256
 370 938 372 909 372 883 c 256
 372 858 370 829 328 829 c 256
EndSplineSet
Validated: 9
Position2: "'cpsp' Capital Spacing lookup 0 subtable" dx=5 dy=0 dh=10 dv=0
EndChar

StartChar: Atilde
Encoding: 195 195 14
Width: 653
VWidth: 0
Flags: W
PickledData: "(dp1
S'org.robofab.postScriptHintData'
p2
(dp3
S'replaceTable'
p4
((dp5
S'index'
p6
I4
sS'type'
p7
I1
s(dp8
g6
I0
sg7
I1
s(dp9
g6
I1
sg7
I1
s(dp10
g6
I2
sg7
I1
s(dp11
g6
I5
sg7
I1
s(dp12
g6
I23
sg7
I255
s(dp13
g6
I3
sg7
I1
s(dp14
g6
I0
sg7
I1
s(dp15
g6
I1
sg7
I1
s(dp16
g6
I4
sg7
I1
s(dp17
g6
I27
sg7
I255
s(dp18
g6
I2
sg7
I1
s(dp19
g6
I0
sg7
I1
s(dp20
g6
I1
sg7
I1
s(dp21
g6
I4
sg7
I1
s(dp22
g6
I5
sg7
I1
stp23
sS'hHints'
p24
((I0
I50
t(I236
I59
t(I835
I65
t(I871
I65
t(I730
I-20
t(I944
I-20
ttp25
ssS'org.robofab.fontlab.mark'
p26
I144
s."
LayerCount: 2
Fore
SplineSet
278 730 m 257
 51 50 l 257
 5 50 l 257
 5 0 l 257
 183 0 l 257
 183 50 l 257
 123 50 l 257
 184 236 l 257
 468 236 l 257
 529 50 l 257
 470 50 l 257
 470 0 l 257
 648 0 l 257
 648 50 l 257
 601 50 l 257
 375 730 l 257
 278 730 l 257
326 667 m 257
 449 295 l 257
 204 295 l 257
 326 667 l 257
399 835 m 256
 437 835 467 858 487 928 c 257
 437 944 l 257
 427 914 416 900 391 900 c 256
 360 900 300 936 253 936 c 256
 215 936 185 913 165 843 c 257
 216 827 l 257
 226 857 237 871 262 871 c 256
 293 871 352 835 399 835 c 256
EndSplineSet
Validated: 9
Position2: "'cpsp' Capital Spacing lookup 0 subtable" dx=5 dy=0 dh=10 dv=0
EndChar

StartChar: B
Encoding: 66 66 15
Width: 629
VWidth: 0
Flags: W
PickledData: "(dp1
S'org.robofab.postScriptHintData'
p2
(dp3
S'replaceTable'
p4
((dp5
S'index'
p6
I0
sS'type'
p7
I1
s(dp8
g6
I2
sg7
I2
s(dp9
g6
I1
sg7
I1
s(dp10
g6
I2
sg7
I1
s(dp11
g6
I0
sg7
I2
s(dp12
g6
I3
sg7
I255
s(dp13
g6
I1
sg7
I2
s(dp14
g6
I2
sg7
I1
s(dp15
g6
I0
sg7
I2
s(dp16
g6
I0
sg7
I1
s(dp17
g6
I1
sg7
I1
s(dp18
g6
I14
sg7
I255
s(dp19
g6
I2
sg7
I2
s(dp20
g6
I0
sg7
I1
s(dp21
g6
I0
sg7
I2
s(dp22
g6
I1
sg7
I1
s(dp23
g6
I2
sg7
I1
s(dp24
g6
I19
sg7
I255
s(dp25
g6
I1
sg7
I2
s(dp26
g6
I1
sg7
I1
s(dp27
g6
I0
sg7
I2
s(dp28
g6
I0
sg7
I1
s(dp29
g6
I2
sg7
I1
stp30
sS'vHints'
p31
((I130
I72
t(I467
I72
t(I507
I72
ttp32
sS'hHints'
p33
((I0
I59
t(I343
I61
t(I671
I59
ttp34
ssS'org.robofab.fontlab.mark'
p35
I144
s."
LayerCount: 2
Fore
SplineSet
360 0 m 258
 553 0 579 93 579 195 c 256
 579 280 560 356 442 378 c 257
 525 408 539 472 539 543 c 256
 539 640 513 730 320 730 c 258
 70 730 l 257
 70 680 l 257
 130 680 l 257
 130 50 l 257
 70 50 l 257
 70 0 l 257
 360 0 l 258
202 59 m 257
 202 343 l 257
 360 343 l 258
 488 343 507 280 507 199 c 256
 507 120 488 59 360 59 c 258
 202 59 l 257
202 404 m 257
 202 671 l 257
 320 671 l 258
 448 671 467 614 467 537 c 256
 467 462 448 404 320 404 c 258
 202 404 l 257
EndSplineSet
Validated: 9
Position2: "'cpsp' Capital Spacing lookup 0 subtable" dx=5 dy=0 dh=10 dv=0
EndChar

StartChar: C
Encoding: 67 67 16
Width: 619
VWidth: 0
Flags: W
PickledData: "(dp1
S'org.robofab.postScriptHintData'
p2
(dp3
S'replaceTable'
p4
((dp5
S'index'
p6
I2
sS'type'
p7
I1
s(dp8
g6
I1
sg7
I2
s(dp9
g6
I0
sg7
I1
s(dp10
g6
I0
sg7
I2
s(dp11
g6
I2
sg7
I255
s(dp12
g6
I1
sg7
I1
s(dp13
g6
I0
sg7
I2
s(dp14
g6
I0
sg7
I1
s(dp15
g6
I1
sg7
I2
s(dp16
g6
I12
sg7
I255
s(dp17
g6
I2
sg7
I1
s(dp18
g6
I1
sg7
I2
s(dp19
g6
I0
sg7
I1
s(dp20
g6
I0
sg7
I2
stp21
sS'vHints'
p22
((I60
I72
t(I508
I54
ttp23
sS'hHints'
p24
((I-14
I60
t(I684
I60
t(I730
I-20
ttp25
ssS'org.robofab.fontlab.maskData'
p26
((dp27
S'method'
p28
S'beginPath'
p29
s(dp30
S'segmentType'
p31
S'curve'
p32
sS'smooth'
p33
I01
sg28
S'addPoint'
p34
sS'pt'
p35
(I108
I632
tp36
s(dp37
g28
S'addPoint'
p38
sg35
(I108
I612
tp39
s(dp40
g28
S'addPoint'
p41
sg35
(I124
I596
tp42
s(dp43
g31
S'curve'
p44
sg33
I01
sg28
S'addPoint'
p45
sg35
(I144
I596
tp46
s(dp47
g28
S'addPoint'
p48
sg35
(I164
I596
tp49
s(dp50
g28
S'addPoint'
p51
sg35
(I180
I612
tp52
s(dp53
g31
S'curve'
p54
sg33
I01
sg28
S'addPoint'
p55
sg35
(I180
I632
tp56
s(dp57
g28
S'addPoint'
p58
sg35
(I180
I652
tp59
s(dp60
g28
S'addPoint'
p61
sg35
(I164
I668
tp62
s(dp63
g31
S'curve'
p64
sg33
I01
sg28
S'addPoint'
p65
sg35
(I144
I668
tp66
s(dp67
g28
S'addPoint'
p68
sg35
(I124
I668
tp69
s(dp70
g28
S'addPoint'
p71
sg35
(I108
I652
tp72
s(dp73
g28
S'endPath'
p74
s(dp75
g28
S'beginPath'
p76
s(dp77
g31
S'curve'
p78
sg33
I01
sg28
S'addPoint'
p79
sg35
(I108
I93
tp80
s(dp81
g28
S'addPoint'
p82
sg35
(I108
I73
tp83
s(dp84
g28
S'addPoint'
p85
sg35
(I124
I57
tp86
s(dp87
g31
S'curve'
p88
sg33
I01
sg28
S'addPoint'
p89
sg35
(I144
I57
tp90
s(dp91
g28
S'addPoint'
p92
sg35
(I164
I57
tp93
s(dp94
g28
S'addPoint'
p95
sg35
(I180
I73
tp96
s(dp97
g31
S'curve'
p98
sg33
I01
sg28
S'addPoint'
p99
sg35
(I180
I93
tp100
s(dp101
g28
S'addPoint'
p102
sg35
(I180
I113
tp103
s(dp104
g28
S'addPoint'
p105
sg35
(I164
I129
tp106
s(dp107
g31
S'curve'
p108
sg33
I01
sg28
S'addPoint'
p109
sg35
(I144
I129
tp110
s(dp111
g28
S'addPoint'
p112
sg35
(I124
I129
tp113
s(dp114
g28
S'addPoint'
p115
sg35
(I108
I113
tp116
s(dp117
g28
S'endPath'
p118
stp119
sS'org.robofab.fontlab.mark'
p120
I144
s."
LayerCount: 2
Fore
SplineSet
508 730 m 257
 508 656 l 257
 477 710 420 744 326 744 c 256
 96 744 60 602 60 365 c 256
 60 130 86 -14 336 -14 c 256
 512 -14 553 77 562 209 c 257
 503 212 l 257
 500 120 467 46 336 46 c 256
 141 46 132 168 132 365 c 256
 132 562 152 684 326 684 c 256
 461 684 501 616 508 514 c 257
 562 514 l 257
 562 730 l 257
 508 730 l 257
EndSplineSet
Validated: 9
Position2: "'cpsp' Capital Spacing lookup 0 subtable" dx=5 dy=0 dh=10 dv=0
EndChar

StartChar: C.001
Encoding: 65538 -1 17
Width: 619
VWidth: 0
Flags: W
PickledData: "(dp1
S'org.robofab.postScriptHintData'
p2
(dp3
S'vHints'
p4
((I60
I72
t(I503
I59
ttp5
sS'hHints'
p6
((I-14
I60
t(I684
I60
ttp7
ssS'org.robofab.fontlab.maskData'
p8
((dp9
S'method'
p10
S'beginPath'
p11
s(dp12
S'segmentType'
p13
S'line'
p14
sS'smooth'
p15
I00
sg10
S'addPoint'
p16
sS'pt'
p17
(I346
I46
tp18
s(dp19
g10
S'addPoint'
p20
sg17
(I477
I46
tp21
s(dp22
g10
S'addPoint'
p23
sg17
(I510
I120
tp24
s(dp25
g13
S'curve'
p26
sg15
I00
sg10
S'addPoint'
p27
sg17
(I513
I212
tp28
s(dp29
g13
S'line'
p30
sg15
I00
sg10
S'addPoint'
p31
sg17
(I572
I209
tp32
s(dp33
g10
S'addPoint'
p34
sg17
(I563
I77
tp35
s(dp36
g10
S'addPoint'
p37
sg17
(I522
I-14
tp38
s(dp39
g13
S'curve'
p40
sg15
I00
sg10
S'addPoint'
p41
sg17
(I346
I-14
tp42
s(dp43
g10
S'endPath'
p44
stp45
sS'org.robofab.fontlab.mark'
p46
I80
s."
LayerCount: 2
Fore
SplineSet
560 549 m 257
 546 673 489 744 336 744 c 256
 106 744 60 602 60 365 c 256
 60 130 96 -14 336 -14 c 256
 502 -14 553 77 562 209 c 257
 503 212 l 257
 500 120 457 46 336 46 c 256
 151 46 132 168 132 365 c 256
 132 562 162 684 336 684 c 256
 451 684 491 631 501 545 c 257
 560 549 l 257
EndSplineSet
Validated: 9
Position2: "'cpsp' Capital Spacing lookup 0 subtable" dx=5 dy=0 dh=10 dv=0
EndChar

StartChar: Cacute
Encoding: 262 262 18
Width: 619
VWidth: 0
Flags: W
PickledData: "(dp1
S'org.robofab.postScriptHintData'
p2
(dp3
S'replaceTable'
p4
((dp5
S'index'
p6
I2
sS'type'
p7
I1
s(dp8
g6
I1
sg7
I2
s(dp9
g6
I0
sg7
I1
s(dp10
g6
I3
sg7
I1
s(dp11
g6
I0
sg7
I2
s(dp12
g6
I2
sg7
I255
s(dp13
g6
I1
sg7
I1
s(dp14
g6
I0
sg7
I2
s(dp15
g6
I0
sg7
I1
s(dp16
g6
I1
sg7
I2
s(dp17
g6
I3
sg7
I1
s(dp18
g6
I12
sg7
I255
s(dp19
g6
I2
sg7
I1
s(dp20
g6
I1
sg7
I2
s(dp21
g6
I3
sg7
I1
s(dp22
g6
I0
sg7
I1
s(dp23
g6
I0
sg7
I2
stp24
sS'vHints'
p25
((I60
I72
t(I508
I54
ttp26
sS'hHints'
p27
((I-14
I60
t(I684
I60
t(I730
I-20
t(I985
I-20
ttp28
ssS'org.robofab.fontlab.mark'
p29
I80
s."
LayerCount: 2
Fore
SplineSet
508 730 m 257
 508 656 l 257
 477 710 420 744 326 744 c 256
 96 744 60 602 60 365 c 256
 60 130 86 -14 336 -14 c 256
 512 -14 553 77 562 209 c 257
 503 212 l 257
 500 120 467 46 336 46 c 256
 141 46 132 168 132 365 c 256
 132 562 152 684 326 684 c 256
 461 684 501 616 508 514 c 257
 562 514 l 257
 562 730 l 257
 508 730 l 257
284 782 m 257
 456 932 l 257
 403 985 l 257
 242 824 l 257
 284 782 l 257
EndSplineSet
Validated: 9
Position2: "'cpsp' Capital Spacing lookup 0 subtable" dx=5 dy=0 dh=10 dv=0
EndChar

StartChar: Ccaron
Encoding: 268 268 19
Width: 619
VWidth: 0
Flags: W
PickledData: "(dp1
S'org.robofab.postScriptHintData'
p2
(dp3
S'replaceTable'
p4
((dp5
S'index'
p6
I3
sS'type'
p7
I1
s(dp8
g6
I1
sg7
I2
s(dp9
g6
I0
sg7
I1
s(dp10
g6
I2
sg7
I1
s(dp11
g6
I0
sg7
I2
s(dp12
g6
I2
sg7
I255
s(dp13
g6
I1
sg7
I1
s(dp14
g6
I0
sg7
I2
s(dp15
g6
I0
sg7
I1
s(dp16
g6
I1
sg7
I2
s(dp17
g6
I2
sg7
I1
s(dp18
g6
I12
sg7
I255
s(dp19
g6
I3
sg7
I1
s(dp20
g6
I1
sg7
I2
s(dp21
g6
I2
sg7
I1
s(dp22
g6
I0
sg7
I1
s(dp23
g6
I0
sg7
I2
stp24
sS'vHints'
p25
((I60
I72
t(I508
I54
ttp26
sS'hHints'
p27
((I-14
I60
t(I684
I60
t(I985
I-20
t(I730
I-20
ttp28
ssS'org.robofab.fontlab.mark'
p29
I80
s."
LayerCount: 2
Fore
SplineSet
508 730 m 257
 508 656 l 257
 477 710 420 744 326 744 c 256
 96 744 60 602 60 365 c 256
 60 130 86 -14 336 -14 c 256
 512 -14 553 77 562 209 c 257
 503 212 l 257
 500 120 467 46 336 46 c 256
 141 46 132 168 132 365 c 256
 132 562 152 684 326 684 c 256
 461 684 501 616 508 514 c 257
 562 514 l 257
 562 730 l 257
 508 730 l 257
438 985 m 257
 330 875 l 257
 221 985 l 257
 179 943 l 257
 315 788 l 257
 344 788 l 257
 480 943 l 257
 438 985 l 257
EndSplineSet
Validated: 9
Position2: "'cpsp' Capital Spacing lookup 0 subtable" dx=5 dy=0 dh=10 dv=0
EndChar

StartChar: Ccedilla
Encoding: 199 199 20
Width: 634
VWidth: 0
Flags: W
PickledData: "(dp1
S'org.robofab.postScriptHintData'
p2
(dp3
S'replaceTable'
p4
((dp5
S'index'
p6
I0
sS'type'
p7
I1
s(dp8
g6
I1
sg7
I2
s(dp9
g6
I3
sg7
I1
s(dp10
g6
I2
sg7
I1
s(dp11
g6
I0
sg7
I2
s(dp12
g6
I2
sg7
I2
s(dp13
g6
I5
sg7
I255
s(dp14
g6
I1
sg7
I1
s(dp15
g6
I2
sg7
I2
s(dp16
g6
I0
sg7
I2
s(dp17
g6
I2
sg7
I1
s(dp18
g6
I0
sg7
I1
s(dp19
g6
I1
sg7
I2
s(dp20
g6
I13
sg7
I255
s(dp21
g6
I4
sg7
I1
s(dp22
g6
I2
sg7
I2
s(dp23
g6
I0
sg7
I1
s(dp24
g6
I1
sg7
I1
s(dp25
g6
I0
sg7
I2
s(dp26
g6
I1
sg7
I2
s(dp27
g6
I16
sg7
I255
s(dp28
g6
I2
sg7
I1
s(dp29
g6
I0
sg7
I2
s(dp30
g6
I1
sg7
I2
s(dp31
g6
I0
sg7
I1
s(dp32
g6
I1
sg7
I1
s(dp33
g6
I2
sg7
I2
stp34
sS'vHints'
p35
((I75
I72
t(I359
I55
t(I523
I54
ttp36
sS'hHints'
p37
((I-241
I50
t(I-14
I60
t(I684
I60
t(I8
I-21
t(I730
I-20
ttp38
ssS'org.robofab.fontlab.mark'
p39
I144
s."
LayerCount: 2
Fore
SplineSet
215 -146 m 257
 215 -204 235 -241 314 -241 c 256
 394 -241 414 -204 414 -145 c 256
 414 -71 374 -56 312 -55 c 257
 319 -13 l 257
 329 -13 340 -14 351 -14 c 256
 527 -14 568 77 577 209 c 257
 518 212 l 257
 515 120 482 46 351 46 c 256
 156 46 147 168 147 365 c 256
 147 562 167 684 341 684 c 256
 476 684 516 616 523 514 c 257
 577 514 l 257
 577 730 l 257
 523 730 l 257
 523 656 l 257
 492 710 435 744 341 744 c 256
 111 744 75 602 75 365 c 256
 75 158 95 21 271 -8 c 257
 258 -86 l 257
 312 -96 l 258
 348 -103 359 -114 359 -146 c 256
 359 -173 356 -191 317 -191 c 256
 278 -191 275 -173 275 -146 c 257
 215 -146 l 257
EndSplineSet
Validated: 9
Position2: "'cpsp' Capital Spacing lookup 0 subtable" dx=5 dy=0 dh=10 dv=0
EndChar

StartChar: Ccircumflex
Encoding: 264 264 21
Width: 619
VWidth: 0
Flags: W
PickledData: "(dp1
S'org.robofab.postScriptHintData'
p2
(dp3
S'replaceTable'
p4
((dp5
S'index'
p6
I2
sS'type'
p7
I1
s(dp8
g6
I1
sg7
I2
s(dp9
g6
I0
sg7
I1
s(dp10
g6
I3
sg7
I1
s(dp11
g6
I0
sg7
I2
s(dp12
g6
I2
sg7
I255
s(dp13
g6
I1
sg7
I1
s(dp14
g6
I0
sg7
I2
s(dp15
g6
I0
sg7
I1
s(dp16
g6
I1
sg7
I2
s(dp17
g6
I3
sg7
I1
s(dp18
g6
I12
sg7
I255
s(dp19
g6
I2
sg7
I1
s(dp20
g6
I1
sg7
I2
s(dp21
g6
I3
sg7
I1
s(dp22
g6
I0
sg7
I1
s(dp23
g6
I0
sg7
I2
stp24
sS'vHints'
p25
((I60
I72
t(I508
I54
ttp26
sS'hHints'
p27
((I-14
I60
t(I684
I60
t(I730
I-20
t(I979
I-20
ttp28
ssS'org.robofab.fontlab.mark'
p29
I80
s."
LayerCount: 2
Fore
SplineSet
508 730 m 257
 508 656 l 257
 477 710 420 744 326 744 c 256
 96 744 60 602 60 365 c 256
 60 130 86 -14 336 -14 c 256
 512 -14 553 77 562 209 c 257
 503 212 l 257
 500 120 467 46 336 46 c 256
 141 46 132 168 132 365 c 256
 132 562 152 684 326 684 c 256
 461 684 501 616 508 514 c 257
 562 514 l 257
 562 730 l 257
 508 730 l 257
221 782 m 257
 329 892 l 257
 438 782 l 257
 480 824 l 257
 344 979 l 257
 315 979 l 257
 179 824 l 257
 221 782 l 257
EndSplineSet
Validated: 9
Position2: "'cpsp' Capital Spacing lookup 0 subtable" dx=5 dy=0 dh=10 dv=0
EndChar

StartChar: Cdotaccent
Encoding: 266 266 22
Width: 619
VWidth: 0
Flags: W
PickledData: "(dp1
S'org.robofab.postScriptHintData'
p2
(dp3
S'replaceTable'
p4
((dp5
S'index'
p6
I3
sS'type'
p7
I1
s(dp8
g6
I2
sg7
I2
s(dp9
g6
I0
sg7
I1
s(dp10
g6
I2
sg7
I1
s(dp11
g6
I0
sg7
I2
s(dp12
g6
I1
sg7
I2
s(dp13
g6
I2
sg7
I255
s(dp14
g6
I1
sg7
I1
s(dp15
g6
I0
sg7
I2
s(dp16
g6
I0
sg7
I1
s(dp17
g6
I2
sg7
I2
s(dp18
g6
I2
sg7
I1
s(dp19
g6
I1
sg7
I2
s(dp20
g6
I12
sg7
I255
s(dp21
g6
I3
sg7
I1
s(dp22
g6
I2
sg7
I2
s(dp23
g6
I2
sg7
I1
s(dp24
g6
I1
sg7
I2
s(dp25
g6
I0
sg7
I1
s(dp26
g6
I0
sg7
I2
stp27
sS'vHints'
p28
((I60
I72
t(I277
I104
t(I508
I54
ttp29
sS'hHints'
p30
((I-14
I60
t(I684
I60
t(I818
I131
t(I730
I-20
ttp31
ssS'org.robofab.fontlab.mark'
p32
I80
s."
LayerCount: 2
Fore
SplineSet
508 730 m 257
 508 656 l 257
 477 710 420 744 326 744 c 256
 96 744 60 602 60 365 c 256
 60 130 86 -14 336 -14 c 256
 512 -14 553 77 562 209 c 257
 503 212 l 257
 500 120 467 46 336 46 c 256
 141 46 132 168 132 365 c 256
 132 562 152 684 326 684 c 256
 461 684 501 616 508 514 c 257
 562 514 l 257
 562 730 l 257
 508 730 l 257
328 818 m 256
 378 818 381 853 381 883 c 256
 381 914 378 949 328 949 c 256
 280 949 277 914 277 883 c 256
 277 853 280 818 328 818 c 256
EndSplineSet
Validated: 9
Position2: "'cpsp' Capital Spacing lookup 0 subtable" dx=5 dy=0 dh=10 dv=0
EndChar

StartChar: D
Encoding: 68 68 23
Width: 688
VWidth: 0
Flags: W
PickledData: "(dp1
S'org.robofab.postScriptHintData'
p2
(dp3
S'vHints'
p4
((I130
I72
t(I556
I72
ttp5
sS'hHints'
p6
((I0
I59
t(I671
I59
ttp7
ssS'org.robofab.fontlab.maskData'
p8
((dp9
S'method'
p10
S'beginPath'
p11
s(dp12
S'segmentType'
p13
S'line'
p14
sS'smooth'
p15
I00
sg10
S'addPoint'
p16
sS'pt'
p17
(I130
I730
tp18
s(dp19
g13
S'line'
p20
sg15
I00
sg10
S'addPoint'
p21
sg17
(I130
I0
tp22
s(dp23
g13
S'line'
p24
sg15
I00
sg10
S'addPoint'
p25
sg17
(I202
I0
tp26
s(dp27
g13
S'line'
p28
sg15
I00
sg10
S'addPoint'
p29
sg17
(I202
I730
tp30
s(dp31
g10
S'endPath'
p32
s(dp33
g10
S'beginPath'
p34
s(dp35
g13
S'line'
p36
sg15
I00
sg10
S'addPoint'
p37
sg17
(I202
I730
tp38
s(dp39
g13
S'line'
p40
sg15
I00
sg10
S'addPoint'
p41
sg17
(I202
I668
tp42
s(dp43
g13
S'line'
p44
sg15
I01
sg10
S'addPoint'
p45
sg17
(I355
I668
tp46
s(dp47
g10
S'addPoint'
p48
sg17
(I545
I668
tp49
s(dp50
g10
S'addPoint'
p51
sg17
(I566
I553
tp52
s(dp53
g13
S'curve'
p54
sg15
I01
sg10
S'addPoint'
p55
sg17
(I566
I365
tp56
s(dp57
g10
S'addPoint'
p58
sg17
(I566
I177
tp59
s(dp60
g10
S'addPoint'
p61
sg17
(I545
I62
tp62
s(dp63
g13
S'curve'
p64
sg15
I01
sg10
S'addPoint'
p65
sg17
(I355
I62
tp66
s(dp67
g13
S'line'
p68
sg15
I00
sg10
S'addPoint'
p69
sg17
(I202
I62
tp70
s(dp71
g13
S'line'
p72
sg15
I00
sg10
S'addPoint'
p73
sg17
(I202
I0
tp74
s(dp75
g13
S'line'
p76
sg15
I01
sg10
S'addPoint'
p77
sg17
(I355
I0
tp78
s(dp79
g10
S'addPoint'
p80
sg17
(I610
I0
tp81
s(dp82
g10
S'addPoint'
p83
sg17
(I638
I137
tp84
s(dp85
g13
S'curve'
p86
sg15
I01
sg10
S'addPoint'
p87
sg17
(I638
I365
tp88
s(dp89
g10
S'addPoint'
p90
sg17
(I638
I591
tp91
s(dp92
g10
S'addPoint'
p93
sg17
(I610
I730
tp94
s(dp95
g13
S'curve'
p96
sg15
I01
sg10
S'addPoint'
p97
sg17
(I355
I730
tp98
s(dp99
g10
S'endPath'
p100
stp101
sS'org.robofab.fontlab.mark'
p102
I144
s."
LayerCount: 2
Fore
SplineSet
202 730 m 257
 70 730 l 257
 70 680 l 257
 130 680 l 257
 130 50 l 257
 70 50 l 257
 70 0 l 257
 345 0 l 258
 600 0 628 137 628 365 c 256
 628 591 600 730 345 730 c 258
 202 730 l 257
345 671 m 258
 535 671 556 553 556 365 c 256
 556 177 535 59 345 59 c 258
 202 59 l 257
 202 671 l 257
 345 671 l 258
EndSplineSet
Validated: 9
Position2: "'cpsp' Capital Spacing lookup 0 subtable" dx=5 dy=0 dh=10 dv=0
EndChar

StartChar: Dcaron
Encoding: 270 270 24
Width: 688
VWidth: 0
Flags: W
PickledData: "(dp1
S'org.robofab.postScriptHintData'
p2
(dp3
S'vHints'
p4
((I130
I72
t(I556
I72
ttp5
sS'hHints'
p6
((I0
I59
t(I671
I59
t(I985
I-20
ttp7
ssS'org.robofab.fontlab.mark'
p8
I80
s."
LayerCount: 2
Fore
SplineSet
202 730 m 257
 70 730 l 257
 70 680 l 257
 130 680 l 257
 130 50 l 257
 70 50 l 257
 70 0 l 257
 345 0 l 258
 600 0 628 137 628 365 c 256
 628 591 600 730 345 730 c 258
 202 730 l 257
345 671 m 258
 535 671 556 553 556 365 c 256
 556 177 535 59 345 59 c 258
 202 59 l 257
 202 671 l 257
 345 671 l 258
453 985 m 257
 345 875 l 257
 236 985 l 257
 194 943 l 257
 330 788 l 257
 359 788 l 257
 495 943 l 257
 453 985 l 257
EndSplineSet
Validated: 9
Position2: "'cpsp' Capital Spacing lookup 0 subtable" dx=5 dy=0 dh=10 dv=0
EndChar

StartChar: Dcroat
Encoding: 272 272 25
Width: 688
VWidth: 0
Flags: W
PickledData: "(dp1
S'org.robofab.postScriptHintData'
p2
(dp3
S'vHints'
p4
((I130
I72
t(I556
I72
ttp5
sS'hHints'
p6
((I0
I59
t(I335
I60
t(I671
I59
ttp7
ssS'org.robofab.fontlab.maskData'
p8
((dp9
S'method'
p10
S'beginPath'
p11
s(dp12
S'segmentType'
p13
S'line'
p14
sS'smooth'
p15
I00
sg10
S'addPoint'
p16
sS'pt'
p17
(I130
I730
tp18
s(dp19
g13
S'line'
p20
sg15
I00
sg10
S'addPoint'
p21
sg17
(I130
I0
tp22
s(dp23
g13
S'line'
p24
sg15
I00
sg10
S'addPoint'
p25
sg17
(I202
I0
tp26
s(dp27
g13
S'line'
p28
sg15
I00
sg10
S'addPoint'
p29
sg17
(I202
I730
tp30
s(dp31
g10
S'endPath'
p32
s(dp33
g10
S'beginPath'
p34
s(dp35
g13
S'line'
p36
sg15
I00
sg10
S'addPoint'
p37
sg17
(I202
I730
tp38
s(dp39
g13
S'line'
p40
sg15
I00
sg10
S'addPoint'
p41
sg17
(I202
I668
tp42
s(dp43
g13
S'line'
p44
sg15
I01
sg10
S'addPoint'
p45
sg17
(I355
I668
tp46
s(dp47
g10
S'addPoint'
p48
sg17
(I545
I668
tp49
s(dp50
g10
S'addPoint'
p51
sg17
(I566
I553
tp52
s(dp53
g13
S'curve'
p54
sg15
I01
sg10
S'addPoint'
p55
sg17
(I566
I365
tp56
s(dp57
g10
S'addPoint'
p58
sg17
(I566
I177
tp59
s(dp60
g10
S'addPoint'
p61
sg17
(I545
I62
tp62
s(dp63
g13
S'curve'
p64
sg15
I01
sg10
S'addPoint'
p65
sg17
(I355
I62
tp66
s(dp67
g13
S'line'
p68
sg15
I00
sg10
S'addPoint'
p69
sg17
(I202
I62
tp70
s(dp71
g13
S'line'
p72
sg15
I00
sg10
S'addPoint'
p73
sg17
(I202
I0
tp74
s(dp75
g13
S'line'
p76
sg15
I01
sg10
S'addPoint'
p77
sg17
(I355
I0
tp78
s(dp79
g10
S'addPoint'
p80
sg17
(I610
I0
tp81
s(dp82
g10
S'addPoint'
p83
sg17
(I638
I137
tp84
s(dp85
g13
S'curve'
p86
sg15
I01
sg10
S'addPoint'
p87
sg17
(I638
I365
tp88
s(dp89
g10
S'addPoint'
p90
sg17
(I638
I591
tp91
s(dp92
g10
S'addPoint'
p93
sg17
(I610
I730
tp94
s(dp95
g13
S'curve'
p96
sg15
I01
sg10
S'addPoint'
p97
sg17
(I355
I730
tp98
s(dp99
g10
S'endPath'
p100
stp101
sS'org.robofab.fontlab.mark'
p102
I80
s."
LayerCount: 2
Fore
SplineSet
70 680 m 257
 130 680 l 257
 130 395 l 257
 70 395 l 257
 70 335 l 257
 130 335 l 257
 130 50 l 257
 70 50 l 257
 70 0 l 257
 345 0 l 258
 600 0 628 137 628 365 c 256
 628 591 600 730 345 730 c 258
 70 730 l 257
 70 680 l 257
345 671 m 258
 535 671 556 553 556 365 c 256
 556 177 535 59 345 59 c 258
 202 59 l 257
 202 335 l 257
 422 335 l 257
 422 395 l 257
 202 395 l 257
 202 671 l 257
 345 671 l 258
EndSplineSet
Validated: 9
Position2: "'cpsp' Capital Spacing lookup 0 subtable" dx=5 dy=0 dh=10 dv=0
EndChar

StartChar: Delta
Encoding: 8710 8710 26
Width: 572
VWidth: 0
Flags: W
PickledData: "(dp1
S'org.robofab.postScriptHintData'
p2
(dp3
S'hHints'
p4
((I0
I50
t(I670
I-20
ttp5
ssS'org.robofab.fontlab.mark'
p6
I80
s."
LayerCount: 2
Fore
SplineSet
248 670 m 257
 0 0 l 257
 572 0 l 257
 324 670 l 257
 248 670 l 257
286 590 m 257
 483 50 l 257
 89 50 l 257
 286 590 l 257
EndSplineSet
Validated: 9
Position2: "'cpsp' Capital Spacing lookup 0 subtable" dx=5 dy=0 dh=10 dv=0
EndChar

StartChar: E
Encoding: 69 69 27
Width: 620
VWidth: 0
Flags: W
PickledData: "(dp1
S'org.robofab.postScriptHintData'
p2
(dp3
S'vHints'
p4
((I130
I72
ttp5
sS'hHints'
p6
((I0
I59
t(I341
I60
t(I671
I59
t(I572
I-20
ttp7
ssS'org.robofab.fontlab.mark'
p8
I144
sS'com.typemytype.robofont.layerData'
p9
(dp10
sS'org.robofab.fontlab.maskData'
p11
((dp12
S'method'
p13
S'beginPath'
p14
s(dp15
S'segmentType'
p16
S'line'
p17
sS'smooth'
p18
I00
sg13
S'addPoint'
p19
sS'pt'
p20
(I130
I666
tp21
s(dp22
g16
S'line'
p23
sg18
I00
sg13
S'addPoint'
p24
sg20
(I510
I666
tp25
s(dp26
g16
S'line'
p27
sg18
I00
sg13
S'addPoint'
p28
sg20
(I510
I730
tp29
s(dp30
g16
S'line'
p31
sg18
I00
sg13
S'addPoint'
p32
sg20
(I130
I730
tp33
s(dp34
g13
S'endPath'
p35
s(dp36
g13
S'beginPath'
p37
s(dp38
g16
S'line'
p39
sg18
I00
sg13
S'addPoint'
p40
sg20
(I130
I666
tp41
s(dp42
g16
S'line'
p43
sg18
I00
sg13
S'addPoint'
p44
sg20
(I130
I0
tp45
s(dp46
g16
S'line'
p47
sg18
I00
sg13
S'addPoint'
p48
sg20
(I202
I0
tp49
s(dp50
g16
S'line'
p51
sg18
I00
sg13
S'addPoint'
p52
sg20
(I202
I666
tp53
s(dp54
g13
S'endPath'
p55
s(dp56
g13
S'beginPath'
p57
s(dp58
g16
S'line'
p59
sg18
I00
sg13
S'addPoint'
p60
sg20
(I130
I0
tp61
s(dp62
g16
S'line'
p63
sg18
I00
sg13
S'addPoint'
p64
sg20
(I530
I0
tp65
s(dp66
g16
S'line'
p67
sg18
I00
sg13
S'addPoint'
p68
sg20
(I530
I64
tp69
s(dp70
g16
S'line'
p71
sg18
I00
sg13
S'addPoint'
p72
sg20
(I130
I64
tp73
s(dp74
g13
S'endPath'
p75
s(dp76
g13
S'beginPath'
p77
s(dp78
g16
S'line'
p79
sg18
I00
sg13
S'addPoint'
p80
sg20
(I130
I339
tp81
s(dp82
g16
S'line'
p83
sg18
I00
sg13
S'addPoint'
p84
sg20
(I490
I339
tp85
s(dp86
g16
S'line'
p87
sg18
I00
sg13
S'addPoint'
p88
sg20
(I490
I403
tp89
s(dp90
g16
S'line'
p91
sg18
I00
sg13
S'addPoint'
p92
sg20
(I130
I403
tp93
s(dp94
g13
S'endPath'
p95
s(dp96
g13
S'beginPath'
p97
s(dp98
g16
S'line'
p99
sg18
I00
sg13
S'addPoint'
p100
sg20
(I70
I674
tp101
s(dp102
g16
S'line'
p103
sg18
I00
sg13
S'addPoint'
p104
sg20
(I170
I674
tp105
s(dp106
g16
S'line'
p107
sg18
I00
sg13
S'addPoint'
p108
sg20
(I170
I730
tp109
s(dp110
g16
S'line'
p111
sg18
I00
sg13
S'addPoint'
p112
sg20
(I70
I730
tp113
s(dp114
g13
S'endPath'
p115
s(dp116
g13
S'beginPath'
p117
s(dp118
g16
S'line'
p119
sg18
I00
sg13
S'addPoint'
p120
sg20
(I70
I0
tp121
s(dp122
g16
S'line'
p123
sg18
I00
sg13
S'addPoint'
p124
sg20
(I170
I0
tp125
s(dp126
g16
S'line'
p127
sg18
I00
sg13
S'addPoint'
p128
sg20
(I170
I56
tp129
s(dp130
g16
S'line'
p131
sg18
I00
sg13
S'addPoint'
p132
sg20
(I70
I56
tp133
s(dp134
g13
S'endPath'
p135
s(dp136
g13
S'beginPath'
p137
s(dp138
g16
S'line'
p139
sg18
I00
sg13
S'addPoint'
p140
sg20
(I540
I572
tp141
s(dp142
g16
S'line'
p143
sg18
I00
sg13
S'addPoint'
p144
sg20
(I540
I730
tp145
s(dp146
g16
S'line'
p147
sg18
I00
sg13
S'addPoint'
p148
sg20
(I484
I730
tp149
s(dp150
g16
S'line'
p151
sg18
I00
sg13
S'addPoint'
p152
sg20
(I484
I572
tp153
s(dp154
g13
S'endPath'
p155
s(dp156
g13
S'beginPath'
p157
s(dp158
g16
S'line'
p159
sg18
I00
sg13
S'addPoint'
p160
sg20
(I560
I0
tp161
s(dp162
g16
S'line'
p163
sg18
I00
sg13
S'addPoint'
p164
sg20
(I560
I158
tp165
s(dp166
g16
S'line'
p167
sg18
I00
sg13
S'addPoint'
p168
sg20
(I504
I158
tp169
s(dp170
g16
S'line'
p171
sg18
I00
sg13
S'addPoint'
p172
sg20
(I504
I0
tp173
s(dp174
g13
S'endPath'
p175
s(dp176
g13
S'beginPath'
p177
s(dp178
g16
S'line'
p179
sg18
I00
sg13
S'addPoint'
p180
sg20
(I490
I279
tp181
s(dp182
g16
S'line'
p183
sg18
I00
sg13
S'addPoint'
p184
sg20
(I490
I463
tp185
s(dp186
g16
S'line'
p187
sg18
I00
sg13
S'addPoint'
p188
sg20
(I434
I463
tp189
s(dp190
g16
S'line'
p191
sg18
I00
sg13
S'addPoint'
p192
sg20
(I434
I279
tp193
s(dp194
g13
S'endPath'
p195
s(dp196
g13
S'beginPath'
p197
s(dp198
g16
S'line'
p199
sg18
I00
sg13
S'addPoint'
p200
sg20
(I490
I279
tp201
s(dp202
g16
S'line'
p203
sg18
I00
sg13
S'addPoint'
p204
sg20
(I490
I463
tp205
s(dp206
g16
S'line'
p207
sg18
I00
sg13
S'addPoint'
p208
sg20
(I434
I463
tp209
s(dp210
g16
S'line'
p211
sg18
I00
sg13
S'addPoint'
p212
sg20
(I434
I279
tp213
s(dp214
g13
S'endPath'
p215
stp216
s."
LayerCount: 2
Fore
SplineSet
70 0 m 257
 560 0 l 257
 560 158 l 257
 504 158 l 257
 504 59 l 257
 202 59 l 257
 202 341 l 257
 490 341 l 257
 490 401 l 257
 202 401 l 257
 202 671 l 257
 484 671 l 257
 484 572 l 257
 540 572 l 257
 540 730 l 257
 70 730 l 257
 70 680 l 257
 130 680 l 257
 130 50 l 257
 70 50 l 257
 70 0 l 257
EndSplineSet
Validated: 9
Position2: "'cpsp' Capital Spacing lookup 0 subtable" dx=5 dy=0 dh=10 dv=0
EndChar

StartChar: Eacute
Encoding: 201 201 28
Width: 620
VWidth: 0
Flags: W
PickledData: "(dp1
S'org.robofab.postScriptHintData'
p2
(dp3
S'vHints'
p4
((I130
I72
ttp5
sS'hHints'
p6
((I0
I59
t(I341
I60
t(I671
I59
t(I572
I-20
t(I985
I-20
ttp7
ssS'org.robofab.fontlab.mark'
p8
I144
s."
LayerCount: 2
Fore
SplineSet
70 0 m 257
 560 0 l 257
 560 158 l 257
 504 158 l 257
 504 59 l 257
 202 59 l 257
 202 341 l 257
 490 341 l 257
 490 401 l 257
 202 401 l 257
 202 671 l 257
 484 671 l 257
 484 572 l 257
 540 572 l 257
 540 730 l 257
 70 730 l 257
 70 680 l 257
 130 680 l 257
 130 50 l 257
 70 50 l 257
 70 0 l 257
237 782 m 257
 409 932 l 257
 356 985 l 257
 195 824 l 257
 237 782 l 257
EndSplineSet
Validated: 9
Position2: "'cpsp' Capital Spacing lookup 0 subtable" dx=5 dy=0 dh=10 dv=0
EndChar

StartChar: Ebreve
Encoding: 276 276 29
Width: 620
VWidth: 0
Flags: W
PickledData: "(dp1
S'org.robofab.postScriptHintData'
p2
(dp3
S'replaceTable'
p4
((dp5
S'index'
p6
I3
sS'type'
p7
I1
s(dp8
g6
I0
sg7
I1
s(dp9
g6
I1
sg7
I1
s(dp10
g6
I2
sg7
I1
s(dp11
g6
I5
sg7
I1
s(dp12
g6
I0
sg7
I2
s(dp13
g6
I1
sg7
I255
s(dp14
g6
I4
sg7
I1
s(dp15
g6
I0
sg7
I1
s(dp16
g6
I1
sg7
I1
s(dp17
g6
I2
sg7
I1
s(dp18
g6
I5
sg7
I1
s(dp19
g6
I0
sg7
I2
s(dp20
g6
I2
sg7
I255
s(dp21
g6
I3
sg7
I1
s(dp22
g6
I2
sg7
I1
s(dp23
g6
I5
sg7
I1
s(dp24
g6
I0
sg7
I2
s(dp25
g6
I1
sg7
I1
s(dp26
g6
I0
sg7
I1
stp27
sS'vHints'
p28
((I130
I72
ttp29
sS'hHints'
p30
((I0
I59
t(I341
I60
t(I671
I59
t(I802
I135
t(I802
I61
t(I572
I-20
ttp31
ssS'org.robofab.fontlab.mark'
p32
I80
s."
LayerCount: 2
Fore
SplineSet
70 680 m 257
 130 680 l 257
 130 671 l 257
 130 50 l 257
 70 50 l 257
 70 0 l 257
 560 0 l 257
 560 158 l 257
 504 158 l 257
 504 59 l 257
 202 59 l 257
 202 341 l 257
 490 341 l 257
 490 401 l 257
 202 401 l 257
 202 671 l 257
 484 671 l 257
 484 572 l 257
 540 572 l 257
 540 730 l 257
 70 730 l 257
 70 680 l 257
436 937 m 257
 436 868 423 802 310 802 c 256
 198 802 185 868 185 937 c 257
 240 937 l 257
 240 899 244 863 310 863 c 256
 376 863 380 899 380 937 c 257
 436 937 l 257
EndSplineSet
Validated: 9
Position2: "'cpsp' Capital Spacing lookup 0 subtable" dx=5 dy=0 dh=10 dv=0
EndChar

StartChar: Ecaron
Encoding: 282 282 30
Width: 620
VWidth: 0
Flags: W
PickledData: "(dp1
S'org.robofab.postScriptHintData'
p2
(dp3
S'vHints'
p4
((I130
I72
ttp5
sS'hHints'
p6
((I0
I59
t(I341
I60
t(I671
I59
t(I572
I-20
t(I985
I-20
ttp7
ssS'org.robofab.fontlab.mark'
p8
I80
s."
LayerCount: 2
Fore
SplineSet
70 680 m 257
 130 680 l 257
 130 671 l 257
 130 50 l 257
 70 50 l 257
 70 0 l 257
 560 0 l 257
 560 158 l 257
 504 158 l 257
 504 59 l 257
 202 59 l 257
 202 341 l 257
 490 341 l 257
 490 401 l 257
 202 401 l 257
 202 671 l 257
 484 671 l 257
 484 572 l 257
 540 572 l 257
 540 730 l 257
 70 730 l 257
 70 680 l 257
439 985 m 257
 331 875 l 257
 222 985 l 257
 180 943 l 257
 316 788 l 257
 345 788 l 257
 481 943 l 257
 439 985 l 257
EndSplineSet
Validated: 9
Position2: "'cpsp' Capital Spacing lookup 0 subtable" dx=5 dy=0 dh=10 dv=0
EndChar

StartChar: Ecircumflex
Encoding: 202 202 31
Width: 620
VWidth: 0
Flags: W
PickledData: "(dp1
S'org.robofab.postScriptHintData'
p2
(dp3
S'vHints'
p4
((I130
I72
ttp5
sS'hHints'
p6
((I0
I59
t(I341
I60
t(I671
I59
t(I572
I-20
t(I979
I-20
ttp7
ssS'org.robofab.fontlab.mark'
p8
I144
s."
LayerCount: 2
Fore
SplineSet
70 0 m 257
 560 0 l 257
 560 158 l 257
 504 158 l 257
 504 59 l 257
 202 59 l 257
 202 341 l 257
 490 341 l 257
 490 401 l 257
 202 401 l 257
 202 671 l 257
 484 671 l 257
 484 572 l 257
 540 572 l 257
 540 730 l 257
 70 730 l 257
 70 680 l 257
 130 680 l 257
 130 50 l 257
 70 50 l 257
 70 0 l 257
194 782 m 257
 302 892 l 257
 411 782 l 257
 453 824 l 257
 317 979 l 257
 288 979 l 257
 152 824 l 257
 194 782 l 257
EndSplineSet
Validated: 9
Position2: "'cpsp' Capital Spacing lookup 0 subtable" dx=5 dy=0 dh=10 dv=0
EndChar

StartChar: Edieresis
Encoding: 203 203 32
Width: 620
VWidth: 0
Flags: W
PickledData: "(dp1
S'org.robofab.postScriptHintData'
p2
(dp3
S'vHints'
p4
((I130
I72
t(I241
I122
ttp5
sS'hHints'
p6
((I0
I59
t(I341
I60
t(I671
I59
t(I830
I107
t(I572
I-20
ttp7
ssS'org.robofab.fontlab.mark'
p8
I144
s."
LayerCount: 2
Fore
SplineSet
70 0 m 257
 560 0 l 257
 560 158 l 257
 504 158 l 257
 504 59 l 257
 202 59 l 257
 202 341 l 257
 490 341 l 257
 490 401 l 257
 202 401 l 257
 202 671 l 257
 484 671 l 257
 484 572 l 257
 540 572 l 257
 540 730 l 257
 70 730 l 257
 70 680 l 257
 130 680 l 257
 130 50 l 257
 70 50 l 257
 70 0 l 257
196 830 m 256
 155 830 153 858 153 883 c 256
 153 909 155 937 196 937 c 256
 239 937 241 909 241 883 c 256
 241 858 239 830 196 830 c 256
406 830 m 256
 365 830 363 858 363 883 c 256
 363 909 365 937 406 937 c 256
 449 937 451 909 451 883 c 256
 451 858 449 830 406 830 c 256
EndSplineSet
Validated: 9
Position2: "'cpsp' Capital Spacing lookup 0 subtable" dx=5 dy=0 dh=10 dv=0
EndChar

StartChar: Edotaccent
Encoding: 278 278 33
Width: 620
VWidth: 0
Flags: W
PickledData: "(dp1
S'org.robofab.postScriptHintData'
p2
(dp3
S'vHints'
p4
((I130
I72
t(I268
I104
ttp5
sS'hHints'
p6
((I0
I59
t(I341
I60
t(I671
I59
t(I818
I131
t(I572
I-20
ttp7
ssS'org.robofab.fontlab.mark'
p8
I80
s."
LayerCount: 2
Fore
SplineSet
70 680 m 257
 130 680 l 257
 130 50 l 257
 70 50 l 257
 70 0 l 257
 560 0 l 257
 560 158 l 257
 504 158 l 257
 504 59 l 257
 202 59 l 257
 202 341 l 257
 490 341 l 257
 490 401 l 257
 202 401 l 257
 202 671 l 257
 484 671 l 257
 484 572 l 257
 540 572 l 257
 540 730 l 257
 70 730 l 257
 70 680 l 257
319 818 m 256
 369 818 372 853 372 883 c 256
 372 914 369 949 319 949 c 256
 271 949 268 914 268 883 c 256
 268 853 271 818 319 818 c 256
EndSplineSet
Validated: 9
Position2: "'cpsp' Capital Spacing lookup 0 subtable" dx=5 dy=0 dh=10 dv=0
EndChar

StartChar: Egrave
Encoding: 200 200 34
Width: 620
VWidth: 0
Flags: W
PickledData: "(dp1
S'org.robofab.postScriptHintData'
p2
(dp3
S'vHints'
p4
((I130
I72
ttp5
sS'hHints'
p6
((I0
I59
t(I341
I60
t(I671
I59
t(I985
I-20
t(I572
I-20
ttp7
ssS'org.robofab.fontlab.mark'
p8
I144
s."
LayerCount: 2
Fore
SplineSet
70 0 m 257
 560 0 l 257
 560 158 l 257
 504 158 l 257
 504 59 l 257
 202 59 l 257
 202 341 l 257
 490 341 l 257
 490 401 l 257
 202 401 l 257
 202 671 l 257
 484 671 l 257
 484 572 l 257
 540 572 l 257
 540 730 l 257
 70 730 l 257
 70 680 l 257
 130 680 l 257
 130 50 l 257
 70 50 l 257
 70 0 l 257
367 782 m 257
 195 932 l 257
 248 985 l 257
 409 824 l 257
 367 782 l 257
EndSplineSet
Validated: 9
Position2: "'cpsp' Capital Spacing lookup 0 subtable" dx=5 dy=0 dh=10 dv=0
EndChar

StartChar: Emacron
Encoding: 274 274 35
Width: 620
VWidth: 0
Flags: W
PickledData: "(dp1
S'org.robofab.postScriptHintData'
p2
(dp3
S'vHints'
p4
((I130
I72
ttp5
sS'hHints'
p6
((I0
I59
t(I341
I60
t(I671
I59
t(I852
I65
t(I572
I-20
ttp7
ssS'org.robofab.fontlab.mark'
p8
I80
s."
LayerCount: 2
Fore
SplineSet
70 0 m 257
 560 0 l 257
 560 158 l 257
 504 158 l 257
 504 59 l 257
 202 59 l 257
 202 341 l 257
 490 341 l 257
 490 401 l 257
 202 401 l 257
 202 671 l 257
 484 671 l 257
 484 572 l 257
 540 572 l 257
 540 730 l 257
 70 730 l 257
 70 680 l 257
 130 680 l 257
 130 50 l 257
 70 50 l 257
 70 0 l 257
183 852 m 257
 437 852 l 257
 437 917 l 257
 183 917 l 257
 183 852 l 257
EndSplineSet
Validated: 9
Position2: "'cpsp' Capital Spacing lookup 0 subtable" dx=5 dy=0 dh=10 dv=0
EndChar

StartChar: Eng
Encoding: 330 330 36
Width: 770
VWidth: 0
Flags: W
PickledData: "(dp1
S'org.robofab.postScriptHintData'
p2
(dp3
S'vHints'
p4
((I130
I72
t(I578
I72
ttp5
sS'hHints'
p6
((I0
I50
t(I680
I50
t(I-206
I-21
ttp7
ssS'org.robofab.fontlab.mark'
p8
I80
s."
LayerCount: 2
Fore
SplineSet
518 680 m 257
 578 680 l 257
 578 119 l 257
 210 730 l 257
 70 730 l 257
 70 680 l 257
 130 680 l 257
 130 50 l 257
 70 50 l 257
 70 0 l 257
 262 0 l 257
 262 50 l 257
 202 50 l 257
 202 610 l 257
 580 -17 l 257
 580 -78 l 258
 580 -138 570 -162 511 -167 c 258
 450 -172 l 257
 450 -227 l 257
 511 -227 l 258
 633 -227 650 -171 650 -78 c 258
 650 680 l 257
 710 680 l 257
 710 730 l 257
 518 730 l 257
 518 680 l 257
EndSplineSet
Validated: 9
Position2: "'cpsp' Capital Spacing lookup 0 subtable" dx=5 dy=0 dh=10 dv=0
EndChar

StartChar: Eogonek
Encoding: 280 280 37
Width: 620
VWidth: 0
Flags: W
PickledData: "(dp1
S'org.robofab.postScriptHintData'
p2
(dp3
S'vHints'
p4
((I130
I72
t(I367
I58
ttp5
sS'hHints'
p6
((I-227
I53
t(I0
I59
t(I341
I60
t(I671
I59
t(I572
I-20
ttp7
ssS'org.robofab.fontlab.mark'
p8
I80
s."
LayerCount: 2
Fore
SplineSet
70 680 m 257
 130 680 l 257
 130 671 l 257
 130 50 l 257
 70 50 l 257
 70 0 l 257
 478 0 l 257
 449 -15 l 258
 386 -47 367 -82 367 -128 c 256
 367 -193 402 -227 470 -227 c 256
 524 -227 574 -191 599 -140 c 257
 557 -112 l 257
 541 -149 508 -174 475 -174 c 256
 442 -174 425 -154 425 -123 c 256
 425 -95 432 -78 477 -51 c 258
 560 0 l 257
 560 158 l 257
 504 158 l 257
 504 59 l 257
 202 59 l 257
 202 341 l 257
 490 341 l 257
 490 401 l 257
 202 401 l 257
 202 671 l 257
 484 671 l 257
 484 572 l 257
 540 572 l 257
 540 730 l 257
 70 730 l 257
 70 680 l 257
EndSplineSet
Validated: 9
Position2: "'cpsp' Capital Spacing lookup 0 subtable" dx=5 dy=0 dh=10 dv=0
EndChar

StartChar: Eth
Encoding: 208 208 38
Width: 688
VWidth: 0
Flags: W
PickledData: "(dp1
S'org.robofab.postScriptHintData'
p2
(dp3
S'vHints'
p4
((I130
I72
t(I556
I72
ttp5
sS'hHints'
p6
((I0
I62
t(I335
I60
t(I668
I62
ttp7
ssS'org.robofab.fontlab.maskData'
p8
((dp9
S'method'
p10
S'beginPath'
p11
s(dp12
S'segmentType'
p13
S'line'
p14
sS'smooth'
p15
I00
sg10
S'addPoint'
p16
sS'pt'
p17
(I130
I730
tp18
s(dp19
g13
S'line'
p20
sg15
I00
sg10
S'addPoint'
p21
sg17
(I130
I0
tp22
s(dp23
g13
S'line'
p24
sg15
I00
sg10
S'addPoint'
p25
sg17
(I202
I0
tp26
s(dp27
g13
S'line'
p28
sg15
I00
sg10
S'addPoint'
p29
sg17
(I202
I730
tp30
s(dp31
g10
S'endPath'
p32
s(dp33
g10
S'beginPath'
p34
s(dp35
g13
S'line'
p36
sg15
I00
sg10
S'addPoint'
p37
sg17
(I202
I730
tp38
s(dp39
g13
S'line'
p40
sg15
I00
sg10
S'addPoint'
p41
sg17
(I202
I668
tp42
s(dp43
g13
S'line'
p44
sg15
I01
sg10
S'addPoint'
p45
sg17
(I355
I668
tp46
s(dp47
g10
S'addPoint'
p48
sg17
(I545
I668
tp49
s(dp50
g10
S'addPoint'
p51
sg17
(I566
I553
tp52
s(dp53
g13
S'curve'
p54
sg15
I01
sg10
S'addPoint'
p55
sg17
(I566
I365
tp56
s(dp57
g10
S'addPoint'
p58
sg17
(I566
I177
tp59
s(dp60
g10
S'addPoint'
p61
sg17
(I545
I62
tp62
s(dp63
g13
S'curve'
p64
sg15
I01
sg10
S'addPoint'
p65
sg17
(I355
I62
tp66
s(dp67
g13
S'line'
p68
sg15
I00
sg10
S'addPoint'
p69
sg17
(I202
I62
tp70
s(dp71
g13
S'line'
p72
sg15
I00
sg10
S'addPoint'
p73
sg17
(I202
I0
tp74
s(dp75
g13
S'line'
p76
sg15
I01
sg10
S'addPoint'
p77
sg17
(I355
I0
tp78
s(dp79
g10
S'addPoint'
p80
sg17
(I610
I0
tp81
s(dp82
g10
S'addPoint'
p83
sg17
(I638
I137
tp84
s(dp85
g13
S'curve'
p86
sg15
I01
sg10
S'addPoint'
p87
sg17
(I638
I365
tp88
s(dp89
g10
S'addPoint'
p90
sg17
(I638
I591
tp91
s(dp92
g10
S'addPoint'
p93
sg17
(I610
I730
tp94
s(dp95
g13
S'curve'
p96
sg15
I01
sg10
S'addPoint'
p97
sg17
(I355
I730
tp98
s(dp99
g10
S'endPath'
p100
stp101
sS'org.robofab.fontlab.mark'
p102
I144
s."
LayerCount: 2
Fore
SplineSet
70 674 m 257
 130 674 l 257
 130 395 l 257
 70 395 l 257
 70 335 l 257
 130 335 l 257
 130 56 l 257
 70 56 l 257
 70 0 l 257
 345 0 l 258
 600 0 628 137 628 365 c 256
 628 591 600 730 345 730 c 258
 70 730 l 257
 70 674 l 257
345 668 m 258
 535 668 556 553 556 365 c 256
 556 177 535 62 345 62 c 258
 202 62 l 257
 202 335 l 257
 422 335 l 257
 422 395 l 257
 202 395 l 257
 202 668 l 257
 345 668 l 258
EndSplineSet
Validated: 9
Position2: "'cpsp' Capital Spacing lookup 0 subtable" dx=5 dy=0 dh=10 dv=0
EndChar

StartChar: Euro
Encoding: 8364 8364 39
Width: 580
VWidth: 0
Flags: W
PickledData: "(dp1
S'org.robofab.postScriptHintData'
p2
(dp3
S'vHints'
p4
((I111
I70
t(I481
I62
ttp5
sS'hHints'
p6
((I-14
I59
t(I245
I50
t(I375
I50
t(I625
I59
ttp7
ssS'org.robofab.fontlab.mark'
p8
I80
s."
LayerCount: 2
Fore
SplineSet
47 375 m 257
 110 375 l 257
 110 335 l 257
 110 295 l 257
 47 295 l 257
 47 245 l 257
 111 245 l 257
 118 85 156 -14 343 -14 c 256
 482 -14 541 45 543 151 c 257
 482 155 l 257
 482 83 428 45 343 45 c 256
 215 45 187 115 181 245 c 257
 405 245 l 257
 405 295 l 257
 180 295 l 257
 180 335 l 257
 180 375 l 257
 405 375 l 257
 405 425 l 257
 181 425 l 257
 187 555 215 625 343 625 c 256
 427 625 481 587 481 517 c 257
 543 521 l 257
 540 625 481 684 343 684 c 256
 156 684 118 584 111 425 c 257
 47 425 l 257
 47 375 l 257
EndSplineSet
Validated: 9
EndChar

StartChar: F
Encoding: 70 70 40
Width: 560
VWidth: 0
Flags: W
PickledData: "(dp1
S'org.robofab.postScriptHintData'
p2
(dp3
S'vHints'
p4
((I130
I72
ttp5
sS'hHints'
p6
((I0
I51
t(I341
I60
t(I671
I59
t(I572
I-20
ttp7
ssS'org.robofab.fontlab.maskData'
p8
((dp9
S'method'
p10
S'beginPath'
p11
s(dp12
S'segmentType'
p13
S'line'
p14
sS'smooth'
p15
I00
sg10
S'addPoint'
p16
sS'pt'
p17
(I350
I700
tp18
s(dp19
g13
S'line'
p20
sg15
I01
sg10
S'addPoint'
p21
sg17
(I350
I168
tp22
s(dp23
g10
S'addPoint'
p24
sg17
(I350
I17
tp25
s(dp26
g10
S'addPoint'
p27
sg17
(I383
I-14
tp28
s(dp29
g13
S'curve'
p30
sg15
I00
sg10
S'addPoint'
p31
sg17
(I383
I-14
tp32
s(dp33
g13
S'line'
p34
sg15
I00
sg10
S'addPoint'
p35
sg17
(I431
I0
tp36
s(dp37
g10
S'addPoint'
p38
sg17
(I431
I0
tp39
s(dp40
g10
S'addPoint'
p41
sg17
(I420
I41
tp42
s(dp43
g13
S'curve'
p44
sg15
I01
sg10
S'addPoint'
p45
sg17
(I420
I168
tp46
s(dp47
g13
S'line'
p48
sg15
I00
sg10
S'addPoint'
p49
sg17
(I420
I700
tp50
s(dp51
g10
S'endPath'
p52
s(dp53
g10
S'beginPath'
p54
s(dp55
g13
S'line'
p56
sg15
I00
sg10
S'addPoint'
p57
sg17
(I282
I512
tp58
s(dp59
g13
S'line'
p60
sg15
I00
sg10
S'addPoint'
p61
sg17
(I521
I512
tp62
s(dp63
g13
S'line'
p64
sg15
I00
sg10
S'addPoint'
p65
sg17
(I521
I572
tp66
s(dp67
g13
S'line'
p68
sg15
I00
sg10
S'addPoint'
p69
sg17
(I282
I572
tp70
s(dp71
g10
S'endPath'
p72
s(dp73
g10
S'beginPath'
p74
s(dp75
g13
S'line'
p76
sg15
I00
sg10
S'addPoint'
p77
sg17
(I529
I52
tp78
s(dp79
g10
S'addPoint'
p80
sg17
(I507
I47
tp81
s(dp82
g10
S'addPoint'
p83
sg17
(I489
I44
tp84
s(dp85
g13
S'curve'
p86
sg15
I01
sg10
S'addPoint'
p87
sg17
(I474
I44
tp88
s(dp89
g10
S'addPoint'
p90
sg17
(I435
I44
tp91
s(dp92
g10
S'addPoint'
p93
sg17
(I420
I66
tp94
s(dp95
g13
S'curve'
p96
sg15
I01
sg10
S'addPoint'
p97
sg17
(I420
I128
tp98
s(dp99
g13
S'line'
p100
sg15
I00
sg10
S'addPoint'
p101
sg17
(I420
I700
tp102
s(dp103
g13
S'line'
p104
sg15
I00
sg10
S'addPoint'
p105
sg17
(I350
I700
tp106
s(dp107
g13
S'line'
p108
sg15
I01
sg10
S'addPoint'
p109
sg17
(I350
I125
tp110
s(dp111
g10
S'addPoint'
p112
sg17
(I350
I55
tp113
s(dp114
g10
S'addPoint'
p115
sg17
(I358
I-14
tp116
s(dp117
g13
S'curve'
p118
sg15
I01
sg10
S'addPoint'
p119
sg17
(I452
I-14
tp120
s(dp121
g10
S'addPoint'
p122
sg17
(I475
I-14
tp123
s(dp124
g10
S'addPoint'
p125
sg17
(I504
I-10
tp126
s(dp127
g13
S'curve'
p128
sg15
I00
sg10
S'addPoint'
p129
sg17
(I540
I0
tp130
s(dp131
g10
S'endPath'
p132
s(dp133
g10
S'beginPath'
p134
s(dp135
g13
S'line'
p136
sg15
I00
sg10
S'addPoint'
p137
sg17
(I470
I289
tp138
s(dp139
g13
S'line'
p140
sg15
I00
sg10
S'addPoint'
p141
sg17
(I470
I473
tp142
s(dp143
g13
S'line'
p144
sg15
I00
sg10
S'addPoint'
p145
sg17
(I414
I473
tp146
s(dp147
g13
S'line'
p148
sg15
I00
sg10
S'addPoint'
p149
sg17
(I414
I289
tp150
s(dp151
g10
S'endPath'
p152
stp153
sS'org.robofab.fontlab.mark'
p154
I144
s."
LayerCount: 2
Fore
SplineSet
70 680 m 257
 130 680 l 257
 130 671 l 257
 130 51 l 257
 70 51 l 257
 70 0 l 257
 282 0 l 257
 282 51 l 257
 202 51 l 257
 202 341 l 257
 470 341 l 257
 470 401 l 257
 202 401 l 257
 202 671 l 257
 464 671 l 257
 464 572 l 257
 520 572 l 257
 520 730 l 257
 70 730 l 257
 70 680 l 257
EndSplineSet
Validated: 9
Position2: "'cpsp' Capital Spacing lookup 0 subtable" dx=5 dy=0 dh=10 dv=0
EndChar

StartChar: G
Encoding: 71 71 41
Width: 672
VWidth: 0
Flags: W
PickledData: "(dp1
S'org.robofab.postScriptHintData'
p2
(dp3
S'replaceTable'
p4
((dp5
S'index'
p6
I1
sS'type'
p7
I1
s(dp8
g6
I1
sg7
I2
s(dp9
g6
I0
sg7
I1
s(dp10
g6
I0
sg7
I2
s(dp11
g6
I2
sg7
I1
s(dp12
g6
I8
sg7
I255
s(dp13
g6
I3
sg7
I1
s(dp14
g6
I0
sg7
I1
s(dp15
g6
I1
sg7
I1
s(dp16
g6
I0
sg7
I2
s(dp17
g6
I1
sg7
I2
s(dp18
g6
I11
sg7
I255
s(dp19
g6
I2
sg7
I1
s(dp20
g6
I1
sg7
I1
s(dp21
g6
I0
sg7
I2
s(dp22
g6
I0
sg7
I1
s(dp23
g6
I1
sg7
I2
s(dp24
g6
I15
sg7
I255
s(dp25
g6
I4
sg7
I1
s(dp26
g6
I1
sg7
I2
s(dp27
g6
I1
sg7
I1
s(dp28
g6
I2
sg7
I1
s(dp29
g6
I0
sg7
I2
stp30
sS'vHints'
p31
((I60
I72
t(I508
I64
ttp32
sS'hHints'
p33
((I-14
I60
t(I315
I50
t(I684
I60
t(I730
I-20
t(I21
I-21
ttp34
ssS'org.robofab.fontlab.maskData'
p35
((dp36
S'method'
p37
S'beginPath'
p38
s(dp39
S'segmentType'
p40
S'line'
p41
sS'smooth'
p42
I00
sg37
S'addPoint'
p43
sS'pt'
p44
(I531
I0
tp45
s(dp46
g40
S'line'
p47
sg42
I00
sg37
S'addPoint'
p48
sg44
(I576
I0
tp49
s(dp50
g40
S'line'
p51
sg42
I00
sg37
S'addPoint'
p52
sg44
(I576
I365
tp53
s(dp54
g40
S'line'
p55
sg42
I00
sg37
S'addPoint'
p56
sg44
(I508
I365
tp57
s(dp58
g40
S'line'
p59
sg42
I00
sg37
S'addPoint'
p60
sg44
(I508
I151
tp61
s(dp62
g37
S'endPath'
p63
s(dp64
g37
S'beginPath'
p65
s(dp66
g40
S'curve'
p67
sg42
I01
sg37
S'addPoint'
p68
sg44
(I327
I-14
tp69
s(dp70
g37
S'addPoint'
p71
sg44
(I507
I-14
tp72
s(dp73
g37
S'addPoint'
p74
sg44
(I542
I74
tp75
s(dp76
g40
S'curve'
p77
sg42
I00
sg37
S'addPoint'
p78
sg44
(I551
I206
tp79
s(dp80
g40
S'line'
p81
sg42
I00
sg37
S'addPoint'
p82
sg44
(I508
I212
tp83
s(dp84
g37
S'addPoint'
p85
sg44
(I505
I120
tp86
s(dp87
g37
S'addPoint'
p88
sg44
(I461
I48
tp89
s(dp90
g40
S'curve'
p91
sg42
I01
sg37
S'addPoint'
p92
sg44
(I327
I48
tp93
s(dp94
g37
S'addPoint'
p95
sg44
(I141
I48
tp96
s(dp97
g37
S'addPoint'
p98
sg44
(I132
I168
tp99
s(dp100
g40
S'curve'
p101
sg42
I01
sg37
S'addPoint'
p102
sg44
(I132
I365
tp103
s(dp104
g37
S'addPoint'
p105
sg44
(I132
I562
tp106
s(dp107
g37
S'addPoint'
p108
sg44
(I152
I682
tp109
s(dp110
g40
S'curve'
p111
sg42
I01
sg37
S'addPoint'
p112
sg44
(I337
I682
tp113
s(dp114
g37
S'addPoint'
p115
sg44
(I471
I682
tp116
s(dp117
g37
S'addPoint'
p118
sg44
(I511
I606
tp119
s(dp120
g40
S'curve'
p121
sg42
I00
sg37
S'addPoint'
p122
sg44
(I518
I514
tp123
s(dp124
g40
S'line'
p125
sg42
I00
sg37
S'addPoint'
p126
sg44
(I544
I514
tp127
s(dp128
g37
S'addPoint'
p129
sg44
(I544
I644
tp130
s(dp131
g37
S'addPoint'
p132
sg44
(I499
I744
tp133
s(dp134
g40
S'curve'
p135
sg42
I01
sg37
S'addPoint'
p136
sg44
(I337
I744
tp137
s(dp138
g37
S'addPoint'
p139
sg44
(I96
I744
tp140
s(dp141
g37
S'addPoint'
p142
sg44
(I60
I602
tp143
s(dp144
g40
S'curve'
p145
sg42
I01
sg37
S'addPoint'
p146
sg44
(I60
I365
tp147
s(dp148
g37
S'addPoint'
p149
sg44
(I60
I130
tp150
s(dp151
g37
S'addPoint'
p152
sg44
(I76
I-14
tp153
s(dp154
g37
S'endPath'
p155
s(dp156
g37
S'beginPath'
p157
s(dp158
g40
S'line'
p159
sg42
I00
sg37
S'addPoint'
p160
sg44
(I513
I730
tp161
s(dp162
g40
S'line'
p163
sg42
I00
sg37
S'addPoint'
p164
sg44
(I518
I514
tp165
s(dp166
g40
S'line'
p167
sg42
I00
sg37
S'addPoint'
p168
sg44
(I569
I514
tp169
s(dp170
g40
S'line'
p171
sg42
I00
sg37
S'addPoint'
p172
sg44
(I569
I730
tp173
s(dp174
g37
S'endPath'
p175
s(dp176
g37
S'beginPath'
p177
s(dp178
g40
S'line'
p179
sg42
I00
sg37
S'addPoint'
p180
sg44
(I424
I309
tp181
s(dp182
g40
S'line'
p183
sg42
I00
sg37
S'addPoint'
p184
sg44
(I616
I309
tp185
s(dp186
g40
S'line'
p187
sg42
I00
sg37
S'addPoint'
p188
sg44
(I616
I365
tp189
s(dp190
g40
S'line'
p191
sg42
I00
sg37
S'addPoint'
p192
sg44
(I424
I365
tp193
s(dp194
g37
S'endPath'
p195
stp196
sS'org.robofab.fontlab.mark'
p197
I144
s."
LayerCount: 2
Fore
SplineSet
394 315 m 257
 508 315 l 257
 508 212 l 257
 505 120 461 46 327 46 c 256
 141 46 132 158 132 365 c 256
 132 562 152 684 337 684 c 256
 471 684 506 606 513 514 c 257
 567 514 l 257
 567 730 l 257
 513 730 l 257
 513 653 l 257
 482 709 427 744 337 744 c 256
 96 744 60 602 60 365 c 256
 60 130 76 -14 327 -14 c 256
 430 -14 487 25 520 84 c 257
 531 0 l 257
 572 0 l 257
 572 365 l 257
 394 365 l 257
 394 315 l 257
EndSplineSet
Validated: 9
Position2: "'cpsp' Capital Spacing lookup 0 subtable" dx=5 dy=0 dh=10 dv=0
EndChar

StartChar: Gbreve
Encoding: 286 286 42
Width: 672
VWidth: 0
Flags: W
PickledData: "(dp1
S'org.robofab.postScriptHintData'
p2
(dp3
S'replaceTable'
p4
((dp5
S'index'
p6
I3
sS'type'
p7
I1
s(dp8
g6
I0
sg7
I1
s(dp9
g6
I1
sg7
I1
s(dp10
g6
I2
sg7
I1
s(dp11
g6
I0
sg7
I2
s(dp12
g6
I1
sg7
I2
s(dp13
g6
I1
sg7
I255
s(dp14
g6
I4
sg7
I1
s(dp15
g6
I0
sg7
I1
s(dp16
g6
I1
sg7
I1
s(dp17
g6
I2
sg7
I1
s(dp18
g6
I0
sg7
I2
s(dp19
g6
I1
sg7
I2
s(dp20
g6
I2
sg7
I255
s(dp21
g6
I3
sg7
I1
s(dp22
g6
I1
sg7
I1
s(dp23
g6
I1
sg7
I2
s(dp24
g6
I5
sg7
I1
s(dp25
g6
I2
sg7
I1
s(dp26
g6
I0
sg7
I2
s(dp27
g6
I11
sg7
I255
s(dp28
g6
I0
sg7
I1
s(dp29
g6
I1
sg7
I1
s(dp30
g6
I0
sg7
I2
s(dp31
g6
I2
sg7
I1
s(dp32
g6
I3
sg7
I1
s(dp33
g6
I1
sg7
I2
s(dp34
g6
I15
sg7
I255
s(dp35
g6
I6
sg7
I1
s(dp36
g6
I0
sg7
I1
s(dp37
g6
I1
sg7
I1
s(dp38
g6
I3
sg7
I1
s(dp39
g6
I0
sg7
I2
s(dp40
g6
I1
sg7
I2
s(dp41
g6
I19
sg7
I255
s(dp42
g6
I2
sg7
I1
s(dp43
g6
I1
sg7
I1
s(dp44
g6
I0
sg7
I2
s(dp45
g6
I0
sg7
I1
s(dp46
g6
I1
sg7
I2
s(dp47
g6
I3
sg7
I1
stp48
sS'vHints'
p49
((I60
I72
t(I508
I64
ttp50
sS'hHints'
p51
((I-14
I60
t(I315
I50
t(I684
I60
t(I802
I135
t(I802
I61
t(I21
I-21
t(I730
I-20
ttp52
ssS'org.robofab.fontlab.mark'
p53
I80
s."
LayerCount: 2
Fore
SplineSet
394 315 m 257
 508 315 l 257
 508 212 l 257
 505 120 461 46 327 46 c 256
 141 46 132 158 132 365 c 256
 132 562 152 684 337 684 c 256
 471 684 506 606 513 514 c 257
 567 514 l 257
 567 730 l 257
 513 730 l 257
 513 653 l 257
 482 709 427 744 337 744 c 256
 96 744 60 602 60 365 c 256
 60 130 76 -14 327 -14 c 256
 430 -14 487 25 520 84 c 257
 531 0 l 257
 572 0 l 257
 572 365 l 257
 394 365 l 257
 394 315 l 257
452 937 m 257
 452 868 439 802 326 802 c 256
 214 802 201 868 201 937 c 257
 256 937 l 257
 256 899 260 863 326 863 c 256
 392 863 396 899 396 937 c 257
 452 937 l 257
EndSplineSet
Validated: 9
Position2: "'cpsp' Capital Spacing lookup 0 subtable" dx=5 dy=0 dh=10 dv=0
EndChar

StartChar: Gcircumflex
Encoding: 284 284 43
Width: 672
VWidth: 0
Flags: W
PickledData: "(dp1
S'org.robofab.postScriptHintData'
p2
(dp3
S'replaceTable'
p4
((dp5
S'index'
p6
I1
sS'type'
p7
I1
s(dp8
g6
I1
sg7
I2
s(dp9
g6
I0
sg7
I1
s(dp10
g6
I0
sg7
I2
s(dp11
g6
I2
sg7
I1
s(dp12
g6
I5
sg7
I1
s(dp13
g6
I8
sg7
I255
s(dp14
g6
I3
sg7
I1
s(dp15
g6
I0
sg7
I1
s(dp16
g6
I1
sg7
I1
s(dp17
g6
I5
sg7
I1
s(dp18
g6
I0
sg7
I2
s(dp19
g6
I1
sg7
I2
s(dp20
g6
I11
sg7
I255
s(dp21
g6
I2
sg7
I1
s(dp22
g6
I1
sg7
I1
s(dp23
g6
I0
sg7
I2
s(dp24
g6
I0
sg7
I1
s(dp25
g6
I5
sg7
I1
s(dp26
g6
I1
sg7
I2
s(dp27
g6
I15
sg7
I255
s(dp28
g6
I4
sg7
I1
s(dp29
g6
I1
sg7
I2
s(dp30
g6
I1
sg7
I1
s(dp31
g6
I5
sg7
I1
s(dp32
g6
I2
sg7
I1
s(dp33
g6
I0
sg7
I2
stp34
sS'vHints'
p35
((I60
I72
t(I508
I64
ttp36
sS'hHints'
p37
((I-14
I60
t(I315
I50
t(I684
I60
t(I730
I-20
t(I21
I-21
t(I979
I-20
ttp38
ssS'org.robofab.fontlab.mark'
p39
I80
s."
LayerCount: 2
Fore
SplineSet
394 315 m 257
 508 315 l 257
 508 212 l 257
 505 120 461 46 327 46 c 256
 141 46 132 158 132 365 c 256
 132 562 152 684 337 684 c 256
 471 684 506 606 513 514 c 257
 567 514 l 257
 567 730 l 257
 513 730 l 257
 513 653 l 257
 482 709 427 744 337 744 c 256
 96 744 60 602 60 365 c 256
 60 130 76 -14 327 -14 c 256
 430 -14 487 25 520 84 c 257
 531 0 l 257
 572 0 l 257
 572 365 l 257
 394 365 l 257
 394 315 l 257
228 782 m 257
 336 892 l 257
 445 782 l 257
 487 824 l 257
 351 979 l 257
 322 979 l 257
 186 824 l 257
 228 782 l 257
EndSplineSet
Validated: 9
Position2: "'cpsp' Capital Spacing lookup 0 subtable" dx=5 dy=0 dh=10 dv=0
EndChar

StartChar: Gdotaccent
Encoding: 288 288 44
Width: 672
VWidth: 0
Flags: W
PickledData: "(dp1
S'org.robofab.postScriptHintData'
p2
(dp3
S'replaceTable'
p4
((dp5
S'index'
p6
I1
sS'type'
p7
I1
s(dp8
g6
I2
sg7
I2
s(dp9
g6
I0
sg7
I1
s(dp10
g6
I0
sg7
I2
s(dp11
g6
I2
sg7
I1
s(dp12
g6
I3
sg7
I1
s(dp13
g6
I1
sg7
I2
s(dp14
g6
I8
sg7
I255
s(dp15
g6
I4
sg7
I1
s(dp16
g6
I0
sg7
I1
s(dp17
g6
I1
sg7
I1
s(dp18
g6
I3
sg7
I1
s(dp19
g6
I0
sg7
I2
s(dp20
g6
I1
sg7
I2
s(dp21
g6
I2
sg7
I2
s(dp22
g6
I11
sg7
I255
s(dp23
g6
I2
sg7
I1
s(dp24
g6
I1
sg7
I1
s(dp25
g6
I0
sg7
I2
s(dp26
g6
I0
sg7
I1
s(dp27
g6
I3
sg7
I1
s(dp28
g6
I1
sg7
I2
s(dp29
g6
I2
sg7
I2
s(dp30
g6
I15
sg7
I255
s(dp31
g6
I5
sg7
I1
s(dp32
g6
I2
sg7
I2
s(dp33
g6
I1
sg7
I1
s(dp34
g6
I3
sg7
I1
s(dp35
g6
I1
sg7
I2
s(dp36
g6
I2
sg7
I1
s(dp37
g6
I0
sg7
I2
stp38
sS'vHints'
p39
((I60
I72
t(I284
I104
t(I508
I64
ttp40
sS'hHints'
p41
((I-14
I60
t(I315
I50
t(I684
I60
t(I818
I131
t(I730
I-20
t(I21
I-21
ttp42
ssS'org.robofab.fontlab.mark'
p43
I80
s."
LayerCount: 2
Fore
SplineSet
394 315 m 257
 508 315 l 257
 508 212 l 257
 505 120 461 46 327 46 c 256
 141 46 132 158 132 365 c 256
 132 562 152 684 337 684 c 256
 471 684 506 606 513 514 c 257
 567 514 l 257
 567 730 l 257
 513 730 l 257
 513 653 l 257
 482 709 427 744 337 744 c 256
 96 744 60 602 60 365 c 256
 60 130 76 -14 327 -14 c 256
 430 -14 487 25 520 84 c 257
 531 0 l 257
 572 0 l 257
 572 365 l 257
 394 365 l 257
 394 315 l 257
335 818 m 256
 385 818 388 853 388 883 c 256
 388 914 385 949 335 949 c 256
 287 949 284 914 284 883 c 256
 284 853 287 818 335 818 c 256
EndSplineSet
Validated: 9
Position2: "'cpsp' Capital Spacing lookup 0 subtable" dx=5 dy=0 dh=10 dv=0
EndChar

StartChar: H
Encoding: 72 72 45
Width: 752
VWidth: 0
Flags: W
PickledData: "(dp1
S'org.robofab.postScriptHintData'
p2
(dp3
S'vHints'
p4
((I130
I72
t(I550
I72
ttp5
sS'hHints'
p6
((I0
I50
t(I335
I60
t(I680
I50
ttp7
ssS'org.robofab.fontlab.mark'
p8
I144
s."
LayerCount: 2
Fore
SplineSet
490 0 m 257
 682 0 l 257
 682 50 l 257
 622 50 l 257
 622 680 l 257
 682 680 l 257
 682 730 l 257
 490 730 l 257
 490 680 l 257
 550 680 l 257
 550 395 l 257
 202 395 l 257
 202 680 l 257
 262 680 l 257
 262 730 l 257
 70 730 l 257
 70 680 l 257
 130 680 l 257
 130 50 l 257
 70 50 l 257
 70 0 l 257
 262 0 l 257
 262 50 l 257
 202 50 l 257
 202 335 l 257
 550 335 l 257
 550 50 l 257
 490 50 l 257
 490 0 l 257
EndSplineSet
Validated: 9
Position2: "'cpsp' Capital Spacing lookup 0 subtable" dx=5 dy=0 dh=10 dv=0
EndChar

StartChar: Hbar
Encoding: 294 294 46
Width: 752
VWidth: 0
Flags: W
PickledData: "(dp1
S'org.robofab.postScriptHintData'
p2
(dp3
S'vHints'
p4
((I130
I72
t(I550
I72
ttp5
sS'hHints'
p6
((I0
I50
t(I335
I60
t(I509
I50
t(I680
I50
ttp7
ssS'org.robofab.fontlab.mark'
p8
I80
s."
LayerCount: 2
Fore
SplineSet
70 680 m 257
 130 680 l 257
 130 559 l 257
 32 559 l 257
 32 509 l 257
 130 509 l 257
 130 50 l 257
 70 50 l 257
 70 0 l 257
 262 0 l 257
 262 50 l 257
 202 50 l 257
 202 335 l 257
 550 335 l 257
 550 50 l 257
 490 50 l 257
 490 0 l 257
 682 0 l 257
 682 50 l 257
 622 50 l 257
 622 509 l 257
 720 509 l 257
 720 559 l 257
 622 559 l 257
 622 680 l 257
 682 680 l 257
 682 730 l 257
 490 730 l 257
 490 680 l 257
 550 680 l 257
 550 559 l 257
 202 559 l 257
 202 680 l 257
 262 680 l 257
 262 730 l 257
 70 730 l 257
 70 680 l 257
202 509 m 257
 550 509 l 257
 550 395 l 257
 202 395 l 257
 202 509 l 257
EndSplineSet
Validated: 9
Position2: "'cpsp' Capital Spacing lookup 0 subtable" dx=5 dy=0 dh=10 dv=0
EndChar

StartChar: Hcircumflex
Encoding: 292 292 47
Width: 752
VWidth: 0
Flags: W
PickledData: "(dp1
S'org.robofab.postScriptHintData'
p2
(dp3
S'vHints'
p4
((I130
I72
t(I550
I72
ttp5
sS'hHints'
p6
((I0
I50
t(I335
I60
t(I680
I50
t(I979
I-20
ttp7
ssS'org.robofab.fontlab.mark'
p8
I80
s."
LayerCount: 2
Fore
SplineSet
490 0 m 257
 682 0 l 257
 682 50 l 257
 622 50 l 257
 622 680 l 257
 682 680 l 257
 682 730 l 257
 490 730 l 257
 490 680 l 257
 550 680 l 257
 550 395 l 257
 202 395 l 257
 202 680 l 257
 262 680 l 257
 262 730 l 257
 70 730 l 257
 70 680 l 257
 130 680 l 257
 130 50 l 257
 70 50 l 257
 70 0 l 257
 262 0 l 257
 262 50 l 257
 202 50 l 257
 202 335 l 257
 550 335 l 257
 550 50 l 257
 490 50 l 257
 490 0 l 257
268 782 m 257
 376 892 l 257
 485 782 l 257
 527 824 l 257
 391 979 l 257
 362 979 l 257
 226 824 l 257
 268 782 l 257
EndSplineSet
Validated: 9
Position2: "'cpsp' Capital Spacing lookup 0 subtable" dx=5 dy=0 dh=10 dv=0
EndChar

StartChar: I
Encoding: 73 73 48
Width: 352
VWidth: 0
Flags: W
PickledData: "(dp1
S'org.robofab.postScriptHintData'
p2
(dp3
S'vHints'
p4
((I140
I72
ttp5
sS'hHints'
p6
((I0
I50
t(I680
I50
ttp7
ssS'org.robofab.fontlab.mark'
p8
I144
s."
LayerCount: 2
Fore
SplineSet
70 680 m 257
 140 680 l 257
 140 50 l 257
 70 50 l 257
 70 0 l 257
 282 0 l 257
 282 50 l 257
 212 50 l 257
 212 680 l 257
 282 680 l 257
 282 730 l 257
 70 730 l 257
 70 680 l 257
EndSplineSet
Validated: 9
Position2: "'cpsp' Capital Spacing lookup 0 subtable" dx=5 dy=0 dh=10 dv=0
EndChar

StartChar: IJ
Encoding: 306 306 49
Width: 823
VWidth: 0
Flags: W
PickledData: "(dp1
S'org.robofab.postScriptHintData'
p2
(dp3
S'replaceTable'
p4
((dp5
S'index'
p6
I2
sS'type'
p7
I1
s(dp8
g6
I2
sg7
I2
s(dp9
g6
I0
sg7
I1
s(dp10
g6
I1
sg7
I2
s(dp11
g6
I0
sg7
I2
s(dp12
g6
I16
sg7
I255
s(dp13
g6
I1
sg7
I1
s(dp14
g6
I0
sg7
I2
s(dp15
g6
I2
sg7
I1
s(dp16
g6
I1
sg7
I2
s(dp17
g6
I2
sg7
I2
stp18
sS'vHints'
p19
((I140
I72
t(I372
I62
t(I646
I72
ttp20
sS'hHints'
p21
((I-14
I60
t(I0
I46
t(I680
I50
ttp22
ssS'org.robofab.fontlab.mark'
p23
I80
s."
LayerCount: 2
Fore
SplineSet
566 680 m 257
 646 680 l 257
 646 183 l 258
 646 80 628 46 542 46 c 256
 456 46 434 83 434 183 c 257
 372 183 l 257
 372 81 377 -14 540 -14 c 256
 703 -14 718 73 718 183 c 258
 718 680 l 257
 778 680 l 257
 778 730 l 257
 566 730 l 257
 566 680 l 257
70 680 m 257
 140 680 l 257
 140 50 l 257
 70 50 l 257
 70 0 l 257
 282 0 l 257
 282 50 l 257
 212 50 l 257
 212 680 l 257
 282 680 l 257
 282 730 l 257
 70 730 l 257
 70 680 l 257
EndSplineSet
Validated: 9
Position2: "'cpsp' Capital Spacing lookup 0 subtable" dx=5 dy=0 dh=10 dv=0
EndChar

StartChar: Iacute
Encoding: 205 205 50
Width: 352
VWidth: 0
Flags: W
PickledData: "(dp1
S'org.robofab.postScriptHintData'
p2
(dp3
S'vHints'
p4
((I140
I72
ttp5
sS'hHints'
p6
((I0
I50
t(I680
I50
t(I985
I-20
ttp7
ssS'org.robofab.fontlab.mark'
p8
I144
s."
LayerCount: 2
Fore
SplineSet
70 680 m 257
 140 680 l 257
 140 50 l 257
 70 50 l 257
 70 0 l 257
 282 0 l 257
 282 50 l 257
 212 50 l 257
 212 680 l 257
 282 680 l 257
 282 730 l 257
 70 730 l 257
 70 680 l 257
131 782 m 257
 303 932 l 257
 250 985 l 257
 89 824 l 257
 131 782 l 257
EndSplineSet
Validated: 9
Position2: "'cpsp' Capital Spacing lookup 0 subtable" dx=5 dy=0 dh=10 dv=0
EndChar

StartChar: Ibreve
Encoding: 300 300 51
Width: 352
VWidth: 0
Flags: W
PickledData: "(dp1
S'org.robofab.postScriptHintData'
p2
(dp3
S'replaceTable'
p4
((dp5
S'index'
p6
I2
sS'type'
p7
I1
s(dp8
g6
I0
sg7
I1
s(dp9
g6
I1
sg7
I1
s(dp10
g6
I0
sg7
I2
s(dp11
g6
I1
sg7
I255
s(dp12
g6
I3
sg7
I1
s(dp13
g6
I0
sg7
I1
s(dp14
g6
I1
sg7
I1
s(dp15
g6
I0
sg7
I2
s(dp16
g6
I2
sg7
I255
s(dp17
g6
I2
sg7
I1
s(dp18
g6
I1
sg7
I1
s(dp19
g6
I0
sg7
I2
s(dp20
g6
I0
sg7
I1
stp21
sS'vHints'
p22
((I140
I72
ttp23
sS'hHints'
p24
((I0
I50
t(I680
I50
t(I802
I135
t(I802
I61
ttp25
ssS'org.robofab.fontlab.mark'
p26
I80
s."
LayerCount: 2
Fore
SplineSet
70 680 m 257
 140 680 l 257
 140 50 l 257
 70 50 l 257
 70 0 l 257
 282 0 l 257
 282 50 l 257
 212 50 l 257
 212 680 l 257
 282 680 l 257
 282 730 l 257
 70 730 l 257
 70 680 l 257
302 937 m 257
 302 868 289 802 176 802 c 256
 64 802 51 868 51 937 c 257
 106 937 l 257
 106 899 110 863 176 863 c 256
 242 863 246 899 246 937 c 257
 302 937 l 257
EndSplineSet
Validated: 9
Position2: "'cpsp' Capital Spacing lookup 0 subtable" dx=5 dy=0 dh=10 dv=0
EndChar

StartChar: Icircumflex
Encoding: 206 206 52
Width: 352
VWidth: 0
Flags: W
PickledData: "(dp1
S'org.robofab.postScriptHintData'
p2
(dp3
S'vHints'
p4
((I140
I72
ttp5
sS'hHints'
p6
((I0
I50
t(I680
I50
t(I979
I-20
ttp7
ssS'org.robofab.fontlab.mark'
p8
I144
s."
LayerCount: 2
Fore
SplineSet
70 680 m 257
 140 680 l 257
 140 50 l 257
 70 50 l 257
 70 0 l 257
 282 0 l 257
 282 50 l 257
 212 50 l 257
 212 680 l 257
 282 680 l 257
 282 730 l 257
 70 730 l 257
 70 680 l 257
68 782 m 257
 176 892 l 257
 285 782 l 257
 327 824 l 257
 191 979 l 257
 162 979 l 257
 26 824 l 257
 68 782 l 257
EndSplineSet
Validated: 9
Position2: "'cpsp' Capital Spacing lookup 0 subtable" dx=5 dy=0 dh=10 dv=0
EndChar

StartChar: Idieresis
Encoding: 207 207 53
Width: 352
VWidth: 0
Flags: W
PickledData: "(dp1
S'org.robofab.postScriptHintData'
p2
(dp3
S'vHints'
p4
((I27
I88
t(I237
I88
ttp5
sS'hHints'
p6
((I0
I50
t(I680
I50
t(I830
I107
ttp7
ssS'org.robofab.fontlab.mark'
p8
I144
s."
LayerCount: 2
Fore
SplineSet
70 680 m 257
 140 680 l 257
 140 50 l 257
 70 50 l 257
 70 0 l 257
 282 0 l 257
 282 50 l 257
 212 50 l 257
 212 680 l 257
 282 680 l 257
 282 730 l 257
 70 730 l 257
 70 680 l 257
280 830 m 256
 239 830 237 858 237 883 c 256
 237 909 239 937 280 937 c 256
 323 937 325 909 325 883 c 256
 325 858 323 830 280 830 c 256
70 830 m 256
 29 830 27 858 27 883 c 256
 27 909 29 937 70 937 c 256
 113 937 115 909 115 883 c 256
 115 858 113 830 70 830 c 256
EndSplineSet
Validated: 9
Position2: "'cpsp' Capital Spacing lookup 0 subtable" dx=5 dy=0 dh=10 dv=0
EndChar

StartChar: Idotaccent
Encoding: 304 304 54
Width: 352
VWidth: 0
Flags: W
PickledData: "(dp1
S'org.robofab.postScriptHintData'
p2
(dp3
S'replaceTable'
p4
((dp5
S'index'
p6
I1
sS'type'
p7
I1
s(dp8
g6
I1
sg7
I2
s(dp9
g6
I0
sg7
I1
s(dp10
g6
I2
sg7
I1
s(dp11
g6
I13
sg7
I255
s(dp12
g6
I0
sg7
I2
s(dp13
g6
I2
sg7
I1
s(dp14
g6
I0
sg7
I1
s(dp15
g6
I1
sg7
I1
stp16
sS'vHints'
p17
((I124
I104
t(I140
I72
ttp18
sS'hHints'
p19
((I0
I50
t(I680
I50
t(I818
I131
ttp20
ssS'org.robofab.fontlab.mark'
p21
I80
s."
LayerCount: 2
Fore
SplineSet
70 680 m 257
 140 680 l 257
 140 50 l 257
 70 50 l 257
 70 0 l 257
 282 0 l 257
 282 50 l 257
 212 50 l 257
 212 680 l 257
 282 680 l 257
 282 730 l 257
 70 730 l 257
 70 680 l 257
175 818 m 256
 225 818 228 853 228 883 c 256
 228 914 225 949 175 949 c 256
 127 949 124 914 124 883 c 256
 124 853 127 818 175 818 c 256
EndSplineSet
Validated: 9
Position2: "'cpsp' Capital Spacing lookup 0 subtable" dx=5 dy=0 dh=10 dv=0
EndChar

StartChar: Igrave
Encoding: 204 204 55
Width: 352
VWidth: 0
Flags: W
PickledData: "(dp1
S'org.robofab.postScriptHintData'
p2
(dp3
S'vHints'
p4
((I140
I72
ttp5
sS'hHints'
p6
((I0
I50
t(I680
I50
t(I985
I-20
ttp7
ssS'org.robofab.fontlab.mark'
p8
I144
s."
LayerCount: 2
Fore
SplineSet
70 680 m 257
 140 680 l 257
 140 50 l 257
 70 50 l 257
 70 0 l 257
 282 0 l 257
 282 50 l 257
 212 50 l 257
 212 680 l 257
 282 680 l 257
 282 730 l 257
 70 730 l 257
 70 680 l 257
241 782 m 257
 69 932 l 257
 122 985 l 257
 283 824 l 257
 241 782 l 257
EndSplineSet
Validated: 9
Position2: "'cpsp' Capital Spacing lookup 0 subtable" dx=5 dy=0 dh=10 dv=0
EndChar

StartChar: Imacron
Encoding: 298 298 56
Width: 352
VWidth: 0
Flags: W
PickledData: "(dp1
S'org.robofab.postScriptHintData'
p2
(dp3
S'vHints'
p4
((I140
I72
ttp5
sS'hHints'
p6
((I0
I50
t(I680
I50
t(I852
I65
ttp7
ssS'org.robofab.fontlab.mark'
p8
I80
s."
LayerCount: 2
Fore
SplineSet
70 680 m 257
 140 680 l 257
 140 50 l 257
 70 50 l 257
 70 0 l 257
 282 0 l 257
 282 50 l 257
 212 50 l 257
 212 680 l 257
 282 680 l 257
 282 730 l 257
 70 730 l 257
 70 680 l 257
49 852 m 257
 303 852 l 257
 303 917 l 257
 49 917 l 257
 49 852 l 257
EndSplineSet
Validated: 9
Position2: "'cpsp' Capital Spacing lookup 0 subtable" dx=5 dy=0 dh=10 dv=0
EndChar

StartChar: Iogonek
Encoding: 302 302 57
Width: 256
VWidth: 0
Flags: W
PickledData: "(dp1
S'org.robofab.postScriptHintData'
p2
(dp3
S'vHints'
p4
((I64
I58
t(I140
I72
ttp5
sS'hHints'
p6
((I-227
I53
t(I0
I50
t(I680
I50
ttp7
ssS'org.robofab.fontlab.mark'
p8
I80
s."
LayerCount: 2
Fore
SplineSet
70 680 m 257
 140 680 l 257
 140 50 l 257
 70 50 l 257
 70 0 l 257
 175 0 l 257
 146 -15 l 258
 83 -47 64 -82 64 -128 c 256
 64 -193 99 -227 167 -227 c 256
 221 -227 271 -191 296 -140 c 257
 254 -112 l 257
 238 -149 205 -174 172 -174 c 256
 139 -174 122 -154 122 -123 c 256
 122 -95 129 -78 174 -51 c 258
 257 0 l 257
 282 0 l 257
 282 50 l 257
 212 50 l 257
 212 680 l 257
 282 680 l 257
 282 730 l 257
 70 730 l 257
 70 680 l 257
EndSplineSet
Validated: 9
Position2: "'cpsp' Capital Spacing lookup 0 subtable" dx=5 dy=0 dh=10 dv=0
EndChar

StartChar: Itilde
Encoding: 296 296 58
Width: 352
VWidth: 0
Flags: W
PickledData: "(dp1
S'org.robofab.postScriptHintData'
p2
(dp3
S'replaceTable'
p4
((dp5
S'index'
p6
I1
sS'type'
p7
I1
s(dp8
g6
I0
sg7
I2
s(dp9
g6
I0
sg7
I1
s(dp10
g6
I2
sg7
I1
s(dp11
g6
I4
sg7
I1
s(dp12
g6
I16
sg7
I255
s(dp13
g6
I3
sg7
I1
s(dp14
g6
I0
sg7
I1
s(dp15
g6
I1
sg7
I1
s(dp16
g6
I0
sg7
I2
s(dp17
g6
I20
sg7
I255
s(dp18
g6
I2
sg7
I1
s(dp19
g6
I0
sg7
I1
s(dp20
g6
I1
sg7
I1
s(dp21
g6
I4
sg7
I1
s(dp22
g6
I0
sg7
I2
stp23
sS'vHints'
p24
((I140
I72
ttp25
sS'hHints'
p26
((I0
I50
t(I680
I50
t(I835
I65
t(I871
I65
t(I944
I-20
ttp27
ssS'org.robofab.fontlab.mark'
p28
I80
s."
LayerCount: 2
Fore
SplineSet
70 680 m 257
 140 680 l 257
 140 50 l 257
 70 50 l 257
 70 0 l 257
 282 0 l 257
 282 50 l 257
 212 50 l 257
 212 680 l 257
 282 680 l 257
 282 730 l 257
 70 730 l 257
 70 680 l 257
249 835 m 256
 287 835 317 858 337 928 c 257
 287 944 l 257
 277 914 266 900 241 900 c 256
 210 900 150 936 103 936 c 256
 65 936 35 913 15 843 c 257
 66 827 l 257
 76 857 87 871 112 871 c 256
 143 871 202 835 249 835 c 256
EndSplineSet
Validated: 9
Position2: "'cpsp' Capital Spacing lookup 0 subtable" dx=5 dy=0 dh=10 dv=0
EndChar

StartChar: J
Encoding: 74 74 59
Width: 471
VWidth: 0
Flags: W
PickledData: "(dp1
S'org.robofab.postScriptHintData'
p2
(dp3
S'vHints'
p4
((I20
I62
t(I294
I72
ttp5
sS'hHints'
p6
((I-14
I60
t(I680
I50
ttp7
ssS'org.robofab.fontlab.mark'
p8
I144
s."
LayerCount: 2
Fore
SplineSet
214 680 m 257
 294 680 l 257
 294 183 l 258
 294 80 276 46 190 46 c 256
 104 46 82 83 82 183 c 257
 20 183 l 257
 20 81 25 -14 188 -14 c 256
 351 -14 366 73 366 183 c 258
 366 680 l 257
 426 680 l 257
 426 730 l 257
 214 730 l 257
 214 680 l 257
EndSplineSet
Validated: 9
Position2: "'cpsp' Capital Spacing lookup 0 subtable" dx=5 dy=0 dh=10 dv=0
EndChar

StartChar: Jcircumflex
Encoding: 308 308 60
Width: 471
VWidth: 0
Flags: W
PickledData: "(dp1
S'org.robofab.postScriptHintData'
p2
(dp3
S'vHints'
p4
((I20
I62
t(I294
I72
ttp5
sS'hHints'
p6
((I-14
I60
t(I680
I50
t(I979
I-20
ttp7
ssS'org.robofab.fontlab.mark'
p8
I80
s."
LayerCount: 2
Fore
SplineSet
214 680 m 257
 294 680 l 257
 294 183 l 258
 294 80 276 46 190 46 c 256
 104 46 82 83 82 183 c 257
 20 183 l 257
 20 81 25 -14 188 -14 c 256
 351 -14 366 73 366 183 c 258
 366 680 l 257
 426 680 l 257
 426 730 l 257
 214 730 l 257
 214 680 l 257
209 782 m 257
 317 892 l 257
 426 782 l 257
 468 824 l 257
 332 979 l 257
 303 979 l 257
 167 824 l 257
 209 782 l 257
EndSplineSet
Validated: 9
Position2: "'cpsp' Capital Spacing lookup 0 subtable" dx=5 dy=0 dh=10 dv=0
EndChar

StartChar: K
Encoding: 75 75 61
Width: 629
VWidth: 0
Flags: W
PickledData: "(dp1
S'org.robofab.postScriptHintData'
p2
(dp3
S'vHints'
p4
((I130
I72
ttp5
sS'hHints'
p6
((I0
I50
t(I680
I50
ttp7
ssS'org.robofab.fontlab.mark'
p8
I144
s."
LayerCount: 2
Fore
SplineSet
427 0 m 257
 609 0 l 257
 609 50 l 257
 556 50 l 257
 342 368 l 257
 545 680 l 257
 599 680 l 257
 599 730 l 257
 417 730 l 257
 417 680 l 257
 470 680 l 257
 289 399 l 257
 202 399 l 257
 202 680 l 257
 262 680 l 257
 262 730 l 257
 70 730 l 257
 70 680 l 257
 130 680 l 257
 130 50 l 257
 70 50 l 257
 70 0 l 257
 262 0 l 257
 262 50 l 257
 202 50 l 257
 202 340 l 257
 285 340 l 257
 478 50 l 257
 427 50 l 257
 427 0 l 257
EndSplineSet
Validated: 9
Position2: "'cpsp' Capital Spacing lookup 0 subtable" dx=5 dy=0 dh=10 dv=0
EndChar

StartChar: L
Encoding: 76 76 62
Width: 507
VWidth: 0
Flags: W
PickledData: "(dp1
S'org.robofab.postScriptHintData'
p2
(dp3
S'vHints'
p4
((I130
I72
ttp5
sS'hHints'
p6
((I0
I59
t(I680
I50
ttp7
ssS'org.robofab.fontlab.mark'
p8
I144
s."
LayerCount: 2
Fore
SplineSet
70 680 m 257
 130 680 l 257
 130 50 l 257
 70 50 l 257
 70 0 l 257
 497 0 l 257
 497 158 l 257
 441 158 l 257
 441 59 l 257
 202 59 l 257
 202 680 l 257
 282 680 l 257
 282 730 l 257
 70 730 l 257
 70 680 l 257
EndSplineSet
Validated: 9
Position2: "'cpsp' Capital Spacing lookup 0 subtable" dx=5 dy=0 dh=10 dv=0
EndChar

StartChar: Lacute
Encoding: 313 313 63
Width: 507
VWidth: 0
Flags: W
PickledData: "(dp1
S'org.robofab.postScriptHintData'
p2
(dp3
S'vHints'
p4
((I130
I72
ttp5
sS'hHints'
p6
((I0
I59
t(I680
I50
t(I985
I-20
ttp7
ssS'org.robofab.fontlab.mark'
p8
I80
s."
LayerCount: 2
Fore
SplineSet
70 680 m 257
 130 680 l 257
 130 50 l 257
 70 50 l 257
 70 0 l 257
 497 0 l 257
 497 158 l 257
 441 158 l 257
 441 59 l 257
 202 59 l 257
 202 680 l 257
 282 680 l 257
 282 730 l 257
 70 730 l 257
 70 680 l 257
122 782 m 257
 294 932 l 257
 241 985 l 257
 80 824 l 257
 122 782 l 257
EndSplineSet
Validated: 9
Position2: "'cpsp' Capital Spacing lookup 0 subtable" dx=5 dy=0 dh=10 dv=0
EndChar

StartChar: Lcaron
Encoding: 317 317 64
Width: 507
VWidth: 0
Flags: W
PickledData: "(dp1
S'org.robofab.postScriptHintData'
p2
(dp3
S'vHints'
p4
((I130
I72
t(I377
I76
ttp5
sS'hHints'
p6
((I0
I59
t(I680
I50
t(I784
I-20
ttp7
ssS'org.robofab.fontlab.mark'
p8
I80
s."
LayerCount: 2
Fore
SplineSet
70 680 m 257
 130 680 l 257
 130 50 l 257
 70 50 l 257
 70 0 l 257
 497 0 l 257
 497 158 l 257
 441 158 l 257
 441 59 l 257
 202 59 l 257
 202 680 l 257
 282 680 l 257
 282 730 l 257
 70 730 l 257
 70 680 l 257
366 737 m 256
 366 707 377 687 377 660 c 256
 377 629 365 611 350 593 c 257
 372 570 l 257
 406 598 453 658 453 732 c 256
 453 757 447 784 409 784 c 256
 372 784 366 757 366 737 c 256
EndSplineSet
Validated: 9
Position2: "'cpsp' Capital Spacing lookup 0 subtable" dx=5 dy=0 dh=10 dv=0
EndChar

StartChar: Ldot
Encoding: 319 319 65
Width: 507
VWidth: 0
Flags: W
PickledData: "(dp1
S'org.robofab.postScriptHintData'
p2
(dp3
S'vHints'
p4
((I130
I72
t(I302
I96
ttp5
sS'hHints'
p6
((I0
I59
t(I307
I117
t(I680
I50
ttp7
ssS'org.robofab.fontlab.mark'
p8
I80
s."
LayerCount: 2
Fore
SplineSet
70 0 m 257
 497 0 l 257
 497 158 l 257
 441 158 l 257
 441 59 l 257
 202 59 l 257
 202 680 l 257
 282 680 l 257
 282 730 l 257
 70 730 l 257
 70 680 l 257
 130 680 l 257
 130 50 l 257
 70 50 l 257
 70 0 l 257
349 307 m 256
 395 307 398 338 398 365 c 256
 398 393 395 424 349 424 c 256
 305 424 302 393 302 365 c 256
 302 338 305 307 349 307 c 256
EndSplineSet
Validated: 9
Position2: "'cpsp' Capital Spacing lookup 0 subtable" dx=5 dy=0 dh=10 dv=0
EndChar

StartChar: Lslash
Encoding: 321 321 66
Width: 507
VWidth: 0
Flags: W
PickledData: "(dp1
S'org.robofab.postScriptHintData'
p2
(dp3
S'vHints'
p4
((I130
I72
ttp5
sS'hHints'
p6
((I0
I59
t(I680
I50
ttp7
ssS'org.robofab.fontlab.mark'
p8
I80
s."
LayerCount: 2
Fore
SplineSet
70 680 m 257
 130 680 l 257
 130 392 l 257
 41 357 l 257
 41 302 l 257
 130 337 l 257
 130 50 l 257
 70 50 l 257
 70 0 l 257
 497 0 l 257
 497 158 l 257
 441 158 l 257
 441 59 l 257
 202 59 l 257
 202 366 l 257
 291 402 l 257
 291 457 l 257
 202 421 l 257
 202 680 l 257
 282 680 l 257
 282 730 l 257
 70 730 l 257
 70 680 l 257
EndSplineSet
Validated: 9
Position2: "'cpsp' Capital Spacing lookup 0 subtable" dx=5 dy=0 dh=10 dv=0
EndChar

StartChar: M
Encoding: 77 77 67
Width: 896
VWidth: 0
Flags: W
PickledData: "(dp1
S'org.robofab.postScriptHintData'
p2
(dp3
S'vHints'
p4
((I130
I72
t(I694
I72
ttp5
sS'hHints'
p6
((I0
I50
t(I680
I50
ttp7
ssS'org.robofab.fontlab.mark'
p8
I144
s."
LayerCount: 2
Fore
SplineSet
634 0 m 257
 826 0 l 257
 826 50 l 257
 766 50 l 257
 766 680 l 257
 826 680 l 257
 826 730 l 257
 667 730 l 257
 441 142 l 257
 229 730 l 257
 70 730 l 257
 70 680 l 257
 130 680 l 257
 130 50 l 257
 70 50 l 257
 70 0 l 257
 262 0 l 257
 262 50 l 257
 202 50 l 257
 202 609 l 257
 404 56 l 257
 476 56 l 257
 694 617 l 257
 694 50 l 257
 634 50 l 257
 634 0 l 257
EndSplineSet
Validated: 9
Position2: "'cpsp' Capital Spacing lookup 0 subtable" dx=5 dy=0 dh=10 dv=0
EndChar

StartChar: N
Encoding: 78 78 68
Width: 770
VWidth: 0
Flags: W
PickledData: "(dp1
S'org.robofab.postScriptHintData'
p2
(dp3
S'vHints'
p4
((I130
I72
t(I578
I72
ttp5
sS'hHints'
p6
((I0
I50
t(I680
I50
ttp7
ssS'org.robofab.fontlab.mark'
p8
I144
s."
LayerCount: 2
Fore
SplineSet
518 680 m 257
 578 680 l 257
 578 119 l 257
 210 730 l 257
 70 730 l 257
 70 680 l 257
 130 680 l 257
 130 50 l 257
 70 50 l 257
 70 0 l 257
 262 0 l 257
 262 50 l 257
 202 50 l 257
 202 610 l 257
 570 0 l 257
 650 0 l 257
 650 680 l 257
 710 680 l 257
 710 730 l 257
 518 730 l 257
 518 680 l 257
EndSplineSet
Validated: 9
Position2: "'cpsp' Capital Spacing lookup 0 subtable" dx=5 dy=0 dh=10 dv=0
EndChar

StartChar: Nacute
Encoding: 323 323 70
Width: 770
VWidth: 0
Flags: W
PickledData: "(dp1
S'org.robofab.postScriptHintData'
p2
(dp3
S'vHints'
p4
((I130
I72
t(I578
I72
ttp5
sS'hHints'
p6
((I0
I50
t(I680
I50
t(I985
I-20
ttp7
ssS'org.robofab.fontlab.mark'
p8
I80
s."
LayerCount: 2
Fore
SplineSet
518 680 m 257
 578 680 l 257
 578 119 l 257
 210 730 l 257
 70 730 l 257
 70 680 l 257
 130 680 l 257
 130 50 l 257
 70 50 l 257
 70 0 l 257
 262 0 l 257
 262 50 l 257
 202 50 l 257
 202 610 l 257
 570 0 l 257
 650 0 l 257
 650 680 l 257
 710 680 l 257
 710 730 l 257
 518 730 l 257
 518 680 l 257
350 782 m 257
 522 932 l 257
 469 985 l 257
 308 824 l 257
 350 782 l 257
EndSplineSet
Validated: 9
Position2: "'cpsp' Capital Spacing lookup 0 subtable" dx=5 dy=0 dh=10 dv=0
EndChar

StartChar: Ncaron
Encoding: 327 327 71
Width: 770
VWidth: 0
Flags: W
PickledData: "(dp1
S'org.robofab.postScriptHintData'
p2
(dp3
S'vHints'
p4
((I130
I72
t(I578
I72
ttp5
sS'hHints'
p6
((I0
I50
t(I680
I50
t(I985
I-20
ttp7
ssS'org.robofab.fontlab.mark'
p8
I80
s."
LayerCount: 2
Fore
SplineSet
518 680 m 257
 578 680 l 257
 578 119 l 257
 210 730 l 257
 70 730 l 257
 70 680 l 257
 130 680 l 257
 130 50 l 257
 70 50 l 257
 70 0 l 257
 262 0 l 257
 262 50 l 257
 202 50 l 257
 202 610 l 257
 570 0 l 257
 650 0 l 257
 650 680 l 257
 710 680 l 257
 710 730 l 257
 518 730 l 257
 518 680 l 257
494 985 m 257
 386 875 l 257
 277 985 l 257
 235 943 l 257
 371 788 l 257
 400 788 l 257
 536 943 l 257
 494 985 l 257
EndSplineSet
Validated: 9
Position2: "'cpsp' Capital Spacing lookup 0 subtable" dx=5 dy=0 dh=10 dv=0
EndChar

StartChar: Ntilde
Encoding: 209 209 72
Width: 770
VWidth: 0
Flags: W
PickledData: "(dp1
S'org.robofab.postScriptHintData'
p2
(dp3
S'replaceTable'
p4
((dp5
S'index'
p6
I1
sS'type'
p7
I1
s(dp8
g6
I1
sg7
I2
s(dp9
g6
I0
sg7
I2
s(dp10
g6
I0
sg7
I1
s(dp11
g6
I2
sg7
I1
s(dp12
g6
I4
sg7
I1
s(dp13
g6
I24
sg7
I255
s(dp14
g6
I3
sg7
I1
s(dp15
g6
I0
sg7
I1
s(dp16
g6
I1
sg7
I1
s(dp17
g6
I0
sg7
I2
s(dp18
g6
I1
sg7
I2
s(dp19
g6
I28
sg7
I255
s(dp20
g6
I2
sg7
I1
s(dp21
g6
I0
sg7
I1
s(dp22
g6
I1
sg7
I1
s(dp23
g6
I4
sg7
I1
s(dp24
g6
I0
sg7
I2
s(dp25
g6
I1
sg7
I2
stp26
sS'vHints'
p27
((I130
I72
t(I578
I72
ttp28
sS'hHints'
p29
((I0
I50
t(I680
I50
t(I835
I65
t(I871
I65
t(I944
I-20
ttp30
ssS'org.robofab.fontlab.mark'
p31
I144
s."
LayerCount: 2
Fore
SplineSet
518 680 m 257
 578 680 l 257
 578 119 l 257
 210 730 l 257
 70 730 l 257
 70 680 l 257
 130 680 l 257
 130 50 l 257
 70 50 l 257
 70 0 l 257
 262 0 l 257
 262 50 l 257
 202 50 l 257
 202 610 l 257
 570 0 l 257
 650 0 l 257
 650 680 l 257
 710 680 l 257
 710 730 l 257
 518 730 l 257
 518 680 l 257
468 835 m 256
 506 835 536 858 556 928 c 257
 506 944 l 257
 496 914 485 900 460 900 c 256
 429 900 369 936 322 936 c 256
 284 936 254 913 234 843 c 257
 285 827 l 257
 295 857 306 871 331 871 c 256
 362 871 421 835 468 835 c 256
EndSplineSet
Validated: 9
Position2: "'cpsp' Capital Spacing lookup 0 subtable" dx=5 dy=0 dh=10 dv=0
EndChar

StartChar: O
Encoding: 79 79 73
Width: 685
VWidth: 0
Flags: W
PickledData: "(dp1
S'org.robofab.postScriptHintData'
p2
(dp3
S'vHints'
p4
((I60
I72
t(I553
I72
ttp5
sS'hHints'
p6
((I-14
I60
t(I684
I60
ttp7
ssS'org.robofab.fontlab.mark'
p8
I144
s."
LayerCount: 2
Fore
SplineSet
342 -14 m 256
 596 -14 625 128 625 365 c 256
 625 600 596 744 342 744 c 256
 87 744 60 600 60 365 c 256
 60 128 87 -14 342 -14 c 256
342 46 m 256
 152 46 132 168 132 365 c 256
 132 562 152 684 342 684 c 256
 531 684 553 562 553 365 c 256
 553 168 531 46 342 46 c 256
EndSplineSet
Validated: 9
Position2: "'cpsp' Capital Spacing lookup 0 subtable" dx=5 dy=0 dh=10 dv=0
EndChar

StartChar: OE
Encoding: 338 338 74
Width: 1013
VWidth: 0
Flags: W
PickledData: "(dp1
S'org.robofab.postScriptHintData'
p2
(dp3
S'vHints'
p4
((I60
I72
t(I543
I72
ttp5
sS'hHints'
p6
((I0
I59
t(I341
I60
t(I671
I59
t(I572
I-20
ttp7
ssS'org.robofab.fontlab.mark'
p8
I80
s."
LayerCount: 2
Fore
SplineSet
933 572 m 257
 933 730 l 257
 337 730 l 258
 87 730 60 591 60 365 c 256
 60 137 87 0 337 0 c 258
 953 0 l 257
 953 158 l 257
 897 158 l 257
 897 59 l 257
 538 59 l 257
 600 116 613 213 615 341 c 257
 883 341 l 257
 883 401 l 257
 615 401 l 257
 613 522 598 615 538 671 c 257
 877 671 l 257
 877 572 l 257
 933 572 l 257
337 671 m 258
 350 671 l 257
 523 665 543 549 543 365 c 256
 543 180 523 64 350 59 c 257
 337 59 l 258
 152 59 132 176 132 365 c 256
 132 554 152 671 337 671 c 258
EndSplineSet
Validated: 9
Position2: "'cpsp' Capital Spacing lookup 0 subtable" dx=5 dy=0 dh=10 dv=0
EndChar

StartChar: Oacute
Encoding: 211 211 75
Width: 685
VWidth: 0
Flags: W
PickledData: "(dp1
S'org.robofab.postScriptHintData'
p2
(dp3
S'vHints'
p4
((I60
I72
t(I553
I72
ttp5
sS'hHints'
p6
((I-14
I60
t(I684
I60
t(I985
I-20
ttp7
ssS'org.robofab.fontlab.mark'
p8
I144
s."
LayerCount: 2
Fore
SplineSet
342 -14 m 256
 596 -14 625 128 625 365 c 256
 625 600 596 744 342 744 c 256
 87 744 60 600 60 365 c 256
 60 128 87 -14 342 -14 c 256
342 46 m 256
 152 46 132 168 132 365 c 256
 132 562 152 684 342 684 c 256
 531 684 553 562 553 365 c 256
 553 168 531 46 342 46 c 256
297 782 m 257
 469 932 l 257
 416 985 l 257
 255 824 l 257
 297 782 l 257
EndSplineSet
Validated: 9
Position2: "'cpsp' Capital Spacing lookup 0 subtable" dx=5 dy=0 dh=10 dv=0
EndChar

StartChar: Obreve
Encoding: 334 334 76
Width: 685
VWidth: 0
Flags: W
PickledData: "(dp1
S'org.robofab.postScriptHintData'
p2
(dp3
S'replaceTable'
p4
((dp5
S'index'
p6
I2
sS'type'
p7
I1
s(dp8
g6
I0
sg7
I1
s(dp9
g6
I1
sg7
I1
s(dp10
g6
I0
sg7
I2
s(dp11
g6
I1
sg7
I2
s(dp12
g6
I1
sg7
I255
s(dp13
g6
I3
sg7
I1
s(dp14
g6
I0
sg7
I1
s(dp15
g6
I1
sg7
I1
s(dp16
g6
I0
sg7
I2
s(dp17
g6
I1
sg7
I2
s(dp18
g6
I2
sg7
I255
s(dp19
g6
I2
sg7
I1
s(dp20
g6
I1
sg7
I2
s(dp21
g6
I0
sg7
I1
s(dp22
g6
I1
sg7
I1
s(dp23
g6
I0
sg7
I2
s(dp24
g6
I7
sg7
I255
s(dp25
g6
I2
sg7
I2
s(dp26
g6
I1
sg7
I1
s(dp27
g6
I0
sg7
I2
s(dp28
g6
I0
sg7
I1
s(dp29
g6
I2
sg7
I1
stp30
sS'vHints'
p31
((I60
I72
t(I468
I157
t(I553
I72
ttp32
sS'hHints'
p33
((I-14
I60
t(I684
I60
t(I802
I135
t(I802
I61
ttp34
ssS'org.robofab.fontlab.mark'
p35
I80
s."
LayerCount: 2
Fore
SplineSet
342 -14 m 256
 596 -14 625 128 625 365 c 256
 625 600 596 744 342 744 c 256
 87 744 60 600 60 365 c 256
 60 128 87 -14 342 -14 c 256
342 46 m 256
 152 46 132 168 132 365 c 256
 132 562 152 684 342 684 c 256
 531 684 553 562 553 365 c 256
 553 168 531 46 342 46 c 256
468 937 m 257
 468 868 455 802 342 802 c 256
 230 802 217 868 217 937 c 257
 272 937 l 257
 272 899 276 863 342 863 c 256
 408 863 412 899 412 937 c 257
 468 937 l 257
EndSplineSet
Validated: 9
Position2: "'cpsp' Capital Spacing lookup 0 subtable" dx=5 dy=0 dh=10 dv=0
EndChar

StartChar: Ocircumflex
Encoding: 212 212 77
Width: 685
VWidth: 0
Flags: W
PickledData: "(dp1
S'org.robofab.postScriptHintData'
p2
(dp3
S'vHints'
p4
((I60
I72
t(I553
I72
ttp5
sS'hHints'
p6
((I-14
I60
t(I684
I60
t(I979
I-20
ttp7
ssS'org.robofab.fontlab.mark'
p8
I144
s."
LayerCount: 2
Fore
SplineSet
342 -14 m 256
 596 -14 625 128 625 365 c 256
 625 600 596 744 342 744 c 256
 87 744 60 600 60 365 c 256
 60 128 87 -14 342 -14 c 256
342 46 m 256
 152 46 132 168 132 365 c 256
 132 562 152 684 342 684 c 256
 531 684 553 562 553 365 c 256
 553 168 531 46 342 46 c 256
234 782 m 257
 342 892 l 257
 451 782 l 257
 493 824 l 257
 357 979 l 257
 328 979 l 257
 192 824 l 257
 234 782 l 257
EndSplineSet
Validated: 9
Position2: "'cpsp' Capital Spacing lookup 0 subtable" dx=5 dy=0 dh=10 dv=0
EndChar

StartChar: Odieresis
Encoding: 214 214 78
Width: 685
VWidth: 0
Flags: W
PickledData: "(dp1
S'org.robofab.postScriptHintData'
p2
(dp3
S'replaceTable'
p4
((dp5
S'index'
p6
I2
sS'type'
p7
I1
s(dp8
g6
I2
sg7
I2
s(dp9
g6
I1
sg7
I2
s(dp10
g6
I4
sg7
I2
s(dp11
g6
I0
sg7
I1
s(dp12
g6
I1
sg7
I1
s(dp13
g6
I11
sg7
I255
s(dp14
g6
I3
sg7
I2
s(dp15
g6
I1
sg7
I1
s(dp16
g6
I0
sg7
I2
s(dp17
g6
I0
sg7
I1
s(dp18
g6
I2
sg7
I1
s(dp19
g6
I1
sg7
I2
stp20
sS'vHints'
p21
((I60
I72
t(I281
I122
t(I491
I134
t(I553
I72
t(I60
I133
ttp22
sS'hHints'
p23
((I-14
I60
t(I684
I60
t(I830
I107
ttp24
ssS'org.robofab.fontlab.mark'
p25
I144
s."
LayerCount: 2
Fore
SplineSet
342 -14 m 256
 596 -14 625 128 625 365 c 256
 625 600 596 744 342 744 c 256
 87 744 60 600 60 365 c 256
 60 128 87 -14 342 -14 c 256
342 46 m 256
 152 46 132 168 132 365 c 256
 132 562 152 684 342 684 c 256
 531 684 553 562 553 365 c 256
 553 168 531 46 342 46 c 256
236 830 m 256
 195 830 193 858 193 883 c 256
 193 909 195 937 236 937 c 256
 279 937 281 909 281 883 c 256
 281 858 279 830 236 830 c 256
446 830 m 256
 405 830 403 858 403 883 c 256
 403 909 405 937 446 937 c 256
 489 937 491 909 491 883 c 256
 491 858 489 830 446 830 c 256
EndSplineSet
Validated: 9
Position2: "'cpsp' Capital Spacing lookup 0 subtable" dx=5 dy=0 dh=10 dv=0
EndChar

StartChar: Ograve
Encoding: 210 210 79
Width: 685
VWidth: 0
Flags: W
PickledData: "(dp1
S'org.robofab.postScriptHintData'
p2
(dp3
S'vHints'
p4
((I60
I72
t(I553
I72
ttp5
sS'hHints'
p6
((I-14
I60
t(I684
I60
t(I985
I-20
ttp7
ssS'org.robofab.fontlab.mark'
p8
I144
s."
LayerCount: 2
Fore
SplineSet
342 -14 m 256
 596 -14 625 128 625 365 c 256
 625 600 596 744 342 744 c 256
 87 744 60 600 60 365 c 256
 60 128 87 -14 342 -14 c 256
342 46 m 256
 152 46 132 168 132 365 c 256
 132 562 152 684 342 684 c 256
 531 684 553 562 553 365 c 256
 553 168 531 46 342 46 c 256
407 782 m 257
 235 932 l 257
 288 985 l 257
 449 824 l 257
 407 782 l 257
EndSplineSet
Validated: 9
Position2: "'cpsp' Capital Spacing lookup 0 subtable" dx=5 dy=0 dh=10 dv=0
EndChar

StartChar: Ohungarumlaut
Encoding: 336 336 80
Width: 685
VWidth: 0
Flags: W
PickledData: "(dp1
S'org.robofab.postScriptHintData'
p2
(dp3
S'vHints'
p4
((I60
I72
t(I553
I72
ttp5
sS'hHints'
p6
((I-14
I60
t(I684
I60
t(I985
I-20
ttp7
ssS'org.robofab.fontlab.mark'
p8
I80
s."
LayerCount: 2
Fore
SplineSet
342 -14 m 256
 596 -14 625 128 625 365 c 256
 625 600 596 744 342 744 c 256
 87 744 60 600 60 365 c 256
 60 128 87 -14 342 -14 c 256
342 46 m 256
 152 46 132 168 132 365 c 256
 132 562 152 684 342 684 c 256
 531 684 553 562 553 365 c 256
 553 168 531 46 342 46 c 256
191 782 m 257
 363 932 l 257
 310 985 l 257
 149 824 l 257
 191 782 l 257
424 782 m 257
 596 932 l 257
 543 985 l 257
 382 824 l 257
 424 782 l 257
EndSplineSet
Validated: 9
Position2: "'cpsp' Capital Spacing lookup 0 subtable" dx=5 dy=0 dh=10 dv=0
EndChar

StartChar: Omacron
Encoding: 332 332 81
Width: 685
VWidth: 0
Flags: W
PickledData: "(dp1
S'org.robofab.postScriptHintData'
p2
(dp3
S'vHints'
p4
((I60
I72
t(I553
I72
ttp5
sS'hHints'
p6
((I-14
I60
t(I684
I60
t(I852
I65
ttp7
ssS'org.robofab.fontlab.mark'
p8
I80
s."
LayerCount: 2
Fore
SplineSet
342 -14 m 256
 596 -14 625 128 625 365 c 256
 625 600 596 744 342 744 c 256
 87 744 60 600 60 365 c 256
 60 128 87 -14 342 -14 c 256
342 46 m 256
 152 46 132 168 132 365 c 256
 132 562 152 684 342 684 c 256
 531 684 553 562 553 365 c 256
 553 168 531 46 342 46 c 256
215 852 m 257
 469 852 l 257
 469 917 l 257
 215 917 l 257
 215 852 l 257
EndSplineSet
Validated: 9
Position2: "'cpsp' Capital Spacing lookup 0 subtable" dx=5 dy=0 dh=10 dv=0
EndChar

StartChar: Omega
Encoding: 8486 8486 82
Width: 746
VWidth: 0
Flags: W
PickledData: "(dp1
S'org.robofab.postScriptHintData'
p2
(dp3
S'vHints'
p4
((I70
I72
t(I218
I61
t(I604
I72
ttp5
sS'hHints'
p6
((I0
I50
t(I625
I59
ttp7
ssS'org.robofab.fontlab.mark'
p8
I80
s."
LayerCount: 2
Fore
SplineSet
373 625 m 256
 550 625 604 533 604 386 c 256
 604 282 572 207 467 182 c 257
 467 0 l 257
 649 0 l 257
 649 50 l 257
 527 50 l 257
 527 144 l 257
 633 186 676 269 676 392 c 256
 676 573 594 684 373 684 c 256
 152 684 70 573 70 392 c 256
 70 269 113 187 218 144 c 257
 218 0 l 257
 279 0 l 257
 279 182 l 257
 174 207 142 282 142 386 c 256
 142 533 196 625 373 625 c 256
97 0 m 257
 218 0 l 257
 218 50 l 257
 97 50 l 257
 97 0 l 257
EndSplineSet
Validated: 5
Position2: "'cpsp' Capital Spacing lookup 0 subtable" dx=5 dy=0 dh=10 dv=0
EndChar

StartChar: Oslash
Encoding: 216 216 83
Width: 685
VWidth: 0
Flags: W
PickledData: "(dp1
S'org.robofab.postScriptHintData'
p2
(dp3
S'vHints'
p4
((I60
I72
t(I553
I72
ttp5
sS'hHints'
p6
((I-14
I60
t(I684
I60
t(I-73
I-21
t(I827
I-20
ttp7
ssS'org.robofab.fontlab.mark'
p8
I144
s."
LayerCount: 2
Fore
SplineSet
209 -94 m 257
 261 -94 l 257
 280 -11 l 257
 299 -13 320 -14 342 -14 c 256
 596 -14 625 128 625 365 c 256
 625 559 605 692 453 731 c 257
 476 827 l 257
 423 827 l 257
 403 740 l 257
 384 742 364 744 342 744 c 256
 87 744 60 600 60 365 c 256
 60 168 78 37 230 -1 c 257
 209 -94 l 257
342 46 m 256
 325 46 309 47 294 49 c 257
 439 668 l 257
 539 630 553 521 553 365 c 256
 553 168 531 46 342 46 c 256
132 365 m 256
 132 562 152 684 342 684 c 256
 359 684 374 683 389 681 c 257
 245 61 l 257
 144 99 132 208 132 365 c 256
EndSplineSet
Validated: 9
Position2: "'cpsp' Capital Spacing lookup 0 subtable" dx=5 dy=0 dh=10 dv=0
EndChar

StartChar: Oslashacute
Encoding: 510 510 84
Width: 685
VWidth: 0
Flags: W
PickledData: "(dp1
S'org.robofab.postScriptHintData'
p2
(dp3
S'vHints'
p4
((I60
I72
t(I553
I72
ttp5
sS'hHints'
p6
((I-14
I60
t(I684
I60
t(I-34
I-21
t(I985
I-20
ttp7
ssS'org.robofab.fontlab.mark'
p8
I80
s."
LayerCount: 2
Fore
SplineSet
209 -55 m 257
 261 -55 l 257
 272 -10 l 257
 293 -13 316 -14 342 -14 c 256
 596 -14 625 128 625 365 c 256
 625 556 605 687 461 729 c 257
 476 786 l 257
 423 786 l 257
 411 739 l 257
 390 742 367 744 342 744 c 256
 87 744 60 600 60 365 c 256
 60 172 78 42 223 0 c 257
 209 -55 l 257
342 46 m 256
 322 46 304 47 288 50 c 257
 445 666 l 257
 540 625 553 518 553 365 c 256
 553 168 531 46 342 46 c 256
132 365 m 256
 132 562 152 684 342 684 c 256
 361 684 379 682 396 680 c 257
 239 63 l 257
 144 104 132 212 132 365 c 256
297 782 m 257
 469 932 l 257
 416 985 l 257
 255 824 l 257
 297 782 l 257
EndSplineSet
Validated: 9
Position2: "'cpsp' Capital Spacing lookup 0 subtable" dx=5 dy=0 dh=10 dv=0
EndChar

StartChar: Otilde
Encoding: 213 213 85
Width: 685
VWidth: 0
Flags: W
PickledData: "(dp1
S'org.robofab.postScriptHintData'
p2
(dp3
S'replaceTable'
p4
((dp5
S'index'
p6
I0
sS'type'
p7
I1
s(dp8
g6
I1
sg7
I2
s(dp9
g6
I1
sg7
I1
s(dp10
g6
I0
sg7
I2
s(dp11
g6
I2
sg7
I1
s(dp12
g6
I4
sg7
I1
s(dp13
g6
I14
sg7
I255
s(dp14
g6
I3
sg7
I1
s(dp15
g6
I0
sg7
I1
s(dp16
g6
I1
sg7
I1
s(dp17
g6
I0
sg7
I2
s(dp18
g6
I1
sg7
I2
s(dp19
g6
I18
sg7
I255
s(dp20
g6
I2
sg7
I1
s(dp21
g6
I0
sg7
I1
s(dp22
g6
I1
sg7
I1
s(dp23
g6
I4
sg7
I1
s(dp24
g6
I0
sg7
I2
s(dp25
g6
I1
sg7
I2
stp26
sS'vHints'
p27
((I60
I72
t(I553
I72
ttp28
sS'hHints'
p29
((I-14
I60
t(I684
I60
t(I835
I65
t(I871
I65
t(I944
I-20
ttp30
ssS'org.robofab.fontlab.mark'
p31
I144
s."
LayerCount: 2
Fore
SplineSet
342 -14 m 256
 596 -14 625 128 625 365 c 256
 625 600 596 744 342 744 c 256
 87 744 60 600 60 365 c 256
 60 128 87 -14 342 -14 c 256
342 46 m 256
 152 46 132 168 132 365 c 256
 132 562 152 684 342 684 c 256
 531 684 553 562 553 365 c 256
 553 168 531 46 342 46 c 256
415 835 m 256
 453 835 483 858 503 928 c 257
 453 944 l 257
 443 914 432 900 407 900 c 256
 376 900 316 936 269 936 c 256
 231 936 201 913 181 843 c 257
 232 827 l 257
 242 857 253 871 278 871 c 256
 309 871 368 835 415 835 c 256
EndSplineSet
Validated: 9
Position2: "'cpsp' Capital Spacing lookup 0 subtable" dx=5 dy=0 dh=10 dv=0
EndChar

StartChar: P
Encoding: 80 80 86
Width: 599
VWidth: 0
Flags: W
PickledData: "(dp1
S'org.robofab.postScriptHintData'
p2
(dp3
S'vHints'
p4
((I130
I72
t(I477
I72
ttp5
sS'hHints'
p6
((I0
I50
t(I275
I59
t(I671
I59
ttp7
ssS'org.robofab.fontlab.maskData'
p8
((dp9
S'method'
p10
S'beginPath'
p11
s(dp12
S'segmentType'
p13
S'line'
p14
sS'smooth'
p15
I00
sg10
S'addPoint'
p16
sS'pt'
p17
(I130
I666
tp18
s(dp19
g13
S'line'
p20
sg15
I00
sg10
S'addPoint'
p21
sg17
(I130
I0
tp22
s(dp23
g13
S'line'
p24
sg15
I00
sg10
S'addPoint'
p25
sg17
(I202
I0
tp26
s(dp27
g13
S'line'
p28
sg15
I00
sg10
S'addPoint'
p29
sg17
(I202
I666
tp30
s(dp31
g10
S'endPath'
p32
s(dp33
g10
S'beginPath'
p34
s(dp35
g13
S'curve'
p36
sg15
I01
sg10
S'addPoint'
p37
sg17
(I549
I494
tp38
s(dp39
g10
S'addPoint'
p40
sg17
(I549
I706
tp41
s(dp42
g10
S'addPoint'
p43
sg17
(I442
I729
tp44
s(dp45
g13
S'curve'
p46
sg15
I01
sg10
S'addPoint'
p47
sg17
(I224
I730
tp48
s(dp49
g13
S'line'
p50
sg15
I00
sg10
S'addPoint'
p51
sg17
(I130
I730
tp52
s(dp53
g13
S'line'
p54
sg15
I00
sg10
S'addPoint'
p55
sg17
(I130
I260
tp56
s(dp57
g13
S'line'
p58
sg15
I01
sg10
S'addPoint'
p59
sg17
(I224
I260
tp60
s(dp61
g10
S'addPoint'
p62
sg17
(I442
I260
tp63
s(dp64
g10
S'addPoint'
p65
sg17
(I549
I281
tp66
s(dp67
g10
S'endPath'
p68
s(dp69
g10
S'beginPath'
p70
s(dp71
g13
S'curve'
p72
sg15
I01
sg10
S'addPoint'
p73
sg17
(I477
I494
tp74
s(dp75
g10
S'addPoint'
p76
sg17
(I477
I337
tp77
s(dp78
g10
S'addPoint'
p79
sg17
(I406
I324
tp80
s(dp81
g13
S'curve'
p82
sg15
I01
sg10
S'addPoint'
p83
sg17
(I224
I324
tp84
s(dp85
g13
S'line'
p86
sg15
I00
sg10
S'addPoint'
p87
sg17
(I202
I324
tp88
s(dp89
g13
S'line'
p90
sg15
I00
sg10
S'addPoint'
p91
sg17
(I202
I666
tp92
s(dp93
g13
S'line'
p94
sg15
I01
sg10
S'addPoint'
p95
sg17
(I224
I666
tp96
s(dp97
g10
S'addPoint'
p98
sg17
(I406
I666
tp99
s(dp100
g10
S'addPoint'
p101
sg17
(I477
I650
tp102
s(dp103
g10
S'endPath'
p104
stp105
sS'org.robofab.fontlab.mark'
p106
I144
s."
LayerCount: 2
Fore
SplineSet
330 275 m 258
 528 275 549 385 549 502 c 256
 549 620 528 730 330 730 c 258
 130 730 l 257
 70 730 l 257
 70 680 l 257
 130 680 l 257
 130 50 l 257
 70 50 l 257
 70 0 l 257
 282 0 l 257
 282 50 l 257
 202 50 l 257
 202 275 l 257
 330 275 l 258
202 334 m 257
 202 671 l 257
 330 671 l 258
 463 671 477 597 477 502 c 256
 477 408 463 334 330 334 c 258
 202 334 l 257
EndSplineSet
Validated: 9
Position2: "'cpsp' Capital Spacing lookup 0 subtable" dx=5 dy=0 dh=10 dv=0
EndChar

StartChar: Q
Encoding: 81 81 87
Width: 675
VWidth: 0
Flags: W
PickledData: "(dp1
S'org.robofab.postScriptHintData'
p2
(dp3
S'vHints'
p4
((I60
I72
t(I543
I72
ttp5
sS'hHints'
p6
((I-13
I59
t(I684
I60
t(I-171
I-21
ttp7
ssS'org.robofab.fontlab.maskData'
p8
((dp9
S'method'
p10
S'beginPath'
p11
s(dp12
S'segmentType'
p13
S'line'
p14
sS'smooth'
p15
I00
sg10
S'addPoint'
p16
sS'pt'
p17
(I289
I13
tp18
s(dp19
g13
S'line'
p20
sg15
I00
sg10
S'addPoint'
p21
sg17
(I388
I-192
tp22
s(dp23
g13
S'line'
p24
sg15
I00
sg10
S'addPoint'
p25
sg17
(I467
I-192
tp26
s(dp27
g13
S'line'
p28
sg15
I00
sg10
S'addPoint'
p29
sg17
(I364
I13
tp30
s(dp31
g10
S'endPath'
p32
s(dp33
g10
S'beginPath'
p34
s(dp35
g13
S'curve'
p36
sg15
I01
sg10
S'addPoint'
p37
sg17
(I337
I-14
tp38
s(dp39
g10
S'addPoint'
p40
sg17
(I587
I-14
tp41
s(dp42
g10
S'addPoint'
p43
sg17
(I615
I128
tp44
s(dp45
g13
S'curve'
p46
sg15
I01
sg10
S'addPoint'
p47
sg17
(I615
I365
tp48
s(dp49
g10
S'addPoint'
p50
sg17
(I615
I600
tp51
s(dp52
g10
S'addPoint'
p53
sg17
(I587
I744
tp54
s(dp55
g13
S'curve'
p56
sg15
I01
sg10
S'addPoint'
p57
sg17
(I337
I744
tp58
s(dp59
g10
S'addPoint'
p60
sg17
(I87
I744
tp61
s(dp62
g10
S'addPoint'
p63
sg17
(I60
I600
tp64
s(dp65
g13
S'curve'
p66
sg15
I01
sg10
S'addPoint'
p67
sg17
(I60
I365
tp68
s(dp69
g10
S'addPoint'
p70
sg17
(I60
I128
tp71
s(dp72
g10
S'addPoint'
p73
sg17
(I87
I-14
tp74
s(dp75
g10
S'endPath'
p76
s(dp77
g10
S'beginPath'
p78
s(dp79
g13
S'curve'
p80
sg15
I01
sg10
S'addPoint'
p81
sg17
(I337
I48
tp82
s(dp83
g10
S'addPoint'
p84
sg17
(I152
I48
tp85
s(dp86
g10
S'addPoint'
p87
sg17
(I132
I168
tp88
s(dp89
g13
S'curve'
p90
sg15
I01
sg10
S'addPoint'
p91
sg17
(I132
I365
tp92
s(dp93
g10
S'addPoint'
p94
sg17
(I132
I562
tp95
s(dp96
g10
S'addPoint'
p97
sg17
(I152
I682
tp98
s(dp99
g13
S'curve'
p100
sg15
I01
sg10
S'addPoint'
p101
sg17
(I337
I682
tp102
s(dp103
g10
S'addPoint'
p104
sg17
(I522
I682
tp105
s(dp106
g10
S'addPoint'
p107
sg17
(I543
I562
tp108
s(dp109
g13
S'curve'
p110
sg15
I01
sg10
S'addPoint'
p111
sg17
(I543
I365
tp112
s(dp113
g10
S'addPoint'
p114
sg17
(I543
I168
tp115
s(dp116
g10
S'addPoint'
p117
sg17
(I522
I48
tp118
s(dp119
g10
S'endPath'
p120
stp121
sS'org.robofab.fontlab.mark'
p122
I144
s."
LayerCount: 2
Fore
SplineSet
402 -192 m 257
 477 -192 l 257
 386 -12 l 257
 590 6 615 144 615 365 c 256
 615 600 587 744 337 744 c 256
 87 744 60 600 60 365 c 256
 60 136 85 -4 312 -13 c 257
 402 -192 l 257
337 46 m 256
 152 46 132 168 132 365 c 256
 132 562 152 684 337 684 c 256
 522 684 543 562 543 365 c 256
 543 168 522 46 337 46 c 256
EndSplineSet
Validated: 9
Position2: "'cpsp' Capital Spacing lookup 0 subtable" dx=5 dy=0 dh=10 dv=0
EndChar

StartChar: R
Encoding: 82 82 88
Width: 659
VWidth: 0
Flags: W
PickledData: "(dp1
S'org.robofab.postScriptHintData'
p2
(dp3
S'vHints'
p4
((I130
I72
t(I487
I72
ttp5
sS'hHints'
p6
((I0
I50
t(I305
I59
t(I671
I59
ttp7
ssS'org.robofab.fontlab.maskData'
p8
((dp9
S'method'
p10
S'beginPath'
p11
s(dp12
S'segmentType'
p13
S'line'
p14
sS'smooth'
p15
I00
sg10
S'addPoint'
p16
sS'pt'
p17
(I437
I0
tp18
s(dp19
g13
S'line'
p20
sg15
I00
sg10
S'addPoint'
p21
sg17
(I619
I0
tp22
s(dp23
g13
S'line'
p24
sg15
I00
sg10
S'addPoint'
p25
sg17
(I619
I56
tp26
s(dp27
g13
S'line'
p28
sg15
I00
sg10
S'addPoint'
p29
sg17
(I437
I56
tp30
s(dp31
g10
S'endPath'
p32
s(dp33
g10
S'beginPath'
p34
s(dp35
g13
S'line'
p36
sg15
I00
sg10
S'addPoint'
p37
sg17
(I437
I0
tp38
s(dp39
g13
S'line'
p40
sg15
I00
sg10
S'addPoint'
p41
sg17
(I619
I0
tp42
s(dp43
g13
S'line'
p44
sg15
I00
sg10
S'addPoint'
p45
sg17
(I619
I56
tp46
s(dp47
g13
S'line'
p48
sg15
I00
sg10
S'addPoint'
p49
sg17
(I437
I56
tp50
s(dp51
g10
S'endPath'
p52
stp53
sS'org.robofab.fontlab.mark'
p54
I144
s."
LayerCount: 2
Fore
SplineSet
281 305 m 258
 347 305 386 295 411 237 c 258
 512 0 l 257
 629 0 l 257
 629 50 l 257
 567 50 l 257
 481 249 l 258
 467 280 452 301 432 315 c 257
 545 343 559 428 559 517 c 256
 559 627 538 730 340 730 c 258
 130 730 l 257
 70 730 l 257
 70 680 l 257
 130 680 l 257
 130 50 l 257
 70 50 l 257
 70 0 l 257
 262 0 l 257
 262 50 l 257
 202 50 l 257
 202 305 l 257
 281 305 l 258
202 364 m 257
 202 671 l 257
 340 671 l 258
 473 671 487 602 487 517 c 256
 487 433 473 364 340 364 c 258
 202 364 l 257
EndSplineSet
Validated: 9
Position2: "'cpsp' Capital Spacing lookup 0 subtable" dx=5 dy=0 dh=10 dv=0
EndChar

StartChar: R.001
Encoding: 65540 -1 89
Width: 659
VWidth: 0
Flags: W
PickledData: "(dp1
S'org.robofab.postScriptHintData'
p2
(dp3
S'vHints'
p4
((I130
I72
t(I487
I72
ttp5
sS'hHints'
p6
((I305
I59
t(I671
I59
t(I21
I-21
ttp7
ssS'org.robofab.fontlab.maskData'
p8
((dp9
S'method'
p10
S'beginPath'
p11
s(dp12
S'segmentType'
p13
S'line'
p14
sS'smooth'
p15
I00
sg10
S'addPoint'
p16
sS'pt'
p17
(I437
I0
tp18
s(dp19
g13
S'line'
p20
sg15
I00
sg10
S'addPoint'
p21
sg17
(I619
I0
tp22
s(dp23
g13
S'line'
p24
sg15
I00
sg10
S'addPoint'
p25
sg17
(I619
I56
tp26
s(dp27
g13
S'line'
p28
sg15
I00
sg10
S'addPoint'
p29
sg17
(I437
I56
tp30
s(dp31
g10
S'endPath'
p32
s(dp33
g10
S'beginPath'
p34
s(dp35
g13
S'line'
p36
sg15
I00
sg10
S'addPoint'
p37
sg17
(I437
I0
tp38
s(dp39
g13
S'line'
p40
sg15
I00
sg10
S'addPoint'
p41
sg17
(I619
I0
tp42
s(dp43
g13
S'line'
p44
sg15
I00
sg10
S'addPoint'
p45
sg17
(I619
I56
tp46
s(dp47
g13
S'line'
p48
sg15
I00
sg10
S'addPoint'
p49
sg17
(I437
I56
tp50
s(dp51
g10
S'endPath'
p52
stp53
sS'org.robofab.fontlab.mark'
p54
I80
s."
LayerCount: 2
Fore
SplineSet
281 305 m 258
 347 305 386 295 411 237 c 258
 512 0 l 257
 589 0 l 257
 481 249 l 258
 467 280 452 301 432 315 c 257
 545 343 559 428 559 517 c 256
 559 627 538 730 340 730 c 258
 130 730 l 257
 130 0 l 257
 202 0 l 257
 202 305 l 257
 281 305 l 258
202 364 m 257
 202 671 l 257
 340 671 l 258
 473 671 487 602 487 517 c 256
 487 433 473 364 340 364 c 258
 202 364 l 257
EndSplineSet
Validated: 9
Position2: "'cpsp' Capital Spacing lookup 0 subtable" dx=5 dy=0 dh=10 dv=0
EndChar

StartChar: Racute
Encoding: 340 340 90
Width: 659
VWidth: 0
Flags: W
PickledData: "(dp1
S'org.robofab.postScriptHintData'
p2
(dp3
S'vHints'
p4
((I130
I72
t(I487
I72
ttp5
sS'hHints'
p6
((I0
I50
t(I305
I59
t(I671
I59
t(I985
I-20
ttp7
ssS'org.robofab.fontlab.mark'
p8
I80
s."
LayerCount: 2
Fore
SplineSet
281 305 m 258
 347 305 386 295 411 237 c 258
 512 0 l 257
 629 0 l 257
 629 50 l 257
 567 50 l 257
 481 249 l 258
 467 280 452 301 432 315 c 257
 545 343 559 428 559 517 c 256
 559 627 538 730 340 730 c 258
 130 730 l 257
 70 730 l 257
 70 680 l 257
 130 680 l 257
 130 50 l 257
 70 50 l 257
 70 0 l 257
 262 0 l 257
 262 50 l 257
 202 50 l 257
 202 305 l 257
 281 305 l 258
202 364 m 257
 202 671 l 257
 340 671 l 258
 473 671 487 602 487 517 c 256
 487 433 473 364 340 364 c 258
 202 364 l 257
274 782 m 257
 446 932 l 257
 393 985 l 257
 232 824 l 257
 274 782 l 257
EndSplineSet
Validated: 9
Position2: "'cpsp' Capital Spacing lookup 0 subtable" dx=5 dy=0 dh=10 dv=0
EndChar

StartChar: Rcaron
Encoding: 344 344 91
Width: 659
VWidth: 0
Flags: W
PickledData: "(dp1
S'org.robofab.postScriptHintData'
p2
(dp3
S'vHints'
p4
((I130
I72
t(I487
I72
ttp5
sS'hHints'
p6
((I0
I50
t(I305
I59
t(I671
I59
t(I985
I-20
ttp7
ssS'org.robofab.fontlab.mark'
p8
I80
s."
LayerCount: 2
Fore
SplineSet
281 305 m 258
 347 305 386 295 411 237 c 258
 512 0 l 257
 629 0 l 257
 629 50 l 257
 567 50 l 257
 481 249 l 258
 467 280 452 301 432 315 c 257
 545 343 559 428 559 517 c 256
 559 627 538 730 340 730 c 258
 130 730 l 257
 70 730 l 257
 70 680 l 257
 130 680 l 257
 130 50 l 257
 70 50 l 257
 70 0 l 257
 262 0 l 257
 262 50 l 257
 202 50 l 257
 202 305 l 257
 281 305 l 258
202 364 m 257
 202 671 l 257
 340 671 l 258
 473 671 487 602 487 517 c 256
 487 433 473 364 340 364 c 258
 202 364 l 257
438 985 m 257
 330 875 l 257
 221 985 l 257
 179 943 l 257
 315 788 l 257
 344 788 l 257
 480 943 l 257
 438 985 l 257
EndSplineSet
Validated: 9
Position2: "'cpsp' Capital Spacing lookup 0 subtable" dx=5 dy=0 dh=10 dv=0
EndChar

StartChar: S
Encoding: 83 83 92
Width: 576
VWidth: 0
Flags: W
PickledData: "(dp1
S'org.robofab.postScriptHintData'
p2
(dp3
S'replaceTable'
p4
((dp5
S'index'
p6
I3
sS'type'
p7
I1
s(dp8
g6
I0
sg7
I2
s(dp9
g6
I1
sg7
I1
s(dp10
g6
I1
sg7
I2
s(dp11
g6
I2
sg7
I255
s(dp12
g6
I0
sg7
I1
s(dp13
g6
I2
sg7
I2
s(dp14
g6
I3
sg7
I2
s(dp15
g6
I1
sg7
I1
s(dp16
g6
I9
sg7
I255
s(dp17
g6
I1
sg7
I2
s(dp18
g6
I2
sg7
I1
s(dp19
g6
I0
sg7
I1
s(dp20
g6
I0
sg7
I2
s(dp21
g6
I13
sg7
I255
s(dp22
g6
I1
sg7
I1
s(dp23
g6
I0
sg7
I2
s(dp24
g6
I1
sg7
I2
s(dp25
g6
I0
sg7
I1
s(dp26
g6
I21
sg7
I255
s(dp27
g6
I3
sg7
I1
s(dp28
g6
I0
sg7
I2
s(dp29
g6
I1
sg7
I1
s(dp30
g6
I1
sg7
I2
stp31
sS'vHints'
p32
((I54
I47
t(I459
I54
t(I459
I72
t(I54
I72
ttp33
sS'hHints'
p34
((I-14
I60
t(I684
I60
t(I730
I-20
t(I21
I-21
ttp35
ssS'org.robofab.fontlab.maskData'
p36
((dp37
S'method'
p38
S'beginPath'
p39
s(dp40
S'segmentType'
p41
S'curve'
p42
sS'smooth'
p43
I01
sg38
S'addPoint'
p44
sS'pt'
p45
(I416
I61
tp46
s(dp47
g38
S'addPoint'
p48
sg45
(I416
I42
tp49
s(dp50
g38
S'addPoint'
p51
sg45
(I431
I27
tp52
s(dp53
g41
S'curve'
p54
sg43
I01
sg38
S'addPoint'
p55
sg45
(I450
I27
tp56
s(dp57
g38
S'addPoint'
p58
sg45
(I469
I27
tp59
s(dp60
g38
S'addPoint'
p61
sg45
(I484
I42
tp62
s(dp63
g41
S'curve'
p64
sg43
I01
sg38
S'addPoint'
p65
sg45
(I484
I61
tp66
s(dp67
g38
S'addPoint'
p68
sg45
(I484
I80
tp69
s(dp70
g38
S'addPoint'
p71
sg45
(I469
I95
tp72
s(dp73
g41
S'curve'
p74
sg43
I01
sg38
S'addPoint'
p75
sg45
(I450
I95
tp76
s(dp77
g38
S'addPoint'
p78
sg45
(I431
I95
tp79
s(dp80
g38
S'addPoint'
p81
sg45
(I416
I80
tp82
s(dp83
g38
S'endPath'
p84
stp85
sS'org.robofab.fontlab.mark'
p86
I144
s."
LayerCount: 2
Fore
SplineSet
101 0 m 257
 101 86 l 257
 137 27 203 -14 302 -14 c 256
 478 -14 531 64 531 192 c 256
 531 319 479 362 335 389 c 258
 246 406 l 258
 145 425 126 454 126 534 c 256
 126 626 153 684 283 684 c 256
 389 684 446 636 459 552 c 257
 513 552 l 257
 513 730 l 257
 459 730 l 257
 459 652 l 257
 423 713 360 744 268 744 c 256
 102 744 54 661 54 533 c 256
 54 406 101 365 243 338 c 258
 333 321 l 258
 426 303 459 277 459 182 c 256
 459 96 420 46 292 46 c 256
 158 46 104 124 101 216 c 257
 47 216 l 257
 47 0 l 257
 101 0 l 257
EndSplineSet
Validated: 9
Position2: "'cpsp' Capital Spacing lookup 0 subtable" dx=5 dy=0 dh=10 dv=0
EndChar

StartChar: Sacute
Encoding: 346 346 93
Width: 576
VWidth: 0
Flags: W
PickledData: "(dp1
S'org.robofab.postScriptHintData'
p2
(dp3
S'replaceTable'
p4
((dp5
S'index'
p6
I3
sS'type'
p7
I1
s(dp8
g6
I0
sg7
I2
s(dp9
g6
I1
sg7
I1
s(dp10
g6
I4
sg7
I1
s(dp11
g6
I1
sg7
I2
s(dp12
g6
I2
sg7
I255
s(dp13
g6
I0
sg7
I1
s(dp14
g6
I2
sg7
I2
s(dp15
g6
I3
sg7
I2
s(dp16
g6
I1
sg7
I1
s(dp17
g6
I4
sg7
I1
s(dp18
g6
I9
sg7
I255
s(dp19
g6
I1
sg7
I2
s(dp20
g6
I2
sg7
I1
s(dp21
g6
I0
sg7
I1
s(dp22
g6
I4
sg7
I1
s(dp23
g6
I0
sg7
I2
s(dp24
g6
I13
sg7
I255
s(dp25
g6
I1
sg7
I1
s(dp26
g6
I0
sg7
I2
s(dp27
g6
I1
sg7
I2
s(dp28
g6
I0
sg7
I1
s(dp29
g6
I4
sg7
I1
s(dp30
g6
I21
sg7
I255
s(dp31
g6
I3
sg7
I1
s(dp32
g6
I0
sg7
I2
s(dp33
g6
I4
sg7
I1
s(dp34
g6
I1
sg7
I1
s(dp35
g6
I1
sg7
I2
stp36
sS'vHints'
p37
((I54
I47
t(I459
I54
t(I459
I72
t(I54
I72
ttp38
sS'hHints'
p39
((I-14
I60
t(I684
I60
t(I730
I-20
t(I21
I-21
t(I985
I-20
ttp40
ssS'org.robofab.fontlab.mark'
p41
I80
s."
LayerCount: 2
Fore
SplineSet
101 0 m 257
 101 86 l 257
 137 27 203 -14 302 -14 c 256
 478 -14 531 64 531 192 c 256
 531 319 479 362 335 389 c 258
 246 406 l 258
 145 425 126 454 126 534 c 256
 126 626 153 684 283 684 c 256
 389 684 446 636 459 552 c 257
 513 552 l 257
 513 730 l 257
 459 730 l 257
 459 652 l 257
 423 713 360 744 268 744 c 256
 102 744 54 661 54 533 c 256
 54 406 101 365 243 338 c 258
 333 321 l 258
 426 303 459 277 459 182 c 256
 459 96 420 46 292 46 c 256
 158 46 104 124 101 216 c 257
 47 216 l 257
 47 0 l 257
 101 0 l 257
253 782 m 257
 425 932 l 257
 372 985 l 257
 211 824 l 257
 253 782 l 257
EndSplineSet
Validated: 9
Position2: "'cpsp' Capital Spacing lookup 0 subtable" dx=5 dy=0 dh=10 dv=0
EndChar

StartChar: Scaron
Encoding: 352 352 94
Width: 618
VWidth: 0
Flags: W
PickledData: "(dp1
S'org.robofab.postScriptHintData'
p2
(dp3
S'replaceTable'
p4
((dp5
S'index'
p6
I4
sS'type'
p7
I1
s(dp8
g6
I0
sg7
I2
s(dp9
g6
I1
sg7
I1
s(dp10
g6
I3
sg7
I1
s(dp11
g6
I1
sg7
I2
s(dp12
g6
I2
sg7
I255
s(dp13
g6
I0
sg7
I1
s(dp14
g6
I2
sg7
I2
s(dp15
g6
I3
sg7
I2
s(dp16
g6
I1
sg7
I1
s(dp17
g6
I3
sg7
I1
s(dp18
g6
I9
sg7
I255
s(dp19
g6
I1
sg7
I2
s(dp20
g6
I2
sg7
I1
s(dp21
g6
I0
sg7
I1
s(dp22
g6
I3
sg7
I1
s(dp23
g6
I0
sg7
I2
s(dp24
g6
I13
sg7
I255
s(dp25
g6
I1
sg7
I1
s(dp26
g6
I0
sg7
I2
s(dp27
g6
I1
sg7
I2
s(dp28
g6
I0
sg7
I1
s(dp29
g6
I3
sg7
I1
s(dp30
g6
I21
sg7
I255
s(dp31
g6
I4
sg7
I1
s(dp32
g6
I0
sg7
I2
s(dp33
g6
I3
sg7
I1
s(dp34
g6
I1
sg7
I1
s(dp35
g6
I1
sg7
I2
stp36
sS'vHints'
p37
((I76
I47
t(I481
I54
t(I481
I72
t(I76
I72
ttp38
sS'hHints'
p39
((I-14
I60
t(I684
I60
t(I730
I-20
t(I985
I-20
t(I21
I-21
ttp40
ssS'org.robofab.fontlab.mark'
p41
I80
s."
LayerCount: 2
Fore
SplineSet
123 0 m 257
 123 86 l 257
 159 27 225 -14 324 -14 c 256
 500 -14 553 64 553 192 c 256
 553 319 501 362 357 389 c 258
 268 406 l 258
 167 425 148 454 148 534 c 256
 148 626 175 684 305 684 c 256
 411 684 468 636 481 552 c 257
 535 552 l 257
 535 730 l 257
 481 730 l 257
 481 652 l 257
 445 713 382 744 290 744 c 256
 124 744 76 661 76 533 c 256
 76 406 123 365 265 338 c 258
 355 321 l 258
 448 303 481 277 481 182 c 256
 481 96 442 46 314 46 c 256
 180 46 126 124 123 216 c 257
 69 216 l 257
 69 0 l 257
 123 0 l 257
417 985 m 257
 309 875 l 257
 200 985 l 257
 158 943 l 257
 294 788 l 257
 323 788 l 257
 459 943 l 257
 417 985 l 257
EndSplineSet
Validated: 9
Position2: "'cpsp' Capital Spacing lookup 0 subtable" dx=5 dy=0 dh=10 dv=0
EndChar

StartChar: Scedilla
Encoding: 350 350 95
Width: 576
VWidth: 0
Flags: W
PickledData: "(dp1
S'org.robofab.postScriptHintData'
p2
(dp3
S'replaceTable'
p4
((dp5
S'index'
p6
I4
sS'type'
p7
I1
s(dp8
g6
I0
sg7
I2
s(dp9
g6
I1
sg7
I2
s(dp10
g6
I0
sg7
I1
s(dp11
g6
I2
sg7
I1
s(dp12
g6
I2
sg7
I2
s(dp13
g6
I12
sg7
I255
s(dp14
g6
I1
sg7
I1
s(dp15
g6
I3
sg7
I2
s(dp16
g6
I4
sg7
I2
s(dp17
g6
I2
sg7
I1
s(dp18
g6
I0
sg7
I1
s(dp19
g6
I1
sg7
I2
s(dp20
g6
I20
sg7
I255
s(dp21
g6
I2
sg7
I2
s(dp22
g6
I3
sg7
I1
s(dp23
g6
I0
sg7
I1
s(dp24
g6
I1
sg7
I1
s(dp25
g6
I0
sg7
I2
s(dp26
g6
I1
sg7
I2
s(dp27
g6
I24
sg7
I255
s(dp28
g6
I2
sg7
I1
s(dp29
g6
I0
sg7
I2
s(dp30
g6
I1
sg7
I2
s(dp31
g6
I2
sg7
I2
s(dp32
g6
I1
sg7
I1
s(dp33
g6
I0
sg7
I1
s(dp34
g6
I32
sg7
I255
s(dp35
g6
I4
sg7
I1
s(dp36
g6
I0
sg7
I2
s(dp37
g6
I0
sg7
I1
s(dp38
g6
I2
sg7
I1
s(dp39
g6
I1
sg7
I2
s(dp40
g6
I2
sg7
I2
stp41
sS'vHints'
p42
((I54
I47
t(I333
I55
t(I459
I54
t(I459
I72
t(I54
I72
ttp43
sS'hHints'
p44
((I-241
I50
t(I-14
I60
t(I684
I60
t(I730
I-20
t(I21
I-21
ttp45
ssS'org.robofab.fontlab.mark'
p46
I80
s."
LayerCount: 2
Fore
SplineSet
101 0 m 257
 101 86 l 257
 130 39 177 3 245 -9 c 257
 232 -86 l 257
 286 -96 l 258
 322 -103 333 -114 333 -146 c 256
 333 -173 330 -191 291 -191 c 256
 252 -191 249 -173 249 -146 c 257
 189 -146 l 257
 189 -204 209 -241 288 -241 c 256
 368 -241 388 -204 388 -145 c 256
 388 -71 348 -56 286 -55 c 257
 293 -14 l 257
 302 -14 l 258
 478 -14 531 64 531 192 c 256
 531 319 479 362 335 389 c 258
 246 406 l 258
 145 425 126 454 126 534 c 256
 126 626 153 684 283 684 c 256
 389 684 446 636 459 552 c 257
 513 552 l 257
 513 730 l 257
 459 730 l 257
 459 652 l 257
 423 713 360 744 268 744 c 256
 102 744 54 661 54 533 c 256
 54 406 101 365 243 338 c 258
 333 321 l 258
 426 303 459 277 459 182 c 256
 459 96 420 46 292 46 c 256
 158 46 104 124 101 216 c 257
 47 216 l 257
 47 0 l 257
 101 0 l 257
EndSplineSet
Validated: 9
Position2: "'cpsp' Capital Spacing lookup 0 subtable" dx=5 dy=0 dh=10 dv=0
EndChar

StartChar: Scircumflex
Encoding: 348 348 96
Width: 576
VWidth: 0
Flags: W
PickledData: "(dp1
S'org.robofab.postScriptHintData'
p2
(dp3
S'replaceTable'
p4
((dp5
S'index'
p6
I3
sS'type'
p7
I1
s(dp8
g6
I0
sg7
I2
s(dp9
g6
I1
sg7
I1
s(dp10
g6
I4
sg7
I1
s(dp11
g6
I1
sg7
I2
s(dp12
g6
I2
sg7
I255
s(dp13
g6
I0
sg7
I1
s(dp14
g6
I2
sg7
I2
s(dp15
g6
I3
sg7
I2
s(dp16
g6
I1
sg7
I1
s(dp17
g6
I4
sg7
I1
s(dp18
g6
I9
sg7
I255
s(dp19
g6
I1
sg7
I2
s(dp20
g6
I2
sg7
I1
s(dp21
g6
I0
sg7
I1
s(dp22
g6
I4
sg7
I1
s(dp23
g6
I0
sg7
I2
s(dp24
g6
I13
sg7
I255
s(dp25
g6
I1
sg7
I1
s(dp26
g6
I0
sg7
I2
s(dp27
g6
I1
sg7
I2
s(dp28
g6
I0
sg7
I1
s(dp29
g6
I4
sg7
I1
s(dp30
g6
I21
sg7
I255
s(dp31
g6
I3
sg7
I1
s(dp32
g6
I0
sg7
I2
s(dp33
g6
I4
sg7
I1
s(dp34
g6
I1
sg7
I1
s(dp35
g6
I1
sg7
I2
stp36
sS'vHints'
p37
((I54
I47
t(I459
I54
t(I459
I72
t(I54
I72
ttp38
sS'hHints'
p39
((I-14
I60
t(I684
I60
t(I730
I-20
t(I21
I-21
t(I979
I-20
ttp40
ssS'org.robofab.fontlab.mark'
p41
I80
s."
LayerCount: 2
Fore
SplineSet
101 0 m 257
 101 86 l 257
 137 27 203 -14 302 -14 c 256
 478 -14 531 64 531 192 c 256
 531 319 479 362 335 389 c 258
 246 406 l 258
 145 425 126 454 126 534 c 256
 126 626 153 684 283 684 c 256
 389 684 446 636 459 552 c 257
 513 552 l 257
 513 730 l 257
 459 730 l 257
 459 652 l 257
 423 713 360 744 268 744 c 256
 102 744 54 661 54 533 c 256
 54 406 101 365 243 338 c 258
 333 321 l 258
 426 303 459 277 459 182 c 256
 459 96 420 46 292 46 c 256
 158 46 104 124 101 216 c 257
 47 216 l 257
 47 0 l 257
 101 0 l 257
190 782 m 257
 298 892 l 257
 407 782 l 257
 449 824 l 257
 313 979 l 257
 284 979 l 257
 148 824 l 257
 190 782 l 257
EndSplineSet
Validated: 9
Position2: "'cpsp' Capital Spacing lookup 0 subtable" dx=5 dy=0 dh=10 dv=0
EndChar

StartChar: T
Encoding: 84 84 97
Width: 538
VWidth: 0
Flags: W
PickledData: "(dp1
S'org.robofab.postScriptHintData'
p2
(dp3
S'replaceTable'
p4
((dp5
S'index'
p6
I1
sS'type'
p7
I1
s(dp8
g6
I0
sg7
I1
s(dp9
g6
I0
sg7
I2
s(dp10
g6
I5
sg7
I255
s(dp11
g6
I2
sg7
I1
s(dp12
g6
I0
sg7
I2
s(dp13
g6
I0
sg7
I1
s(dp14
g6
I15
sg7
I255
s(dp15
g6
I1
sg7
I1
s(dp16
g6
I0
sg7
I1
s(dp17
g6
I0
sg7
I2
stp18
sS'vHints'
p19
((I233
I72
ttp20
sS'hHints'
p21
((I0
I50
t(I572
I158
t(I671
I59
ttp22
ssS'org.robofab.fontlab.mark'
p23
I144
s."
LayerCount: 2
Fore
SplineSet
528 572 m 257
 528 730 l 257
 10 730 l 257
 10 572 l 257
 66 572 l 257
 66 671 l 257
 233 671 l 257
 233 50 l 257
 153 50 l 257
 153 0 l 257
 385 0 l 257
 385 50 l 257
 305 50 l 257
 305 671 l 257
 472 671 l 257
 472 572 l 257
 528 572 l 257
EndSplineSet
Validated: 9
Position2: "'cpsp' Capital Spacing lookup 0 subtable" dx=5 dy=0 dh=10 dv=0
EndChar

StartChar: Tbar
Encoding: 358 358 98
Width: 538
VWidth: 0
Flags: W
PickledData: "(dp1
S'org.robofab.postScriptHintData'
p2
(dp3
S'replaceTable'
p4
((dp5
S'index'
p6
I1
sS'type'
p7
I1
s(dp8
g6
I0
sg7
I2
s(dp9
g6
I3
sg7
I1
s(dp10
g6
I0
sg7
I1
s(dp11
g6
I5
sg7
I255
s(dp12
g6
I2
sg7
I1
s(dp13
g6
I0
sg7
I1
s(dp14
g6
I1
sg7
I1
s(dp15
g6
I0
sg7
I2
s(dp16
g6
I11
sg7
I255
s(dp17
g6
I3
sg7
I1
s(dp18
g6
I0
sg7
I2
s(dp19
g6
I1
sg7
I1
s(dp20
g6
I0
sg7
I1
stp21
sS'vHints'
p22
((I233
I72
ttp23
sS'hHints'
p24
((I0
I50
t(I317
I50
t(I572
I158
t(I671
I59
ttp25
ssS'org.robofab.fontlab.mark'
p26
I80
s."
LayerCount: 2
Fore
SplineSet
460 317 m 257
 460 367 l 257
 305 367 l 257
 305 671 l 257
 472 671 l 257
 472 572 l 257
 528 572 l 257
 528 730 l 257
 10 730 l 257
 10 572 l 257
 66 572 l 257
 66 671 l 257
 233 671 l 257
 233 367 l 257
 78 367 l 257
 78 317 l 257
 233 317 l 257
 233 50 l 257
 153 50 l 257
 153 0 l 257
 385 0 l 257
 385 50 l 257
 305 50 l 257
 305 317 l 257
 460 317 l 257
EndSplineSet
Validated: 9
Position2: "'cpsp' Capital Spacing lookup 0 subtable" dx=5 dy=0 dh=10 dv=0
EndChar

StartChar: Tcaron
Encoding: 356 356 99
Width: 538
VWidth: 0
Flags: W
PickledData: "(dp1
S'org.robofab.postScriptHintData'
p2
(dp3
S'replaceTable'
p4
((dp5
S'index'
p6
I1
sS'type'
p7
I1
s(dp8
g6
I0
sg7
I1
s(dp9
g6
I3
sg7
I1
s(dp10
g6
I0
sg7
I2
s(dp11
g6
I1
sg7
I255
s(dp12
g6
I2
sg7
I1
s(dp13
g6
I0
sg7
I2
s(dp14
g6
I0
sg7
I1
s(dp15
g6
I3
sg7
I1
s(dp16
g6
I11
sg7
I255
s(dp17
g6
I1
sg7
I1
s(dp18
g6
I3
sg7
I1
s(dp19
g6
I0
sg7
I1
s(dp20
g6
I0
sg7
I2
stp21
sS'vHints'
p22
((I233
I72
ttp23
sS'hHints'
p24
((I0
I50
t(I572
I158
t(I671
I59
t(I985
I-20
ttp25
ssS'org.robofab.fontlab.mark'
p26
I80
s."
LayerCount: 2
Fore
SplineSet
66 572 m 257
 66 671 l 257
 233 671 l 257
 233 50 l 257
 153 50 l 257
 153 0 l 257
 385 0 l 257
 385 50 l 257
 305 50 l 257
 305 671 l 257
 472 671 l 257
 472 572 l 257
 528 572 l 257
 528 730 l 257
 10 730 l 257
 10 572 l 257
 66 572 l 257
378 985 m 257
 270 875 l 257
 161 985 l 257
 119 943 l 257
 255 788 l 257
 284 788 l 257
 420 943 l 257
 378 985 l 257
EndSplineSet
Validated: 9
Position2: "'cpsp' Capital Spacing lookup 0 subtable" dx=5 dy=0 dh=10 dv=0
EndChar

StartChar: Thorn
Encoding: 222 222 100
Width: 599
VWidth: 0
Flags: W
PickledData: "(dp1
S'org.robofab.postScriptHintData'
p2
(dp3
S'vHints'
p4
((I130
I72
t(I477
I72
ttp5
sS'hHints'
p6
((I0
I56
t(I137
I64
t(I528
I64
t(I674
I56
ttp7
ssS'org.robofab.fontlab.maskData'
p8
((dp9
S'method'
p10
S'beginPath'
p11
s(dp12
S'segmentType'
p13
S'line'
p14
sS'smooth'
p15
I00
sg10
S'addPoint'
p16
sS'pt'
p17
(I130
I666
tp18
s(dp19
g13
S'line'
p20
sg15
I00
sg10
S'addPoint'
p21
sg17
(I130
I0
tp22
s(dp23
g13
S'line'
p24
sg15
I00
sg10
S'addPoint'
p25
sg17
(I202
I0
tp26
s(dp27
g13
S'line'
p28
sg15
I00
sg10
S'addPoint'
p29
sg17
(I202
I666
tp30
s(dp31
g10
S'endPath'
p32
s(dp33
g10
S'beginPath'
p34
s(dp35
g13
S'curve'
p36
sg15
I01
sg10
S'addPoint'
p37
sg17
(I549
I494
tp38
s(dp39
g10
S'addPoint'
p40
sg17
(I549
I706
tp41
s(dp42
g10
S'addPoint'
p43
sg17
(I442
I729
tp44
s(dp45
g13
S'curve'
p46
sg15
I01
sg10
S'addPoint'
p47
sg17
(I224
I730
tp48
s(dp49
g13
S'line'
p50
sg15
I00
sg10
S'addPoint'
p51
sg17
(I130
I730
tp52
s(dp53
g13
S'line'
p54
sg15
I00
sg10
S'addPoint'
p55
sg17
(I130
I260
tp56
s(dp57
g13
S'line'
p58
sg15
I01
sg10
S'addPoint'
p59
sg17
(I224
I260
tp60
s(dp61
g10
S'addPoint'
p62
sg17
(I442
I260
tp63
s(dp64
g10
S'addPoint'
p65
sg17
(I549
I281
tp66
s(dp67
g10
S'endPath'
p68
s(dp69
g10
S'beginPath'
p70
s(dp71
g13
S'curve'
p72
sg15
I01
sg10
S'addPoint'
p73
sg17
(I477
I494
tp74
s(dp75
g10
S'addPoint'
p76
sg17
(I477
I337
tp77
s(dp78
g10
S'addPoint'
p79
sg17
(I406
I324
tp80
s(dp81
g13
S'curve'
p82
sg15
I01
sg10
S'addPoint'
p83
sg17
(I224
I324
tp84
s(dp85
g13
S'line'
p86
sg15
I00
sg10
S'addPoint'
p87
sg17
(I202
I324
tp88
s(dp89
g13
S'line'
p90
sg15
I00
sg10
S'addPoint'
p91
sg17
(I202
I666
tp92
s(dp93
g13
S'line'
p94
sg15
I01
sg10
S'addPoint'
p95
sg17
(I224
I666
tp96
s(dp97
g10
S'addPoint'
p98
sg17
(I406
I666
tp99
s(dp100
g10
S'addPoint'
p101
sg17
(I477
I650
tp102
s(dp103
g10
S'endPath'
p104
stp105
sS'org.robofab.fontlab.mark'
p106
I144
s."
LayerCount: 2
Fore
SplineSet
330 137 m 258
 528 137 549 247 549 364 c 256
 549 482 528 592 330 592 c 258
 202 592 l 257
 202 674 l 257
 272 674 l 257
 272 730 l 257
 70 730 l 257
 70 674 l 257
 130 674 l 257
 130 56 l 257
 70 56 l 257
 70 0 l 257
 272 0 l 257
 272 56 l 257
 202 56 l 257
 202 137 l 257
 330 137 l 258
202 201 m 257
 202 528 l 257
 330 528 l 258
 463 528 477 449 477 364 c 256
 477 280 463 201 330 201 c 258
 202 201 l 257
EndSplineSet
Validated: 9
Position2: "'cpsp' Capital Spacing lookup 0 subtable" dx=5 dy=0 dh=10 dv=0
EndChar

StartChar: U
Encoding: 85 85 101
Width: 750
VWidth: 0
Flags: W
PickledData: "(dp1
S'org.robofab.postScriptHintData'
p2
(dp3
S'vHints'
p4
((I115
I72
t(I563
I72
ttp5
sS'hHints'
p6
((I-14
I61
t(I680
I50
ttp7
ssS'org.robofab.fontlab.mark'
p8
I144
s."
LayerCount: 2
Fore
SplineSet
55 680 m 257
 115 680 l 257
 115 241 l 258
 115 10 241 -14 374 -14 c 256
 509 -14 635 10 635 241 c 258
 635 680 l 257
 695 680 l 257
 695 730 l 257
 503 730 l 257
 503 680 l 257
 563 680 l 257
 563 241 l 258
 563 68 472 47 374 47 c 256
 278 47 187 68 187 241 c 258
 187 680 l 257
 247 680 l 257
 247 730 l 257
 55 730 l 257
 55 680 l 257
EndSplineSet
Validated: 9
Position2: "'cpsp' Capital Spacing lookup 0 subtable" dx=5 dy=0 dh=10 dv=0
EndChar

StartChar: Uacute
Encoding: 218 218 102
Width: 750
VWidth: 0
Flags: W
PickledData: "(dp1
S'org.robofab.postScriptHintData'
p2
(dp3
S'vHints'
p4
((I115
I72
t(I563
I72
ttp5
sS'hHints'
p6
((I-14
I61
t(I680
I50
t(I985
I-20
ttp7
ssS'org.robofab.fontlab.mark'
p8
I144
s."
LayerCount: 2
Fore
SplineSet
55 680 m 257
 115 680 l 257
 115 241 l 258
 115 10 241 -14 374 -14 c 256
 509 -14 635 10 635 241 c 258
 635 680 l 257
 695 680 l 257
 695 730 l 257
 503 730 l 257
 503 680 l 257
 563 680 l 257
 563 241 l 258
 563 68 472 47 374 47 c 256
 278 47 187 68 187 241 c 258
 187 680 l 257
 247 680 l 257
 247 730 l 257
 55 730 l 257
 55 680 l 257
360 782 m 257
 532 932 l 257
 479 985 l 257
 318 824 l 257
 360 782 l 257
EndSplineSet
Validated: 9
Position2: "'cpsp' Capital Spacing lookup 0 subtable" dx=5 dy=0 dh=10 dv=0
EndChar

StartChar: Ubreve
Encoding: 364 364 103
Width: 750
VWidth: 0
Flags: W
PickledData: "(dp1
S'org.robofab.postScriptHintData'
p2
(dp3
S'replaceTable'
p4
((dp5
S'index'
p6
I2
sS'type'
p7
I1
s(dp8
g6
I0
sg7
I1
s(dp9
g6
I1
sg7
I1
s(dp10
g6
I0
sg7
I2
s(dp11
g6
I1
sg7
I2
s(dp12
g6
I1
sg7
I255
s(dp13
g6
I3
sg7
I1
s(dp14
g6
I0
sg7
I1
s(dp15
g6
I1
sg7
I1
s(dp16
g6
I0
sg7
I2
s(dp17
g6
I1
sg7
I2
s(dp18
g6
I2
sg7
I255
s(dp19
g6
I2
sg7
I1
s(dp20
g6
I1
sg7
I1
s(dp21
g6
I0
sg7
I2
s(dp22
g6
I0
sg7
I1
s(dp23
g6
I1
sg7
I2
stp24
sS'vHints'
p25
((I115
I72
t(I563
I72
ttp26
sS'hHints'
p27
((I-14
I61
t(I680
I50
t(I802
I135
t(I802
I61
ttp28
ssS'org.robofab.fontlab.mark'
p29
I80
s."
LayerCount: 2
Fore
SplineSet
55 680 m 257
 115 680 l 257
 115 241 l 258
 115 10 241 -14 374 -14 c 256
 509 -14 635 10 635 241 c 258
 635 680 l 257
 695 680 l 257
 695 730 l 257
 503 730 l 257
 503 680 l 257
 563 680 l 257
 563 241 l 258
 563 68 472 47 374 47 c 256
 278 47 187 68 187 241 c 258
 187 680 l 257
 247 680 l 257
 247 730 l 257
 55 730 l 257
 55 680 l 257
501 937 m 257
 501 868 488 802 375 802 c 256
 263 802 250 868 250 937 c 257
 305 937 l 257
 305 899 309 863 375 863 c 256
 441 863 445 899 445 937 c 257
 501 937 l 257
EndSplineSet
Validated: 9
Position2: "'cpsp' Capital Spacing lookup 0 subtable" dx=5 dy=0 dh=10 dv=0
EndChar

StartChar: Ucircumflex
Encoding: 219 219 104
Width: 750
VWidth: 0
Flags: W
PickledData: "(dp1
S'org.robofab.postScriptHintData'
p2
(dp3
S'vHints'
p4
((I115
I72
t(I563
I72
ttp5
sS'hHints'
p6
((I-14
I61
t(I680
I50
t(I979
I-20
ttp7
ssS'org.robofab.fontlab.mark'
p8
I144
s."
LayerCount: 2
Fore
SplineSet
55 680 m 257
 115 680 l 257
 115 241 l 258
 115 10 241 -14 374 -14 c 256
 509 -14 635 10 635 241 c 258
 635 680 l 257
 695 680 l 257
 695 730 l 257
 503 730 l 257
 503 680 l 257
 563 680 l 257
 563 241 l 258
 563 68 472 47 374 47 c 256
 278 47 187 68 187 241 c 258
 187 680 l 257
 247 680 l 257
 247 730 l 257
 55 730 l 257
 55 680 l 257
266 782 m 257
 374 892 l 257
 483 782 l 257
 525 824 l 257
 389 979 l 257
 360 979 l 257
 224 824 l 257
 266 782 l 257
EndSplineSet
Validated: 9
Position2: "'cpsp' Capital Spacing lookup 0 subtable" dx=5 dy=0 dh=10 dv=0
EndChar

StartChar: Udieresis
Encoding: 220 220 105
Width: 750
VWidth: 0
Flags: W
PickledData: "(dp1
S'org.robofab.postScriptHintData'
p2
(dp3
S'vHints'
p4
((I115
I72
t(I314
I122
t(I563
I72
ttp5
sS'hHints'
p6
((I-14
I61
t(I680
I50
t(I830
I107
ttp7
ssS'org.robofab.fontlab.mark'
p8
I144
s."
LayerCount: 2
Fore
SplineSet
55 680 m 257
 115 680 l 257
 115 241 l 258
 115 10 241 -14 374 -14 c 256
 509 -14 635 10 635 241 c 258
 635 680 l 257
 695 680 l 257
 695 730 l 257
 503 730 l 257
 503 680 l 257
 563 680 l 257
 563 241 l 258
 563 68 472 47 374 47 c 256
 278 47 187 68 187 241 c 258
 187 680 l 257
 247 680 l 257
 247 730 l 257
 55 730 l 257
 55 680 l 257
479 830 m 256
 438 830 436 858 436 883 c 256
 436 909 438 937 479 937 c 256
 522 937 524 909 524 883 c 256
 524 858 522 830 479 830 c 256
269 830 m 256
 228 830 226 858 226 883 c 256
 226 909 228 937 269 937 c 256
 312 937 314 909 314 883 c 256
 314 858 312 830 269 830 c 256
EndSplineSet
Validated: 9
Position2: "'cpsp' Capital Spacing lookup 0 subtable" dx=5 dy=0 dh=10 dv=0
EndChar

StartChar: Ugrave
Encoding: 217 217 106
Width: 750
VWidth: 0
Flags: W
PickledData: "(dp1
S'org.robofab.postScriptHintData'
p2
(dp3
S'vHints'
p4
((I115
I72
t(I563
I72
ttp5
sS'hHints'
p6
((I-14
I61
t(I680
I50
t(I985
I-20
ttp7
ssS'org.robofab.fontlab.mark'
p8
I144
s."
LayerCount: 2
Fore
SplineSet
55 680 m 257
 115 680 l 257
 115 241 l 258
 115 10 241 -14 374 -14 c 256
 509 -14 635 10 635 241 c 258
 635 680 l 257
 695 680 l 257
 695 730 l 257
 503 730 l 257
 503 680 l 257
 563 680 l 257
 563 241 l 258
 563 68 472 47 374 47 c 256
 278 47 187 68 187 241 c 258
 187 680 l 257
 247 680 l 257
 247 730 l 257
 55 730 l 257
 55 680 l 257
410 782 m 257
 238 932 l 257
 291 985 l 257
 452 824 l 257
 410 782 l 257
EndSplineSet
Validated: 9
Position2: "'cpsp' Capital Spacing lookup 0 subtable" dx=5 dy=0 dh=10 dv=0
EndChar

StartChar: Uhungarumlaut
Encoding: 368 368 107
Width: 750
VWidth: 0
Flags: W
PickledData: "(dp1
S'org.robofab.postScriptHintData'
p2
(dp3
S'vHints'
p4
((I115
I72
t(I563
I72
ttp5
sS'hHints'
p6
((I-14
I61
t(I680
I50
t(I985
I-20
ttp7
ssS'org.robofab.fontlab.mark'
p8
I80
s."
LayerCount: 2
Fore
SplineSet
55 680 m 257
 115 680 l 257
 115 241 l 258
 115 10 241 -14 374 -14 c 256
 509 -14 635 10 635 241 c 258
 635 680 l 257
 695 680 l 257
 695 730 l 257
 503 730 l 257
 503 680 l 257
 563 680 l 257
 563 241 l 258
 563 68 472 47 374 47 c 256
 278 47 187 68 187 241 c 258
 187 680 l 257
 247 680 l 257
 247 730 l 257
 55 730 l 257
 55 680 l 257
467 782 m 257
 639 932 l 257
 586 985 l 257
 425 824 l 257
 467 782 l 257
234 782 m 257
 406 932 l 257
 353 985 l 257
 192 824 l 257
 234 782 l 257
EndSplineSet
Validated: 9
Position2: "'cpsp' Capital Spacing lookup 0 subtable" dx=5 dy=0 dh=10 dv=0
EndChar

StartChar: Umacron
Encoding: 362 362 108
Width: 750
VWidth: 0
Flags: W
PickledData: "(dp1
S'org.robofab.postScriptHintData'
p2
(dp3
S'vHints'
p4
((I115
I72
t(I563
I72
ttp5
sS'hHints'
p6
((I-14
I61
t(I680
I50
t(I852
I65
ttp7
ssS'org.robofab.fontlab.mark'
p8
I80
s."
LayerCount: 2
Fore
SplineSet
55 680 m 257
 115 680 l 257
 115 241 l 258
 115 10 241 -14 374 -14 c 256
 509 -14 635 10 635 241 c 258
 635 680 l 257
 695 680 l 257
 695 730 l 257
 503 730 l 257
 503 680 l 257
 563 680 l 257
 563 241 l 258
 563 68 472 47 374 47 c 256
 278 47 187 68 187 241 c 258
 187 680 l 257
 247 680 l 257
 247 730 l 257
 55 730 l 257
 55 680 l 257
248 852 m 257
 502 852 l 257
 502 917 l 257
 248 917 l 257
 248 852 l 257
EndSplineSet
Validated: 9
Position2: "'cpsp' Capital Spacing lookup 0 subtable" dx=5 dy=0 dh=10 dv=0
EndChar

StartChar: Uogonek
Encoding: 370 370 109
Width: 750
VWidth: 0
Flags: W
PickledData: "(dp1
S'org.robofab.postScriptHintData'
p2
(dp3
S'vHints'
p4
((I115
I72
t(I259
I58
t(I563
I72
ttp5
sS'hHints'
p6
((I-227
I53
t(I-13
I60
t(I680
I50
ttp7
ssS'org.robofab.fontlab.mark'
p8
I80
s."
LayerCount: 2
Fore
SplineSet
55 680 m 257
 115 680 l 257
 115 241 l 258
 115 27 222 -9 344 -13 c 257
 341 -15 l 257
 278 -47 259 -82 259 -128 c 256
 259 -193 294 -227 362 -227 c 256
 416 -227 466 -191 491 -140 c 257
 449 -112 l 257
 433 -149 400 -174 367 -174 c 256
 334 -174 317 -154 317 -123 c 256
 317 -95 324 -78 369 -51 c 258
 432 -12 l 257
 543 -2 635 44 635 241 c 258
 635 680 l 257
 695 680 l 257
 695 730 l 257
 503 730 l 257
 503 680 l 257
 563 680 l 257
 563 241 l 258
 563 68 472 47 374 47 c 256
 278 47 187 68 187 241 c 258
 187 680 l 257
 247 680 l 257
 247 730 l 257
 55 730 l 257
 55 680 l 257
EndSplineSet
Validated: 9
Position2: "'cpsp' Capital Spacing lookup 0 subtable" dx=5 dy=0 dh=10 dv=0
EndChar

StartChar: Uring
Encoding: 366 366 110
Width: 750
VWidth: 0
Flags: W
PickledData: "(dp1
S'org.robofab.postScriptHintData'
p2
(dp3
S'vHints'
p4
((I115
I72
t(I280
I52
t(I418
I52
t(I563
I72
ttp5
sS'hHints'
p6
((I-14
I61
t(I680
I50
t(I786
I43
t(I938
I43
ttp7
ssS'org.robofab.fontlab.mark'
p8
I80
s."
LayerCount: 2
Fore
SplineSet
55 680 m 257
 115 680 l 257
 115 241 l 258
 115 10 241 -14 374 -14 c 256
 509 -14 635 10 635 241 c 258
 635 680 l 257
 695 680 l 257
 695 730 l 257
 503 730 l 257
 503 680 l 257
 563 680 l 257
 563 241 l 258
 563 68 472 47 374 47 c 256
 278 47 187 68 187 241 c 258
 187 680 l 257
 247 680 l 257
 247 730 l 257
 55 730 l 257
 55 680 l 257
374 786 m 256
 465 786 470 837 470 883 c 256
 470 929 465 981 374 981 c 256
 285 981 280 929 280 883 c 256
 280 837 285 786 374 786 c 256
374 829 m 256
 334 829 332 858 332 883 c 256
 332 909 334 938 374 938 c 256
 416 938 418 909 418 883 c 256
 418 858 416 829 374 829 c 256
EndSplineSet
Validated: 9
Position2: "'cpsp' Capital Spacing lookup 0 subtable" dx=5 dy=0 dh=10 dv=0
EndChar

StartChar: Utilde
Encoding: 360 360 111
Width: 750
VWidth: 0
Flags: W
PickledData: "(dp1
S'org.robofab.postScriptHintData'
p2
(dp3
S'replaceTable'
p4
((dp5
S'index'
p6
I1
sS'type'
p7
I1
s(dp8
g6
I0
sg7
I2
s(dp9
g6
I0
sg7
I1
s(dp10
g6
I1
sg7
I2
s(dp11
g6
I2
sg7
I1
s(dp12
g6
I4
sg7
I1
s(dp13
g6
I22
sg7
I255
s(dp14
g6
I3
sg7
I1
s(dp15
g6
I0
sg7
I1
s(dp16
g6
I1
sg7
I1
s(dp17
g6
I0
sg7
I2
s(dp18
g6
I1
sg7
I2
s(dp19
g6
I26
sg7
I255
s(dp20
g6
I2
sg7
I1
s(dp21
g6
I0
sg7
I1
s(dp22
g6
I1
sg7
I1
s(dp23
g6
I4
sg7
I1
s(dp24
g6
I0
sg7
I2
s(dp25
g6
I1
sg7
I2
stp26
sS'vHints'
p27
((I115
I72
t(I563
I72
ttp28
sS'hHints'
p29
((I-14
I61
t(I680
I50
t(I835
I65
t(I871
I65
t(I944
I-20
ttp30
ssS'org.robofab.fontlab.mark'
p31
I80
s."
LayerCount: 2
Fore
SplineSet
55 680 m 257
 115 680 l 257
 115 241 l 258
 115 10 241 -14 374 -14 c 256
 509 -14 635 10 635 241 c 258
 635 680 l 257
 695 680 l 257
 695 730 l 257
 503 730 l 257
 503 680 l 257
 563 680 l 257
 563 241 l 258
 563 68 472 47 374 47 c 256
 278 47 187 68 187 241 c 258
 187 680 l 257
 247 680 l 257
 247 730 l 257
 55 730 l 257
 55 680 l 257
448 835 m 256
 486 835 516 858 536 928 c 257
 486 944 l 257
 476 914 465 900 440 900 c 256
 409 900 349 936 302 936 c 256
 264 936 234 913 214 843 c 257
 265 827 l 257
 275 857 286 871 311 871 c 256
 342 871 401 835 448 835 c 256
EndSplineSet
Validated: 9
Position2: "'cpsp' Capital Spacing lookup 0 subtable" dx=5 dy=0 dh=10 dv=0
EndChar

StartChar: V
Encoding: 86 86 112
Width: 647
VWidth: 0
Flags: W
PickledData: "(dp1
S'org.robofab.postScriptHintData'
p2
(dp3
S'hHints'
p4
((I680
I50
t(I21
I-21
ttp5
ssS'org.robofab.fontlab.mark'
p6
I144
s."
LayerCount: 2
Fore
SplineSet
372 0 m 257
 581 680 l 257
 627 680 l 257
 627 730 l 257
 445 730 l 257
 445 680 l 257
 508 680 l 257
 323 68 l 257
 139 680 l 257
 202 680 l 257
 202 730 l 257
 20 730 l 257
 20 680 l 257
 65 680 l 257
 275 0 l 257
 372 0 l 257
EndSplineSet
Validated: 9
Position2: "'cpsp' Capital Spacing lookup 0 subtable" dx=5 dy=0 dh=10 dv=0
EndChar

StartChar: W
Encoding: 87 87 113
Width: 889
VWidth: 0
Flags: W
PickledData: "(dp1
S'org.robofab.postScriptHintData'
p2
(dp3
S'hHints'
p4
((I680
I50
t(I21
I-21
ttp5
ssS'org.robofab.fontlab.mark'
p6
I144
s."
LayerCount: 2
Fore
SplineSet
315 0 m 257
 444 591 l 257
 574 0 l 257
 679 0 l 257
 832 680 l 257
 874 680 l 257
 874 730 l 257
 692 730 l 257
 692 680 l 257
 759 680 l 257
 624 66 l 257
 480 730 l 257
 409 730 l 257
 264 66 l 257
 130 680 l 257
 197 680 l 257
 197 730 l 257
 15 730 l 257
 15 680 l 257
 56 680 l 257
 210 0 l 257
 315 0 l 257
EndSplineSet
Validated: 9
Position2: "'cpsp' Capital Spacing lookup 0 subtable" dx=5 dy=0 dh=10 dv=0
EndChar

StartChar: Wacute
Encoding: 7810 7810 114
Width: 889
VWidth: 0
Flags: W
PickledData: "(dp1
S'org.robofab.postScriptHintData'
p2
(dp3
S'hHints'
p4
((I680
I50
t(I21
I-21
t(I985
I-20
ttp5
ssS'org.robofab.fontlab.mark'
p6
I80
s."
LayerCount: 2
Fore
SplineSet
315 0 m 257
 444 591 l 257
 574 0 l 257
 679 0 l 257
 832 680 l 257
 874 680 l 257
 874 730 l 257
 692 730 l 257
 692 680 l 257
 759 680 l 257
 624 66 l 257
 480 730 l 257
 409 730 l 257
 264 66 l 257
 130 680 l 257
 197 680 l 257
 197 730 l 257
 15 730 l 257
 15 680 l 257
 56 680 l 257
 210 0 l 257
 315 0 l 257
399 782 m 257
 571 932 l 257
 518 985 l 257
 357 824 l 257
 399 782 l 257
EndSplineSet
Validated: 9
Position2: "'cpsp' Capital Spacing lookup 0 subtable" dx=5 dy=0 dh=10 dv=0
EndChar

StartChar: Wcircumflex
Encoding: 372 372 115
Width: 889
VWidth: 0
Flags: W
PickledData: "(dp1
S'org.robofab.postScriptHintData'
p2
(dp3
S'hHints'
p4
((I680
I50
t(I21
I-21
t(I979
I-20
ttp5
ssS'org.robofab.fontlab.mark'
p6
I80
s."
LayerCount: 2
Fore
SplineSet
315 0 m 257
 444 591 l 257
 574 0 l 257
 679 0 l 257
 832 680 l 257
 874 680 l 257
 874 730 l 257
 692 730 l 257
 692 680 l 257
 759 680 l 257
 624 66 l 257
 480 730 l 257
 409 730 l 257
 264 66 l 257
 130 680 l 257
 197 680 l 257
 197 730 l 257
 15 730 l 257
 15 680 l 257
 56 680 l 257
 210 0 l 257
 315 0 l 257
336 782 m 257
 444 892 l 257
 553 782 l 257
 595 824 l 257
 459 979 l 257
 430 979 l 257
 294 824 l 257
 336 782 l 257
EndSplineSet
Validated: 9
Position2: "'cpsp' Capital Spacing lookup 0 subtable" dx=5 dy=0 dh=10 dv=0
EndChar

StartChar: Wdieresis
Encoding: 7812 7812 116
Width: 889
VWidth: 0
Flags: W
PickledData: "(dp1
S'org.robofab.postScriptHintData'
p2
(dp3
S'vHints'
p4
((I295
I88
t(I505
I88
ttp5
sS'hHints'
p6
((I680
I50
t(I830
I107
t(I21
I-21
ttp7
ssS'org.robofab.fontlab.mark'
p8
I80
s."
LayerCount: 2
Fore
SplineSet
315 0 m 257
 444 591 l 257
 574 0 l 257
 679 0 l 257
 832 680 l 257
 874 680 l 257
 874 730 l 257
 692 730 l 257
 692 680 l 257
 759 680 l 257
 624 66 l 257
 480 730 l 257
 409 730 l 257
 264 66 l 257
 130 680 l 257
 197 680 l 257
 197 730 l 257
 15 730 l 257
 15 680 l 257
 56 680 l 257
 210 0 l 257
 315 0 l 257
548 830 m 256
 507 830 505 858 505 883 c 256
 505 909 507 937 548 937 c 256
 591 937 593 909 593 883 c 256
 593 858 591 830 548 830 c 256
338 830 m 256
 297 830 295 858 295 883 c 256
 295 909 297 937 338 937 c 256
 381 937 383 909 383 883 c 256
 383 858 381 830 338 830 c 256
EndSplineSet
Validated: 9
Position2: "'cpsp' Capital Spacing lookup 0 subtable" dx=5 dy=0 dh=10 dv=0
EndChar

StartChar: Wgrave
Encoding: 7808 7808 117
Width: 889
VWidth: 0
Flags: W
PickledData: "(dp1
S'org.robofab.postScriptHintData'
p2
(dp3
S'hHints'
p4
((I680
I50
t(I985
I-20
t(I21
I-21
ttp5
ssS'org.robofab.fontlab.mark'
p6
I80
s."
LayerCount: 2
Fore
SplineSet
315 0 m 257
 444 591 l 257
 574 0 l 257
 679 0 l 257
 832 680 l 257
 874 680 l 257
 874 730 l 257
 692 730 l 257
 692 680 l 257
 759 680 l 257
 624 66 l 257
 480 730 l 257
 409 730 l 257
 264 66 l 257
 130 680 l 257
 197 680 l 257
 197 730 l 257
 15 730 l 257
 15 680 l 257
 56 680 l 257
 210 0 l 257
 315 0 l 257
509 782 m 257
 337 932 l 257
 390 985 l 257
 551 824 l 257
 509 782 l 257
EndSplineSet
Validated: 9
Position2: "'cpsp' Capital Spacing lookup 0 subtable" dx=5 dy=0 dh=10 dv=0
EndChar

StartChar: X
Encoding: 88 88 118
Width: 631
VWidth: 0
Flags: W
PickledData: "(dp1
S'org.robofab.postScriptHintData'
p2
(dp3
S'hHints'
p4
((I0
I50
t(I680
I50
ttp5
ssS'org.robofab.fontlab.maskData'
p6
((dp7
S'method'
p8
S'beginPath'
p9
s(dp10
S'segmentType'
p11
S'line'
p12
sS'smooth'
p13
I00
sg8
S'addPoint'
p14
sS'pt'
p15
(I481
I702
tp16
s(dp17
g11
S'line'
p18
sg13
I00
sg8
S'addPoint'
p19
sg15
(I308
I417
tp20
s(dp21
g11
S'line'
p22
sg13
I00
sg8
S'addPoint'
p23
sg15
(I350
I362
tp24
s(dp25
g11
S'line'
p26
sg13
I00
sg8
S'addPoint'
p27
sg15
(I562
I702
tp28
s(dp29
g8
S'endPath'
p30
s(dp31
g8
S'beginPath'
p32
s(dp33
g11
S'line'
p34
sg13
I00
sg8
S'addPoint'
p35
sg15
(I69
I701
tp36
s(dp37
g11
S'line'
p38
sg13
I00
sg8
S'addPoint'
p39
sg15
(I499
I25
tp40
s(dp41
g11
S'line'
p42
sg13
I00
sg8
S'addPoint'
p43
sg15
(I582
I25
tp44
s(dp45
g11
S'line'
p46
sg13
I00
sg8
S'addPoint'
p47
sg15
(I152
I701
tp48
s(dp49
g8
S'endPath'
p50
s(dp51
g8
S'beginPath'
p52
s(dp53
g11
S'line'
p54
sg13
I00
sg8
S'addPoint'
p55
sg15
(I131
I25
tp56
s(dp57
g11
S'line'
p58
sg13
I00
sg8
S'addPoint'
p59
sg15
(I325
I346
tp60
s(dp61
g11
S'line'
p62
sg13
I00
sg8
S'addPoint'
p63
sg15
(I284
I401
tp64
s(dp65
g11
S'line'
p66
sg13
I00
sg8
S'addPoint'
p67
sg15
(I50
I25
tp68
s(dp69
g8
S'endPath'
p70
s(dp71
g8
S'beginPath'
p72
s(dp73
g11
S'line'
p74
sg13
I00
sg8
S'addPoint'
p75
sg15
(I434
I0
tp76
s(dp77
g11
S'line'
p78
sg13
I00
sg8
S'addPoint'
p79
sg15
(I616
I0
tp80
s(dp81
g11
S'line'
p82
sg13
I00
sg8
S'addPoint'
p83
sg15
(I616
I50
tp84
s(dp85
g11
S'line'
p86
sg13
I00
sg8
S'addPoint'
p87
sg15
(I434
I50
tp88
s(dp89
g8
S'endPath'
p90
s(dp91
g8
S'beginPath'
p92
s(dp93
g11
S'line'
p94
sg13
I00
sg8
S'addPoint'
p95
sg15
(I15
I0
tp96
s(dp97
g11
S'line'
p98
sg13
I00
sg8
S'addPoint'
p99
sg15
(I197
I0
tp100
s(dp101
g11
S'line'
p102
sg13
I00
sg8
S'addPoint'
p103
sg15
(I197
I50
tp104
s(dp105
g11
S'line'
p106
sg13
I00
sg8
S'addPoint'
p107
sg15
(I15
I50
tp108
s(dp109
g8
S'endPath'
p110
s(dp111
g8
S'beginPath'
p112
s(dp113
g11
S'line'
p114
sg13
I00
sg8
S'addPoint'
p115
sg15
(I32
I680
tp116
s(dp117
g11
S'line'
p118
sg13
I00
sg8
S'addPoint'
p119
sg15
(I214
I680
tp120
s(dp121
g11
S'line'
p122
sg13
I00
sg8
S'addPoint'
p123
sg15
(I214
I730
tp124
s(dp125
g11
S'line'
p126
sg13
I00
sg8
S'addPoint'
p127
sg15
(I32
I730
tp128
s(dp129
g8
S'endPath'
p130
s(dp131
g8
S'beginPath'
p132
s(dp133
g11
S'line'
p134
sg13
I00
sg8
S'addPoint'
p135
sg15
(I417
I680
tp136
s(dp137
g11
S'line'
p138
sg13
I00
sg8
S'addPoint'
p139
sg15
(I599
I680
tp140
s(dp141
g11
S'line'
p142
sg13
I00
sg8
S'addPoint'
p143
sg15
(I599
I730
tp144
s(dp145
g11
S'line'
p146
sg13
I00
sg8
S'addPoint'
p147
sg15
(I417
I730
tp148
s(dp149
g8
S'endPath'
p150
stp151
sS'org.robofab.fontlab.mark'
p152
I144
s."
LayerCount: 2
Fore
SplineSet
417 680 m 257
 467 680 l 257
 320 436 l 257
 164 680 l 257
 214 680 l 257
 214 730 l 257
 32 730 l 257
 32 680 l 257
 82 680 l 257
 272 382 l 257
 65 50 l 257
 15 50 l 257
 15 0 l 257
 197 0 l 257
 197 50 l 257
 146 50 l 257
 310 322 l 257
 484 50 l 257
 434 50 l 257
 434 0 l 257
 616 0 l 257
 616 50 l 257
 566 50 l 257
 358 376 l 257
 548 680 l 257
 599 680 l 257
 599 730 l 257
 417 730 l 257
 417 680 l 257
EndSplineSet
Validated: 9
Position2: "'cpsp' Capital Spacing lookup 0 subtable" dx=5 dy=0 dh=10 dv=0
EndChar

StartChar: Y
Encoding: 89 89 119
Width: 582
VWidth: 0
Flags: W
PickledData: "(dp1
S'org.robofab.postScriptHintData'
p2
(dp3
S'vHints'
p4
((I255
I72
ttp5
sS'hHints'
p6
((I0
I50
t(I680
I50
ttp7
ssS'org.robofab.fontlab.maskData'
p8
((dp9
S'method'
p10
S'beginPath'
p11
s(dp12
S'segmentType'
p13
S'line'
p14
sS'smooth'
p15
I00
sg10
S'addPoint'
p16
sS'pt'
p17
(I122
I730
tp18
s(dp19
g13
S'line'
p20
sg15
I00
sg10
S'addPoint'
p21
sg17
(I50
I730
tp22
s(dp23
g10
S'endPath'
p24
stp25
sS'org.robofab.fontlab.mark'
p26
I144
s."
LayerCount: 2
Fore
SplineSet
185 0 m 257
 397 0 l 257
 397 50 l 257
 327 50 l 257
 327 255 l 257
 528 680 l 257
 572 680 l 257
 572 730 l 257
 400 730 l 257
 400 680 l 257
 455 680 l 257
 291 326 l 257
 127 680 l 257
 182 680 l 257
 182 730 l 257
 10 730 l 257
 10 680 l 257
 53 680 l 257
 255 255 l 257
 255 50 l 257
 185 50 l 257
 185 0 l 257
EndSplineSet
Validated: 9
Position2: "'cpsp' Capital Spacing lookup 0 subtable" dx=5 dy=0 dh=10 dv=0
EndChar

StartChar: Yacute
Encoding: 221 221 120
Width: 582
VWidth: 0
Flags: W
PickledData: "(dp1
S'org.robofab.postScriptHintData'
p2
(dp3
S'vHints'
p4
((I255
I72
ttp5
sS'hHints'
p6
((I0
I50
t(I680
I50
t(I985
I-20
ttp7
ssS'org.robofab.fontlab.mark'
p8
I144
s."
LayerCount: 2
Fore
SplineSet
327 255 m 257
 528 680 l 257
 572 680 l 257
 572 730 l 257
 400 730 l 257
 400 680 l 257
 455 680 l 257
 291 326 l 257
 127 680 l 257
 182 680 l 257
 182 730 l 257
 10 730 l 257
 10 680 l 257
 53 680 l 257
 255 255 l 257
 255 50 l 257
 185 50 l 257
 185 0 l 257
 397 0 l 257
 397 50 l 257
 327 50 l 257
 327 255 l 257
226 782 m 257
 398 932 l 257
 345 985 l 257
 184 824 l 257
 226 782 l 257
EndSplineSet
Validated: 9
Position2: "'cpsp' Capital Spacing lookup 0 subtable" dx=5 dy=0 dh=10 dv=0
EndChar

StartChar: Ycircumflex
Encoding: 374 374 121
Width: 582
VWidth: 0
Flags: W
PickledData: "(dp1
S'org.robofab.postScriptHintData'
p2
(dp3
S'vHints'
p4
((I255
I72
ttp5
sS'hHints'
p6
((I0
I50
t(I680
I50
t(I979
I-20
ttp7
ssS'org.robofab.fontlab.mark'
p8
I80
s."
LayerCount: 2
Fore
SplineSet
327 255 m 257
 528 680 l 257
 572 680 l 257
 572 730 l 257
 400 730 l 257
 400 680 l 257
 455 680 l 257
 291 326 l 257
 127 680 l 257
 182 680 l 257
 182 730 l 257
 10 730 l 257
 10 680 l 257
 53 680 l 257
 255 255 l 257
 255 50 l 257
 185 50 l 257
 185 0 l 257
 397 0 l 257
 397 50 l 257
 327 50 l 257
 327 255 l 257
183 782 m 257
 291 892 l 257
 400 782 l 257
 442 824 l 257
 306 979 l 257
 277 979 l 257
 141 824 l 257
 183 782 l 257
EndSplineSet
Validated: 9
Position2: "'cpsp' Capital Spacing lookup 0 subtable" dx=5 dy=0 dh=10 dv=0
EndChar

StartChar: Ydieresis
Encoding: 376 376 122
Width: 582
VWidth: 0
Flags: W
PickledData: "(dp1
S'org.robofab.postScriptHintData'
p2
(dp3
S'vHints'
p4
((I142
I88
t(I352
I88
ttp5
sS'hHints'
p6
((I0
I50
t(I680
I50
t(I830
I107
ttp7
ssS'org.robofab.fontlab.mark'
p8
I80
s."
LayerCount: 2
Fore
SplineSet
327 255 m 257
 528 680 l 257
 572 680 l 257
 572 730 l 257
 400 730 l 257
 400 680 l 257
 455 680 l 257
 291 326 l 257
 127 680 l 257
 182 680 l 257
 182 730 l 257
 10 730 l 257
 10 680 l 257
 53 680 l 257
 255 255 l 257
 255 50 l 257
 185 50 l 257
 185 0 l 257
 397 0 l 257
 397 50 l 257
 327 50 l 257
 327 255 l 257
185 830 m 256
 144 830 142 858 142 883 c 256
 142 909 144 937 185 937 c 256
 228 937 230 909 230 883 c 256
 230 858 228 830 185 830 c 256
395 830 m 256
 354 830 352 858 352 883 c 256
 352 909 354 937 395 937 c 256
 438 937 440 909 440 883 c 256
 440 858 438 830 395 830 c 256
EndSplineSet
Validated: 9
Position2: "'cpsp' Capital Spacing lookup 0 subtable" dx=5 dy=0 dh=10 dv=0
EndChar

StartChar: Ygrave
Encoding: 7922 7922 123
Width: 582
VWidth: 0
Flags: W
PickledData: "(dp1
S'org.robofab.postScriptHintData'
p2
(dp3
S'vHints'
p4
((I255
I72
ttp5
sS'hHints'
p6
((I0
I50
t(I680
I50
t(I985
I-20
ttp7
ssS'org.robofab.fontlab.mark'
p8
I80
s."
LayerCount: 2
Fore
SplineSet
327 255 m 257
 528 680 l 257
 572 680 l 257
 572 730 l 257
 400 730 l 257
 400 680 l 257
 455 680 l 257
 291 326 l 257
 127 680 l 257
 182 680 l 257
 182 730 l 257
 10 730 l 257
 10 680 l 257
 53 680 l 257
 255 255 l 257
 255 50 l 257
 185 50 l 257
 185 0 l 257
 397 0 l 257
 397 50 l 257
 327 50 l 257
 327 255 l 257
356 782 m 257
 184 932 l 257
 237 985 l 257
 398 824 l 257
 356 782 l 257
EndSplineSet
Validated: 9
Position2: "'cpsp' Capital Spacing lookup 0 subtable" dx=5 dy=0 dh=10 dv=0
EndChar

StartChar: Z
Encoding: 90 90 124
Width: 545
VWidth: 0
Flags: W
PickledData: "(dp1
S'org.robofab.postScriptHintData'
p2
(dp3
S'hHints'
p4
((I0
I59
t(I671
I59
t(I572
I-20
ttp5
ssS'org.robofab.fontlab.maskData'
p6
((dp7
S'method'
p8
S'beginPath'
p9
s(dp10
S'segmentType'
p11
S'line'
p12
sS'smooth'
p13
I00
sg8
S'addPoint'
p14
sS'pt'
p15
(I49
I671
tp16
s(dp17
g11
S'line'
p18
sg13
I00
sg8
S'addPoint'
p19
sg15
(I417
I671
tp20
s(dp21
g11
S'line'
p22
sg13
I00
sg8
S'addPoint'
p23
sg15
(I30
I46
tp24
s(dp25
g11
S'line'
p26
sg13
I00
sg8
S'addPoint'
p27
sg15
(I30
I0
tp28
s(dp29
g11
S'line'
p30
sg13
I00
sg8
S'addPoint'
p31
sg15
(I515
I0
tp32
s(dp33
g11
S'line'
p34
sg13
I00
sg8
S'addPoint'
p35
sg15
(I515
I59
tp36
s(dp37
g11
S'line'
p38
sg13
I00
sg8
S'addPoint'
p39
sg15
(I118
I59
tp40
s(dp41
g11
S'line'
p42
sg13
I00
sg8
S'addPoint'
p43
sg15
(I505
I684
tp44
s(dp45
g11
S'line'
p46
sg13
I00
sg8
S'addPoint'
p47
sg15
(I505
I730
tp48
s(dp49
g11
S'line'
p50
sg13
I00
sg8
S'addPoint'
p51
sg15
(I50
I730
tp52
s(dp53
g8
S'endPath'
p54
s(dp55
g8
S'beginPath'
p56
s(dp57
g11
S'line'
p58
sg13
I00
sg8
S'addPoint'
p59
sg15
(I106
I572
tp60
s(dp61
g11
S'line'
p62
sg13
I00
sg8
S'addPoint'
p63
sg15
(I106
I730
tp64
s(dp65
g11
S'line'
p66
sg13
I00
sg8
S'addPoint'
p67
sg15
(I50
I730
tp68
s(dp69
g11
S'line'
p70
sg13
I00
sg8
S'addPoint'
p71
sg15
(I50
I572
tp72
s(dp73
g8
S'endPath'
p74
s(dp75
g8
S'beginPath'
p76
s(dp77
g11
S'line'
p78
sg13
I00
sg8
S'addPoint'
p79
sg15
(I515
I0
tp80
s(dp81
g11
S'line'
p82
sg13
I00
sg8
S'addPoint'
p83
sg15
(I515
I158
tp84
s(dp85
g11
S'line'
p86
sg13
I00
sg8
S'addPoint'
p87
sg15
(I459
I158
tp88
s(dp89
g11
S'line'
p90
sg13
I00
sg8
S'addPoint'
p91
sg15
(I459
I0
tp92
s(dp93
g8
S'endPath'
p94
stp95
sS'org.robofab.fontlab.mark'
p96
I144
s."
LayerCount: 2
Fore
SplineSet
49 671 m 257
 50 671 l 257
 50 572 l 257
 106 572 l 257
 106 671 l 257
 417 671 l 257
 30 46 l 257
 30 0 l 257
 515 0 l 257
 515 158 l 257
 459 158 l 257
 459 59 l 257
 118 59 l 257
 505 684 l 257
 505 730 l 257
 50 730 l 257
 49 671 l 257
EndSplineSet
Validated: 9
Position2: "'cpsp' Capital Spacing lookup 0 subtable" dx=5 dy=0 dh=10 dv=0
EndChar

StartChar: Zacute
Encoding: 377 377 125
Width: 545
VWidth: 0
Flags: W
PickledData: "(dp1
S'org.robofab.postScriptHintData'
p2
(dp3
S'hHints'
p4
((I0
I59
t(I671
I59
t(I572
I-20
t(I985
I-20
ttp5
ssS'org.robofab.fontlab.mark'
p6
I80
s."
LayerCount: 2
Fore
SplineSet
49 671 m 257
 50 671 l 257
 50 572 l 257
 106 572 l 257
 106 671 l 257
 417 671 l 257
 30 46 l 257
 30 0 l 257
 515 0 l 257
 515 158 l 257
 459 158 l 257
 459 59 l 257
 118 59 l 257
 505 684 l 257
 505 730 l 257
 50 730 l 257
 49 671 l 257
237 782 m 257
 409 932 l 257
 356 985 l 257
 195 824 l 257
 237 782 l 257
EndSplineSet
Validated: 9
Position2: "'cpsp' Capital Spacing lookup 0 subtable" dx=5 dy=0 dh=10 dv=0
EndChar

StartChar: Zcaron
Encoding: 381 381 126
Width: 525
VWidth: 0
Flags: W
PickledData: "(dp1
S'org.robofab.postScriptHintData'
p2
(dp3
S'hHints'
p4
((I0
I59
t(I671
I59
t(I572
I-20
t(I985
I-20
ttp5
ssS'org.robofab.fontlab.mark'
p6
I80
s."
LayerCount: 2
Fore
SplineSet
49 671 m 257
 50 671 l 257
 50 572 l 257
 106 572 l 257
 106 671 l 257
 417 671 l 257
 30 46 l 257
 30 0 l 257
 515 0 l 257
 515 158 l 257
 459 158 l 257
 459 59 l 257
 118 59 l 257
 505 684 l 257
 505 730 l 257
 50 730 l 257
 49 671 l 257
371 985 m 257
 263 875 l 257
 154 985 l 257
 112 943 l 257
 248 788 l 257
 277 788 l 257
 413 943 l 257
 371 985 l 257
EndSplineSet
Validated: 9
Position2: "'cpsp' Capital Spacing lookup 0 subtable" dx=5 dy=0 dh=10 dv=0
EndChar

StartChar: Zdotaccent
Encoding: 379 379 127
Width: 545
VWidth: 0
Flags: W
PickledData: "(dp1
S'org.robofab.postScriptHintData'
p2
(dp3
S'vHints'
p4
((I240
I104
ttp5
sS'hHints'
p6
((I0
I59
t(I671
I59
t(I818
I131
t(I572
I-20
ttp7
ssS'org.robofab.fontlab.mark'
p8
I80
s."
LayerCount: 2
Fore
SplineSet
49 671 m 257
 50 671 l 257
 50 572 l 257
 106 572 l 257
 106 671 l 257
 417 671 l 257
 30 46 l 257
 30 0 l 257
 515 0 l 257
 515 158 l 257
 459 158 l 257
 459 59 l 257
 118 59 l 257
 505 684 l 257
 505 730 l 257
 50 730 l 257
 49 671 l 257
291 818 m 256
 341 818 344 853 344 883 c 256
 344 914 341 949 291 949 c 256
 243 949 240 914 240 883 c 256
 240 853 243 818 291 818 c 256
EndSplineSet
Validated: 9
Position2: "'cpsp' Capital Spacing lookup 0 subtable" dx=5 dy=0 dh=10 dv=0
EndChar

StartChar: a
Encoding: 97 97 128
Width: 612
VWidth: 0
Flags: W
PickledData: "(dp1
S'org.robofab.postScriptHintData'
p2
(dp3
S'replaceTable'
p4
((dp5
S'index'
p6
I1
sS'type'
p7
I1
s(dp8
g6
I1
sg7
I2
s(dp9
g6
I3
sg7
I1
s(dp10
g6
I0
sg7
I2
s(dp11
g6
I2
sg7
I1
s(dp12
g6
I13
sg7
I255
s(dp13
g6
I0
sg7
I1
s(dp14
g6
I2
sg7
I1
s(dp15
g6
I3
sg7
I1
s(dp16
g6
I0
sg7
I2
s(dp17
g6
I1
sg7
I2
s(dp18
g6
I-14
sg7
I255
s(dp19
g6
I1
sg7
I1
s(dp20
g6
I0
sg7
I2
s(dp21
g6
I2
sg7
I1
s(dp22
g6
I1
sg7
I2
s(dp23
g6
I3
sg7
I1
stp24
sS'vHints'
p25
((I64
I68
t(I422
I70
ttp26
sS'hHints'
p27
((I-14
I57
t(I0
I43
t(I261
I59
t(I527
I59
ttp28
ssS'org.robofab.fontlab.mark'
p29
I144
s."
LayerCount: 2
Fore
SplineSet
445 0 m 257
 552 0 l 257
 552 50 l 257
 492 50 l 257
 492 426 l 258
 492 550 405 586 294 586 c 256
 130 586 97 514 89 410 c 257
 148 407 l 257
 153 480 172 527 294 527 c 256
 365 527 422 502 422 426 c 258
 422 326 l 257
 237 314 l 258
 97 305 64 255 64 145 c 256
 64 46 102 -14 233 -14 c 256
 318 -14 386 28 427 65 c 257
 445 0 l 257
243 43 m 256
 157 43 132 80 132 142 c 256
 132 235 158 256 241 261 c 258
 422 272 l 257
 422 121 l 257
 366 68 305 43 243 43 c 256
EndSplineSet
Validated: 9
EndChar

StartChar: aacute
Encoding: 225 225 129
Width: 612
VWidth: 0
Flags: W
PickledData: "(dp1
S'org.robofab.postScriptHintData'
p2
(dp3
S'replaceTable'
p4
((dp5
S'index'
p6
I1
sS'type'
p7
I1
s(dp8
g6
I1
sg7
I2
s(dp9
g6
I3
sg7
I1
s(dp10
g6
I0
sg7
I2
s(dp11
g6
I2
sg7
I1
s(dp12
g6
I4
sg7
I1
s(dp13
g6
I13
sg7
I255
s(dp14
g6
I0
sg7
I1
s(dp15
g6
I2
sg7
I1
s(dp16
g6
I3
sg7
I1
s(dp17
g6
I4
sg7
I1
s(dp18
g6
I0
sg7
I2
s(dp19
g6
I1
sg7
I2
s(dp20
g6
I-14
sg7
I255
s(dp21
g6
I1
sg7
I1
s(dp22
g6
I0
sg7
I2
s(dp23
g6
I2
sg7
I1
s(dp24
g6
I1
sg7
I2
s(dp25
g6
I4
sg7
I1
s(dp26
g6
I3
sg7
I1
stp27
sS'vHints'
p28
((I64
I68
t(I422
I70
ttp29
sS'hHints'
p30
((I-14
I57
t(I0
I43
t(I261
I59
t(I527
I59
t(I827
I-20
ttp31
ssS'org.robofab.fontlab.mark'
p32
I144
s."
LayerCount: 2
Fore
SplineSet
445 0 m 257
 552 0 l 257
 552 50 l 257
 492 50 l 257
 492 426 l 258
 492 550 405 586 294 586 c 256
 130 586 97 514 89 410 c 257
 148 407 l 257
 153 480 172 527 294 527 c 256
 365 527 422 502 422 426 c 258
 422 326 l 257
 237 314 l 258
 97 305 64 255 64 145 c 256
 64 46 102 -14 233 -14 c 256
 318 -14 386 28 427 65 c 257
 445 0 l 257
243 43 m 256
 157 43 132 80 132 142 c 256
 132 235 158 256 241 261 c 258
 422 272 l 257
 422 121 l 257
 366 68 305 43 243 43 c 256
272 624 m 257
 444 774 l 257
 391 827 l 257
 230 666 l 257
 272 624 l 257
EndSplineSet
Validated: 9
EndChar

StartChar: aadeva
Encoding: 2310 2310 130
Width: 1136
VWidth: 0
Flags: W
PickledData: "(dp1
S'org.robofab.postScriptHintData'
p2
(dp3
S'replaceTable'
p4
((dp5
S'index'
p6
I2
sS'type'
p7
I2
s(dp8
g6
I1
sg7
I2
s(dp9
g6
I3
sg7
I1
s(dp10
g6
I0
sg7
I2
s(dp11
g6
I1
sg7
I1
s(dp12
g6
I0
sg7
I1
s(dp13
g6
I4
sg7
I1
s(dp14
g6
I3
sg7
I2
s(dp15
g6
I28
sg7
I255
s(dp16
g6
I2
sg7
I1
s(dp17
g6
I2
sg7
I2
s(dp18
g6
I0
sg7
I1
s(dp19
g6
I1
sg7
I1
s(dp20
g6
I4
sg7
I1
s(dp21
g6
I0
sg7
I2
s(dp22
g6
I1
sg7
I2
s(dp23
g6
I3
sg7
I2
stp24
sS'vHints'
p25
((I49
I62
t(I398
I70
t(I651
I70
t(I951
I70
ttp26
sS'hHints'
p27
((I46
I58
t(I365
I54
t(I685
I45
t(I685
I59
t(I21
I-21
ttp28
ssS'com.typemytype.robofont.layerData'
p29
(dp30
sS'org.robofab.fontlab.maskData'
p31
((dp32
S'method'
p33
S'beginPath'
p34
s(dp35
S'segmentType'
p36
S'curve'
p37
sS'smooth'
p38
I01
sg33
S'addPoint'
p39
sS'pt'
p40
(I350
I52
tp41
s(dp42
g33
S'addPoint'
p43
sg40
(I234
I52
tp44
s(dp45
g33
S'addPoint'
p46
sg40
(I119
I154
tp47
s(dp48
g36
S'curve'
p49
sg38
I00
sg33
S'addPoint'
p50
sg40
(I36
I329
tp51
s(dp52
g36
S'line'
p53
sg38
I00
sg33
S'addPoint'
p54
sg40
(I87
I373
tp55
s(dp56
g33
S'addPoint'
p57
sg40
(I162
I216
tp58
s(dp59
g33
S'addPoint'
p60
sg40
(I257
I124
tp61
s(dp62
g36
S'curve'
p63
sg38
I01
sg33
S'addPoint'
p64
sg40
(I350
I124
tp65
s(dp66
g33
S'addPoint'
p67
sg40
(I381
I124
tp68
s(dp69
g33
S'addPoint'
p70
sg40
(I406
I137
tp71
s(dp72
g36
S'curve'
p73
sg38
I01
sg33
S'addPoint'
p74
sg40
(I427
I163
tp75
s(dp76
g33
S'addPoint'
p77
sg40
(I448
I189
tp78
s(dp79
g33
S'addPoint'
p80
sg40
(I459
I220
tp81
s(dp82
g36
S'curve'
p83
sg38
I01
sg33
S'addPoint'
p84
sg40
(I459
I256
tp85
s(dp86
g33
S'addPoint'
p87
sg40
(I459
I290
tp88
s(dp89
g33
S'addPoint'
p90
sg40
(I447
I319
tp91
s(dp92
g36
S'curve'
p93
sg38
I01
sg33
S'addPoint'
p94
sg40
(I423
I343
tp95
s(dp96
g33
S'addPoint'
p97
sg40
(I399
I368
tp98
s(dp99
g33
S'addPoint'
p100
sg40
(I370
I380
tp101
s(dp102
g36
S'curve'
p103
sg38
I01
sg33
S'addPoint'
p104
sg40
(I336
I380
tp105
s(dp106
g33
S'addPoint'
p107
sg40
(I313
I380
tp108
s(dp109
g33
S'addPoint'
p110
sg40
(I290
I376
tp111
s(dp112
g36
S'curve'
p113
sg38
I00
sg33
S'addPoint'
p114
sg40
(I263
I365
tp115
s(dp116
g36
S'line'
p117
sg38
I00
sg33
S'addPoint'
p118
sg40
(I233
I431
tp119
s(dp120
g33
S'addPoint'
p121
sg40
(I278
I435
tp122
s(dp123
g33
S'addPoint'
p124
sg40
(I317
I451
tp125
s(dp126
g36
S'curve'
p127
sg38
I01
sg33
S'addPoint'
p128
sg40
(I351
I479
tp129
s(dp130
g33
S'addPoint'
p131
sg40
(I385
I507
tp132
s(dp133
g33
S'addPoint'
p134
sg40
(I402
I537
tp135
s(dp136
g36
S'curve'
p137
sg38
I01
sg33
S'addPoint'
p138
sg40
(I402
I569
tp139
s(dp140
g33
S'addPoint'
p141
sg40
(I402
I596
tp142
s(dp143
g33
S'addPoint'
p144
sg40
(I392
I618
tp145
s(dp146
g36
S'curve'
p147
sg38
I01
sg33
S'addPoint'
p148
sg40
(I371
I637
tp149
s(dp150
g33
S'addPoint'
p151
sg40
(I351
I656
tp152
s(dp153
g33
S'addPoint'
p154
sg40
(I327
I665
tp155
s(dp156
g36
S'curve'
p157
sg38
I01
sg33
S'addPoint'
p158
sg40
(I300
I665
tp159
s(dp160
g33
S'addPoint'
p161
sg40
(I253
I665
tp162
s(dp163
g33
S'addPoint'
p164
sg40
(I191
I627
tp165
s(dp166
g36
S'curve'
p167
sg38
I00
sg33
S'addPoint'
p168
sg40
(I138
I563
tp169
s(dp170
g36
S'line'
p171
sg38
I00
sg33
S'addPoint'
p172
sg40
(I87
I613
tp173
s(dp174
g33
S'addPoint'
p175
sg40
(I139
I688
tp176
s(dp177
g33
S'addPoint'
p178
sg40
(I217
I730
tp179
s(dp180
g36
S'curve'
p181
sg38
I01
sg33
S'addPoint'
p182
sg40
(I300
I730
tp183
s(dp184
g33
S'addPoint'
p185
sg40
(I348
I730
tp186
s(dp187
g33
S'addPoint'
p188
sg40
(I389
I714
tp189
s(dp190
g36
S'curve'
p191
sg38
I01
sg33
S'addPoint'
p192
sg40
(I423
I683
tp193
s(dp194
g33
S'addPoint'
p195
sg40
(I457
I652
tp196
s(dp197
g33
S'addPoint'
p198
sg40
(I474
I614
tp199
s(dp200
g36
S'curve'
p201
sg38
I01
sg33
S'addPoint'
p202
sg40
(I474
I569
tp203
s(dp204
g33
S'addPoint'
p205
sg40
(I474
I517
tp206
s(dp207
g33
S'addPoint'
p208
sg40
(I449
I466
tp209
s(dp210
g36
S'curve'
p211
sg38
I00
sg33
S'addPoint'
p212
sg40
(I409
I431
tp213
s(dp214
g33
S'addPoint'
p215
sg40
(I474
I391
tp216
s(dp217
g33
S'addPoint'
p218
sg40
(I540
I373
tp219
s(dp220
g36
S'curve'
p221
sg38
I01
sg33
S'addPoint'
p222
sg40
(I599
I373
tp223
s(dp224
g33
S'addPoint'
p225
sg40
(I614
I373
tp226
s(dp227
g33
S'addPoint'
p228
sg40
(I639
I382
tp229
s(dp230
g36
S'curve'
p231
sg38
I00
sg33
S'addPoint'
p232
sg40
(I672
I401
tp233
s(dp234
g36
S'line'
p235
sg38
I00
sg33
S'addPoint'
p236
sg40
(I672
I665
tp237
s(dp238
g36
S'line'
p239
sg38
I00
sg33
S'addPoint'
p240
sg40
(I540
I665
tp241
s(dp242
g36
S'line'
p243
sg38
I00
sg33
S'addPoint'
p244
sg40
(I540
I730
tp245
s(dp246
g36
S'line'
p247
sg38
I00
sg33
S'addPoint'
p248
sg40
(I1168
I730
tp249
s(dp250
g36
S'line'
p251
sg38
I00
sg33
S'addPoint'
p252
sg40
(I1168
I665
tp253
s(dp254
g36
S'line'
p255
sg38
I00
sg33
S'addPoint'
p256
sg40
(I1044
I665
tp257
s(dp258
g36
S'line'
p259
sg38
I00
sg33
S'addPoint'
p260
sg40
(I1044
I0
tp261
s(dp262
g36
S'line'
p263
sg38
I00
sg33
S'addPoint'
p264
sg40
(I970
I0
tp265
s(dp266
g36
S'line'
p267
sg38
I00
sg33
S'addPoint'
p268
sg40
(I970
I665
tp269
s(dp270
g36
S'line'
p271
sg38
I00
sg33
S'addPoint'
p272
sg40
(I745
I665
tp273
s(dp274
g36
S'line'
p275
sg38
I00
sg33
S'addPoint'
p276
sg40
(I745
I0
tp277
s(dp278
g36
S'line'
p279
sg38
I00
sg33
S'addPoint'
p280
sg40
(I672
I0
tp281
s(dp282
g36
S'line'
p283
sg38
I00
sg33
S'addPoint'
p284
sg40
(I672
I329
tp285
s(dp286
g33
S'addPoint'
p287
sg40
(I648
I308
tp288
s(dp289
g33
S'addPoint'
p290
sg40
(I624
I300
tp291
s(dp292
g36
S'curve'
p293
sg38
I01
sg33
S'addPoint'
p294
sg40
(I599
I300
tp295
s(dp296
g33
S'addPoint'
p297
sg40
(I558
I300
tp298
s(dp299
g33
S'addPoint'
p300
sg40
(I523
I308
tp301
s(dp302
g36
S'curve'
p303
sg38
I00
sg33
S'addPoint'
p304
sg40
(I503
I321
tp305
s(dp306
g33
S'addPoint'
p307
sg40
(I523
I305
tp308
s(dp309
g33
S'addPoint'
p310
sg40
(I533
I276
tp311
s(dp312
g36
S'curve'
p313
sg38
I01
sg33
S'addPoint'
p314
sg40
(I533
I241
tp315
s(dp316
g33
S'addPoint'
p317
sg40
(I533
I189
tp318
s(dp319
g33
S'addPoint'
p320
sg40
(I515
I144
tp321
s(dp322
g36
S'curve'
p323
sg38
I01
sg33
S'addPoint'
p324
sg40
(I480
I107
tp325
s(dp326
g33
S'addPoint'
p327
sg40
(I445
I70
tp328
s(dp329
g33
S'addPoint'
p330
sg40
(I401
I52
tp331
s(dp332
g33
S'endPath'
p333
stp334
sS'org.robofab.fontlab.mark'
p335
I26
sS'com.typemytype.robofont.mark'
p336
(F0
F0.50196081399917603
F1
F1
tp337
s."
AnchorPoint: "DVAnchor3" 836 730 basechar 0
LayerCount: 2
Fore
SplineSet
651 414 m 257
 555 335 474 379 383 404 c 257
 433 434 468 485 468 550 c 256
 468 668 413 744 251 744 c 256
 104 744 49 668 49 550 c 257
 111 550 l 257
 111 631 147 685 251 685 c 256
 366 685 398 632 398 551 c 256
 398 477 352 419 270 419 c 258
 193 419 l 257
 193 365 l 257
 269 365 l 258
 371 365 407 304 407 226 c 256
 407 150 362 105 261 104 c 257
 160 105 106 149 97 256 c 257
 35 231 l 257
 52 104 125 46 261 46 c 256
 403 46 477 111 477 227 c 256
 477 268 467 301 450 328 c 257
 516 308 579 296 651 355 c 257
 651 0 l 257
 721 0 l 257
 721 680 l 257
 951 680 l 257
 951 0 l 257
 1021 0 l 257
 1021 680 l 257
 1146 680 l 257
 1146 730 l 257
 526 730 l 257
 526 680 l 257
 651 680 l 257
 651 414 l 257
EndSplineSet
Validated: 41
EndChar

StartChar: aasigndeva
Encoding: 2366 2366 131
Width: 300
VWidth: 0
Flags: W
PickledData: "(dp1
S'org.robofab.postScriptHintData'
p2
(dp3
S'vHints'
p4
((I115
I70
ttp5
sS'hHints'
p6
((I680
I50
t(I21
I-21
ttp7
ssS'org.robofab.fontlab.mark'
p8
I26
s."
LayerCount: 2
Fore
SplineSet
115 680 m 257
 115 0 l 257
 185 0 l 257
 185 680 l 257
 310 680 l 257
 310 730 l 257
 -10 730 l 257
 -10 680 l 257
 115 680 l 257
EndSplineSet
Validated: 9
EndChar

StartChar: abbreviationsigndeva
Encoding: 2416 2416 132
Width: 532
VWidth: 0
Flags: W
PickledData: "(dp1
S'org.robofab.postScriptHintData'
p2
(dp3
S'vHints'
p4
((I98
I62
t(I376
I60
ttp5
sS'hHints'
p6
((I317
I55
t(I596
I54
ttp7
ssS'org.robofab.fontlab.mark'
p8
I0
s."
LayerCount: 2
Fore
SplineSet
268 372 m 256
 298 372 323 383 344 404 c 256
 365 427 376 453 376 484 c 256
 376 547 327 596 268 596 c 256
 209 596 160 547 160 484 c 256
 160 422 209 372 268 372 c 256
98 484 m 256
 98 530 114 569 146 602 c 256
 180 634 220 650 267 650 c 256
 313 650 354 634 386 602 c 256
 419 569 436 530 436 484 c 256
 436 438 419 398 386 366 c 256
 354 334 313 317 267 317 c 256
 220 317 180 334 146 366 c 256
 114 398 98 438 98 484 c 256
EndSplineSet
Validated: 1
EndChar

StartChar: abreve
Encoding: 259 259 133
Width: 612
VWidth: 0
Flags: W
PickledData: "(dp1
S'org.robofab.postScriptHintData'
p2
(dp3
S'replaceTable'
p4
((dp5
S'index'
p6
I4
sS'type'
p7
I1
s(dp8
g6
I0
sg7
I1
s(dp9
g6
I2
sg7
I1
s(dp10
g6
I3
sg7
I1
s(dp11
g6
I0
sg7
I2
s(dp12
g6
I2
sg7
I2
s(dp13
g6
I1
sg7
I255
s(dp14
g6
I5
sg7
I1
s(dp15
g6
I0
sg7
I1
s(dp16
g6
I2
sg7
I1
s(dp17
g6
I3
sg7
I1
s(dp18
g6
I0
sg7
I2
s(dp19
g6
I2
sg7
I2
s(dp20
g6
I2
sg7
I255
s(dp21
g6
I4
sg7
I1
s(dp22
g6
I2
sg7
I2
s(dp23
g6
I0
sg7
I1
s(dp24
g6
I0
sg7
I2
s(dp25
g6
I2
sg7
I1
s(dp26
g6
I3
sg7
I1
s(dp27
g6
I19
sg7
I255
s(dp28
g6
I1
sg7
I2
s(dp29
g6
I3
sg7
I1
s(dp30
g6
I2
sg7
I2
s(dp31
g6
I1
sg7
I1
s(dp32
g6
I2
sg7
I1
s(dp33
g6
I4
sg7
I1
stp34
sS'vHints'
p35
((I64
I68
t(I89
I59
t(I422
I70
ttp36
sS'hHints'
p37
((I-14
I57
t(I0
I43
t(I266
I48
t(I527
I59
t(I644
I135
t(I644
I61
ttp38
ssS'org.robofab.fontlab.mark'
p39
I80
s."
LayerCount: 2
Fore
SplineSet
445 0 m 257
 552 0 l 257
 552 50 l 257
 492 50 l 257
 492 426 l 258
 492 550 405 586 294 586 c 256
 130 586 97 514 89 410 c 257
 148 407 l 257
 153 480 172 527 294 527 c 256
 365 527 422 502 422 426 c 258
 422 326 l 257
 237 314 l 258
 97 305 64 255 64 145 c 256
 64 46 102 -14 233 -14 c 256
 318 -14 386 28 427 65 c 257
 445 0 l 257
243 43 m 256
 157 43 132 80 132 142 c 256
 132 235 158 256 241 261 c 258
 422 272 l 257
 422 121 l 257
 366 68 305 43 243 43 c 256
422 779 m 257
 422 710 409 644 296 644 c 256
 184 644 171 710 171 779 c 257
 226 779 l 257
 226 741 230 705 296 705 c 256
 362 705 366 741 366 779 c 257
 422 779 l 257
EndSplineSet
Validated: 9
EndChar

StartChar: acandradeva
Encoding: 2418 2418 134
Width: 836
VWidth: 0
Flags: W
PickledData: "(dp1
S'org.robofab.postScriptHintData'
p2
(dp3
S'replaceTable'
p4
((dp5
S'index'
p6
I3
sS'type'
p7
I1
s(dp8
g6
I0
sg7
I1
s(dp9
g6
I1
sg7
I1
s(dp10
g6
I2
sg7
I1
s(dp11
g6
I5
sg7
I1
s(dp12
g6
I0
sg7
I2
s(dp13
g6
I1
sg7
I2
s(dp14
g6
I2
sg7
I2
s(dp15
g6
I1
sg7
I255
s(dp16
g6
I4
sg7
I1
s(dp17
g6
I0
sg7
I1
s(dp18
g6
I1
sg7
I1
s(dp19
g6
I2
sg7
I1
s(dp20
g6
I5
sg7
I1
s(dp21
g6
I0
sg7
I2
s(dp22
g6
I1
sg7
I2
s(dp23
g6
I2
sg7
I2
s(dp24
g6
I2
sg7
I255
s(dp25
g6
I3
sg7
I1
s(dp26
g6
I2
sg7
I2
s(dp27
g6
I5
sg7
I1
s(dp28
g6
I1
sg7
I2
s(dp29
g6
I0
sg7
I1
s(dp30
g6
I1
sg7
I1
s(dp31
g6
I2
sg7
I1
s(dp32
g6
I0
sg7
I2
s(dp33
g6
I23
sg7
I255
s(dp34
g6
I6
sg7
I1
s(dp35
g6
I0
sg7
I1
s(dp36
g6
I1
sg7
I1
s(dp37
g6
I3
sg7
I1
s(dp38
g6
I5
sg7
I1
s(dp39
g6
I0
sg7
I2
s(dp40
g6
I1
sg7
I2
s(dp41
g6
I2
sg7
I2
s(dp42
g6
I29
sg7
I255
s(dp43
g6
I2
sg7
I1
s(dp44
g6
I5
sg7
I1
s(dp45
g6
I0
sg7
I1
s(dp46
g6
I1
sg7
I1
s(dp47
g6
I3
sg7
I1
s(dp48
g6
I0
sg7
I2
s(dp49
g6
I1
sg7
I2
s(dp50
g6
I2
sg7
I2
stp51
sS'vHints'
p52
((I49
I62
t(I407
I70
t(I506
I59
ttp53
sS'hHints'
p54
((I46
I58
t(I365
I54
t(I685
I45
t(I832
I159
t(I832
I60
t(I21
I-21
t(I744
I-20
ttp55
ssS'org.robofab.fontlab.mark'
p56
I26
s."
LayerCount: 2
Fore
SplineSet
721 0 m 257
 721 680 l 257
 846 680 l 257
 846 730 l 257
 526 730 l 257
 526 680 l 257
 651 680 l 257
 651 414 l 257
 555 335 474 379 383 404 c 257
 433 434 468 485 468 550 c 256
 468 668 413 744 251 744 c 256
 104 744 49 668 49 550 c 257
 111 550 l 257
 111 631 147 685 251 685 c 256
 366 685 398 632 398 551 c 256
 398 477 352 419 270 419 c 258
 193 419 l 257
 193 365 l 257
 269 365 l 258
 371 365 407 304 407 226 c 256
 407 150 362 105 261 104 c 257
 160 105 106 149 97 256 c 257
 35 231 l 257
 52 104 125 46 261 46 c 256
 403 46 477 111 477 227 c 256
 477 268 467 301 450 328 c 257
 516 308 579 296 651 355 c 257
 651 0 l 257
 721 0 l 257
847 991 m 257
 847 910 819 832 676 832 c 256
 533 832 506 910 506 991 c 257
 565 991 l 257
 565 939 580 892 676 892 c 256
 771 892 786 939 786 991 c 257
 847 991 l 257
EndSplineSet
Validated: 41
EndChar

StartChar: acircumflex
Encoding: 226 226 135
Width: 612
VWidth: 0
Flags: W
PickledData: "(dp1
S'org.robofab.postScriptHintData'
p2
(dp3
S'replaceTable'
p4
((dp5
S'index'
p6
I1
sS'type'
p7
I1
s(dp8
g6
I1
sg7
I2
s(dp9
g6
I3
sg7
I1
s(dp10
g6
I0
sg7
I2
s(dp11
g6
I2
sg7
I1
s(dp12
g6
I4
sg7
I1
s(dp13
g6
I13
sg7
I255
s(dp14
g6
I0
sg7
I1
s(dp15
g6
I2
sg7
I1
s(dp16
g6
I3
sg7
I1
s(dp17
g6
I4
sg7
I1
s(dp18
g6
I0
sg7
I2
s(dp19
g6
I1
sg7
I2
s(dp20
g6
I-14
sg7
I255
s(dp21
g6
I1
sg7
I1
s(dp22
g6
I0
sg7
I2
s(dp23
g6
I2
sg7
I1
s(dp24
g6
I1
sg7
I2
s(dp25
g6
I4
sg7
I1
s(dp26
g6
I3
sg7
I1
stp27
sS'vHints'
p28
((I64
I68
t(I422
I70
ttp29
sS'hHints'
p30
((I-14
I57
t(I0
I43
t(I261
I59
t(I527
I59
t(I821
I-20
ttp31
ssS'org.robofab.fontlab.mark'
p32
I144
s."
LayerCount: 2
Fore
SplineSet
445 0 m 257
 552 0 l 257
 552 50 l 257
 492 50 l 257
 492 426 l 258
 492 550 405 586 294 586 c 256
 130 586 97 514 89 410 c 257
 148 407 l 257
 153 480 172 527 294 527 c 256
 365 527 422 502 422 426 c 258
 422 326 l 257
 237 314 l 258
 97 305 64 255 64 145 c 256
 64 46 102 -14 233 -14 c 256
 318 -14 386 28 427 65 c 257
 445 0 l 257
243 43 m 256
 157 43 132 80 132 142 c 256
 132 235 158 256 241 261 c 258
 422 272 l 257
 422 121 l 257
 366 68 305 43 243 43 c 256
183 624 m 257
 291 734 l 257
 400 624 l 257
 442 666 l 257
 306 821 l 257
 277 821 l 257
 141 666 l 257
 183 624 l 257
EndSplineSet
Validated: 9
EndChar

StartChar: acombiningletterdeva
Encoding: 43242 43242 136
Width: 388
VWidth: 0
Flags: W
PickledData: "(dp1
S'org.robofab.postScriptHintData'
p2
(dp3
S'replaceTable'
p4
((dp5
S'index'
p6
I0
sS'type'
p7
I2
s(dp8
g6
I0
sg7
I1
s(dp9
g6
I1
sg7
I2
s(dp10
g6
I2
sg7
I1
s(dp11
g6
I10
sg7
I255
s(dp12
g6
I1
sg7
I1
s(dp13
g6
I1
sg7
I2
s(dp14
g6
I2
sg7
I1
s(dp15
g6
I0
sg7
I2
stp16
sS'vHints'
p17
((I-174
I49
t(I-61
I49
ttp18
sS'hHints'
p19
((I818
I40
t(I821
I-21
t(I1135
I-20
ttp20
ssS'com.typemytype.robofont.layerData'
p21
(dp22
sS'org.robofab.fontlab.maskData'
p23
((dp24
S'method'
p25
S'beginPath'
p26
s(dp27
S'segmentType'
p28
S'curve'
p29
sS'smooth'
p30
I01
sg25
S'addPoint'
p31
sS'pt'
p32
(I-236
I822
tp33
s(dp34
g25
S'addPoint'
p35
sg32
(I-270
I822
tp36
s(dp37
g25
S'addPoint'
p38
sg32
(I-302
I833
tp39
s(dp40
g28
S'curve'
p41
sg30
I00
sg25
S'addPoint'
p42
sg32
(I-332
I856
tp43
s(dp44
g25
S'addPoint'
p45
sg32
(I-364
I877
tp46
s(dp47
g25
S'addPoint'
p48
sg32
(I-391
I909
tp49
s(dp50
g28
S'curve'
p51
sg30
I00
sg25
S'addPoint'
p52
sg32
(I-413
I949
tp53
s(dp54
g28
S'line'
p55
sg30
I00
sg25
S'addPoint'
p56
sg32
(I-416
I952
tp57
s(dp58
g28
S'line'
p59
sg30
I00
sg25
S'addPoint'
p60
sg32
(I-378
I969
tp61
s(dp62
g28
S'line'
p63
sg30
I01
sg25
S'addPoint'
p64
sg32
(I-376
I966
tp65
s(dp66
g25
S'addPoint'
p67
sg32
(I-357
I933
tp68
s(dp69
g25
S'addPoint'
p70
sg32
(I-336
I909
tp71
s(dp72
g28
S'curve'
p73
sg30
I01
sg25
S'addPoint'
p74
sg32
(I-310
I889
tp75
s(dp76
g25
S'addPoint'
p77
sg32
(I-286
I871
tp78
s(dp79
g25
S'addPoint'
p80
sg32
(I-261
I864
tp81
s(dp82
g28
S'curve'
p83
sg30
I01
sg25
S'addPoint'
p84
sg32
(I-236
I864
tp85
s(dp86
g25
S'addPoint'
p87
sg32
(I-219
I864
tp88
s(dp89
g25
S'addPoint'
p90
sg32
(I-207
I867
tp91
s(dp92
g28
S'curve'
p93
sg30
I01
sg25
S'addPoint'
p94
sg32
(I-195
I877
tp95
s(dp96
g25
S'addPoint'
p97
sg32
(I-184
I886
tp98
s(dp99
g25
S'addPoint'
p100
sg32
(I-179
I897
tp101
s(dp102
g28
S'curve'
p103
sg30
I01
sg25
S'addPoint'
p104
sg32
(I-179
I911
tp105
s(dp106
g25
S'addPoint'
p107
sg32
(I-179
I942
tp108
s(dp109
g25
S'addPoint'
p110
sg32
(I-209
I968
tp111
s(dp112
g28
S'curve'
p113
sg30
I01
sg25
S'addPoint'
p114
sg32
(I-244
I968
tp115
s(dp116
g25
S'addPoint'
p117
sg32
(I-256
I968
tp118
s(dp119
g25
S'addPoint'
p120
sg32
(I-268
I967
tp121
s(dp122
g28
S'curve'
p123
sg30
I01
sg25
S'addPoint'
p124
sg32
(I-283
I962
tp125
s(dp126
g28
S'line'
p127
sg30
I00
sg25
S'addPoint'
p128
sg32
(I-286
I961
tp129
s(dp130
g28
S'line'
p131
sg30
I00
sg25
S'addPoint'
p132
sg32
(I-307
I999
tp133
s(dp134
g28
S'line'
p135
sg30
I01
sg25
S'addPoint'
p136
sg32
(I-302
I999
tp137
s(dp138
g25
S'addPoint'
p139
sg32
(I-277
I1002
tp140
s(dp141
g25
S'addPoint'
p142
sg32
(I-257
I1007
tp143
s(dp144
g28
S'curve'
p145
sg30
I01
sg25
S'addPoint'
p146
sg32
(I-238
I1019
tp147
s(dp148
g25
S'addPoint'
p149
sg32
(I-221
I1031
tp150
s(dp151
g25
S'addPoint'
p152
sg32
(I-212
I1042
tp153
s(dp154
g28
S'curve'
p155
sg30
I01
sg25
S'addPoint'
p156
sg32
(I-212
I1053
tp157
s(dp158
g25
S'addPoint'
p159
sg32
(I-212
I1076
tp160
s(dp161
g25
S'addPoint'
p162
sg32
(I-232
I1096
tp163
s(dp164
g28
S'curve'
p165
sg30
I01
sg25
S'addPoint'
p166
sg32
(I-256
I1096
tp167
s(dp168
g25
S'addPoint'
p169
sg32
(I-286
I1096
tp170
s(dp171
g25
S'addPoint'
p172
sg32
(I-320
I1080
tp173
s(dp174
g28
S'curve'
p175
sg30
I01
sg25
S'addPoint'
p176
sg32
(I-351
I1051
tp177
s(dp178
g28
S'line'
p179
sg30
I00
sg25
S'addPoint'
p180
sg32
(I-353
I1049
tp181
s(dp182
g28
S'line'
p183
sg30
I00
sg25
S'addPoint'
p184
sg32
(I-389
I1076
tp185
s(dp186
g28
S'line'
p187
sg30
I00
sg25
S'addPoint'
p188
sg32
(I-385
I1079
tp189
s(dp190
g25
S'addPoint'
p191
sg32
(I-355
I1113
tp192
s(dp193
g25
S'addPoint'
p194
sg32
(I-308
I1133
tp195
s(dp196
g28
S'curve'
p197
sg30
I01
sg25
S'addPoint'
p198
sg32
(I-256
I1133
tp199
s(dp200
g25
S'addPoint'
p201
sg32
(I-230
I1133
tp202
s(dp203
g25
S'addPoint'
p204
sg32
(I-209
I1125
tp205
s(dp206
g28
S'curve'
p207
sg30
I01
sg25
S'addPoint'
p208
sg32
(I-190
I1110
tp209
s(dp210
g25
S'addPoint'
p211
sg32
(I-171
I1095
tp212
s(dp213
g25
S'addPoint'
p214
sg32
(I-163
I1076
tp215
s(dp216
g28
S'curve'
p217
sg30
I01
sg25
S'addPoint'
p218
sg32
(I-163
I1053
tp219
s(dp220
g25
S'addPoint'
p221
sg32
(I-163
I1042
tp222
s(dp223
g25
S'addPoint'
p224
sg32
(I-165
I1031
tp225
s(dp226
g28
S'curve'
p227
sg30
I01
sg25
S'addPoint'
p228
sg32
(I-173
I1020
tp229
s(dp230
g25
S'addPoint'
p231
sg32
(I-179
I1011
tp232
s(dp233
g25
S'addPoint'
p234
sg32
(I-185
I1004
tp235
s(dp236
g28
S'curve'
p237
sg30
I00
sg25
S'addPoint'
p238
sg32
(I-195
I997
tp239
s(dp240
g25
S'addPoint'
p241
sg32
(I-176
I989
tp242
s(dp243
g25
S'addPoint'
p244
sg32
(I-162
I983
tp245
s(dp246
g28
S'curve'
p247
sg30
I01
sg25
S'addPoint'
p248
sg32
(I-147
I978
tp249
s(dp250
g25
S'addPoint'
p251
sg32
(I-131
I973
tp252
s(dp253
g25
S'addPoint'
p254
sg32
(I-119
I970
tp255
s(dp256
g28
S'curve'
p257
sg30
I01
sg25
S'addPoint'
p258
sg32
(I-110
I970
tp259
s(dp260
g25
S'addPoint'
p261
sg32
(I-104
I970
tp262
s(dp263
g25
S'addPoint'
p264
sg32
(I-98
I971
tp265
s(dp266
g28
S'curve'
p267
sg30
I01
sg25
S'addPoint'
p268
sg32
(I-89
I974
tp269
s(dp270
g28
S'line'
p271
sg30
I00
sg25
S'addPoint'
p272
sg32
(I-62
I985
tp273
s(dp274
g28
S'line'
p275
sg30
I00
sg25
S'addPoint'
p276
sg32
(I-62
I1096
tp277
s(dp278
g28
S'line'
p279
sg30
I00
sg25
S'addPoint'
p280
sg32
(I-134
I1096
tp281
s(dp282
g28
S'line'
p283
sg30
I00
sg25
S'addPoint'
p284
sg32
(I-134
I1133
tp285
s(dp286
g28
S'line'
p287
sg30
I00
sg25
S'addPoint'
p288
sg32
(I57
I1133
tp289
s(dp290
g28
S'line'
p291
sg30
I00
sg25
S'addPoint'
p292
sg32
(I57
I1096
tp293
s(dp294
g28
S'line'
p295
sg30
I00
sg25
S'addPoint'
p296
sg32
(I-13
I1096
tp297
s(dp298
g28
S'line'
p299
sg30
I00
sg25
S'addPoint'
p300
sg32
(I-13
I800
tp301
s(dp302
g28
S'line'
p303
sg30
I00
sg25
S'addPoint'
p304
sg32
(I-62
I800
tp305
s(dp306
g28
S'line'
p307
sg30
I00
sg25
S'addPoint'
p308
sg32
(I-62
I943
tp309
s(dp310
g25
S'addPoint'
p311
sg32
(I-66
I940
tp312
s(dp313
g25
S'addPoint'
p314
sg32
(I-71
I938
tp315
s(dp316
g28
S'curve'
p317
sg30
I01
sg25
S'addPoint'
p318
sg32
(I-75
I937
tp319
s(dp320
g25
S'addPoint'
p321
sg32
(I-83
I934
tp322
s(dp323
g25
S'addPoint'
p324
sg32
(I-90
I933
tp325
s(dp326
g28
S'curve'
p327
sg30
I01
sg25
S'addPoint'
p328
sg32
(I-98
I933
tp329
s(dp330
g25
S'addPoint'
p331
sg32
(I-110
I933
tp332
s(dp333
g25
S'addPoint'
p334
sg32
(I-119
I934
tp335
s(dp336
g28
S'curve'
p337
sg30
I00
sg25
S'addPoint'
p338
sg32
(I-129
I935
tp339
s(dp340
g28
S'line'
p341
sg30
I01
sg25
S'addPoint'
p342
sg32
(I-136
I938
tp343
s(dp344
g25
S'addPoint'
p345
sg32
(I-135
I937
tp346
s(dp347
g25
S'addPoint'
p348
sg32
(I-135
I934
tp349
s(dp350
g28
S'curve'
p351
sg30
I01
sg25
S'addPoint'
p352
sg32
(I-135
I933
tp353
s(dp354
g25
S'addPoint'
p355
sg32
(I-131
I926
tp356
s(dp357
g25
S'addPoint'
p358
sg32
(I-130
I919
tp359
s(dp360
g28
S'curve'
p361
sg30
I01
sg25
S'addPoint'
p362
sg32
(I-130
I912
tp363
s(dp364
g25
S'addPoint'
p365
sg32
(I-130
I886
tp366
s(dp367
g25
S'addPoint'
p368
sg32
(I-140
I866
tp369
s(dp370
g28
S'curve'
p371
sg30
I00
sg25
S'addPoint'
p372
sg32
(I-162
I849
tp373
s(dp374
g25
S'addPoint'
p375
sg32
(I-182
I831
tp376
s(dp377
g25
S'addPoint'
p378
sg32
(I-207
I822
tp379
s(dp380
g25
S'endPath'
p381
s(dp382
g25
S'beginPath'
p383
s(dp384
g28
S'curve'
p385
sg30
I01
sg25
S'addPoint'
p386
sg32
(I-265
I22
tp387
s(dp388
g25
S'addPoint'
p389
sg32
(I-299
I22
tp390
s(dp391
g25
S'addPoint'
p392
sg32
(I-331
I33
tp393
s(dp394
g28
S'curve'
p395
sg30
I00
sg25
S'addPoint'
p396
sg32
(I-361
I56
tp397
s(dp398
g25
S'addPoint'
p399
sg32
(I-393
I77
tp400
s(dp401
g25
S'addPoint'
p402
sg32
(I-420
I109
tp403
s(dp404
g28
S'curve'
p405
sg30
I00
sg25
S'addPoint'
p406
sg32
(I-442
I149
tp407
s(dp408
g28
S'line'
p409
sg30
I00
sg25
S'addPoint'
p410
sg32
(I-445
I152
tp411
s(dp412
g28
S'line'
p413
sg30
I00
sg25
S'addPoint'
p414
sg32
(I-407
I169
tp415
s(dp416
g28
S'line'
p417
sg30
I01
sg25
S'addPoint'
p418
sg32
(I-405
I166
tp419
s(dp420
g25
S'addPoint'
p421
sg32
(I-386
I133
tp422
s(dp423
g25
S'addPoint'
p424
sg32
(I-365
I109
tp425
s(dp426
g28
S'curve'
p427
sg30
I01
sg25
S'addPoint'
p428
sg32
(I-339
I89
tp429
s(dp430
g25
S'addPoint'
p431
sg32
(I-315
I71
tp432
s(dp433
g25
S'addPoint'
p434
sg32
(I-290
I64
tp435
s(dp436
g28
S'curve'
p437
sg30
I01
sg25
S'addPoint'
p438
sg32
(I-265
I64
tp439
s(dp440
g25
S'addPoint'
p441
sg32
(I-248
I64
tp442
s(dp443
g25
S'addPoint'
p444
sg32
(I-236
I67
tp445
s(dp446
g28
S'curve'
p447
sg30
I01
sg25
S'addPoint'
p448
sg32
(I-224
I77
tp449
s(dp450
g25
S'addPoint'
p451
sg32
(I-213
I86
tp452
s(dp453
g25
S'addPoint'
p454
sg32
(I-208
I97
tp455
s(dp456
g28
S'curve'
p457
sg30
I01
sg25
S'addPoint'
p458
sg32
(I-208
I111
tp459
s(dp460
g25
S'addPoint'
p461
sg32
(I-208
I142
tp462
s(dp463
g25
S'addPoint'
p464
sg32
(I-238
I168
tp465
s(dp466
g28
S'curve'
p467
sg30
I01
sg25
S'addPoint'
p468
sg32
(I-273
I168
tp469
s(dp470
g25
S'addPoint'
p471
sg32
(I-285
I168
tp472
s(dp473
g25
S'addPoint'
p474
sg32
(I-297
I167
tp475
s(dp476
g28
S'curve'
p477
sg30
I01
sg25
S'addPoint'
p478
sg32
(I-312
I162
tp479
s(dp480
g28
S'line'
p481
sg30
I00
sg25
S'addPoint'
p482
sg32
(I-315
I161
tp483
s(dp484
g28
S'line'
p485
sg30
I00
sg25
S'addPoint'
p486
sg32
(I-336
I199
tp487
s(dp488
g28
S'line'
p489
sg30
I01
sg25
S'addPoint'
p490
sg32
(I-331
I199
tp491
s(dp492
g25
S'addPoint'
p493
sg32
(I-306
I202
tp494
s(dp495
g25
S'addPoint'
p496
sg32
(I-286
I207
tp497
s(dp498
g28
S'curve'
p499
sg30
I01
sg25
S'addPoint'
p500
sg32
(I-267
I219
tp501
s(dp502
g25
S'addPoint'
p503
sg32
(I-250
I231
tp504
s(dp505
g25
S'addPoint'
p506
sg32
(I-241
I242
tp507
s(dp508
g28
S'curve'
p509
sg30
I01
sg25
S'addPoint'
p510
sg32
(I-241
I253
tp511
s(dp512
g25
S'addPoint'
p513
sg32
(I-241
I276
tp514
s(dp515
g25
S'addPoint'
p516
sg32
(I-261
I296
tp517
s(dp518
g28
S'curve'
p519
sg30
I01
sg25
S'addPoint'
p520
sg32
(I-285
I296
tp521
s(dp522
g25
S'addPoint'
p523
sg32
(I-315
I296
tp524
s(dp525
g25
S'addPoint'
p526
sg32
(I-349
I280
tp527
s(dp528
g28
S'curve'
p529
sg30
I01
sg25
S'addPoint'
p530
sg32
(I-380
I251
tp531
s(dp532
g28
S'line'
p533
sg30
I00
sg25
S'addPoint'
p534
sg32
(I-382
I249
tp535
s(dp536
g28
S'line'
p537
sg30
I00
sg25
S'addPoint'
p538
sg32
(I-418
I276
tp539
s(dp540
g28
S'line'
p541
sg30
I00
sg25
S'addPoint'
p542
sg32
(I-414
I279
tp543
s(dp544
g25
S'addPoint'
p545
sg32
(I-384
I313
tp546
s(dp547
g25
S'addPoint'
p548
sg32
(I-337
I333
tp549
s(dp550
g28
S'curve'
p551
sg30
I01
sg25
S'addPoint'
p552
sg32
(I-285
I333
tp553
s(dp554
g25
S'addPoint'
p555
sg32
(I-259
I333
tp556
s(dp557
g25
S'addPoint'
p558
sg32
(I-238
I325
tp559
s(dp560
g28
S'curve'
p561
sg30
I01
sg25
S'addPoint'
p562
sg32
(I-219
I310
tp563
s(dp564
g25
S'addPoint'
p565
sg32
(I-200
I295
tp566
s(dp567
g25
S'addPoint'
p568
sg32
(I-192
I276
tp569
s(dp570
g28
S'curve'
p571
sg30
I01
sg25
S'addPoint'
p572
sg32
(I-192
I253
tp573
s(dp574
g25
S'addPoint'
p575
sg32
(I-192
I242
tp576
s(dp577
g25
S'addPoint'
p578
sg32
(I-194
I231
tp579
s(dp580
g28
S'curve'
p581
sg30
I01
sg25
S'addPoint'
p582
sg32
(I-202
I220
tp583
s(dp584
g25
S'addPoint'
p585
sg32
(I-208
I211
tp586
s(dp587
g25
S'addPoint'
p588
sg32
(I-214
I204
tp589
s(dp590
g28
S'curve'
p591
sg30
I00
sg25
S'addPoint'
p592
sg32
(I-224
I197
tp593
s(dp594
g25
S'addPoint'
p595
sg32
(I-205
I189
tp596
s(dp597
g25
S'addPoint'
p598
sg32
(I-191
I183
tp599
s(dp600
g28
S'curve'
p601
sg30
I01
sg25
S'addPoint'
p602
sg32
(I-176
I178
tp603
s(dp604
g25
S'addPoint'
p605
sg32
(I-160
I173
tp606
s(dp607
g25
S'addPoint'
p608
sg32
(I-148
I170
tp609
s(dp610
g28
S'curve'
p611
sg30
I01
sg25
S'addPoint'
p612
sg32
(I-139
I170
tp613
s(dp614
g25
S'addPoint'
p615
sg32
(I-133
I170
tp616
s(dp617
g25
S'addPoint'
p618
sg32
(I-127
I171
tp619
s(dp620
g28
S'curve'
p621
sg30
I01
sg25
S'addPoint'
p622
sg32
(I-118
I174
tp623
s(dp624
g28
S'line'
p625
sg30
I00
sg25
S'addPoint'
p626
sg32
(I-91
I185
tp627
s(dp628
g28
S'line'
p629
sg30
I00
sg25
S'addPoint'
p630
sg32
(I-91
I296
tp631
s(dp632
g28
S'line'
p633
sg30
I00
sg25
S'addPoint'
p634
sg32
(I-163
I296
tp635
s(dp636
g28
S'line'
p637
sg30
I00
sg25
S'addPoint'
p638
sg32
(I-163
I333
tp639
s(dp640
g28
S'line'
p641
sg30
I00
sg25
S'addPoint'
p642
sg32
(I28
I333
tp643
s(dp644
g28
S'line'
p645
sg30
I00
sg25
S'addPoint'
p646
sg32
(I28
I296
tp647
s(dp648
g28
S'line'
p649
sg30
I00
sg25
S'addPoint'
p650
sg32
(I-42
I296
tp651
s(dp652
g28
S'line'
p653
sg30
I00
sg25
S'addPoint'
p654
sg32
(I-42
I0
tp655
s(dp656
g28
S'line'
p657
sg30
I00
sg25
S'addPoint'
p658
sg32
(I-91
I0
tp659
s(dp660
g28
S'line'
p661
sg30
I00
sg25
S'addPoint'
p662
sg32
(I-91
I143
tp663
s(dp664
g25
S'addPoint'
p665
sg32
(I-95
I140
tp666
s(dp667
g25
S'addPoint'
p668
sg32
(I-100
I138
tp669
s(dp670
g28
S'curve'
p671
sg30
I01
sg25
S'addPoint'
p672
sg32
(I-104
I137
tp673
s(dp674
g25
S'addPoint'
p675
sg32
(I-112
I134
tp676
s(dp677
g25
S'addPoint'
p678
sg32
(I-119
I133
tp679
s(dp680
g28
S'curve'
p681
sg30
I01
sg25
S'addPoint'
p682
sg32
(I-127
I133
tp683
s(dp684
g25
S'addPoint'
p685
sg32
(I-139
I133
tp686
s(dp687
g25
S'addPoint'
p688
sg32
(I-148
I134
tp689
s(dp690
g28
S'curve'
p691
sg30
I00
sg25
S'addPoint'
p692
sg32
(I-158
I135
tp693
s(dp694
g28
S'line'
p695
sg30
I01
sg25
S'addPoint'
p696
sg32
(I-165
I138
tp697
s(dp698
g25
S'addPoint'
p699
sg32
(I-164
I137
tp700
s(dp701
g25
S'addPoint'
p702
sg32
(I-164
I134
tp703
s(dp704
g28
S'curve'
p705
sg30
I01
sg25
S'addPoint'
p706
sg32
(I-164
I133
tp707
s(dp708
g25
S'addPoint'
p709
sg32
(I-160
I126
tp710
s(dp711
g25
S'addPoint'
p712
sg32
(I-159
I119
tp713
s(dp714
g28
S'curve'
p715
sg30
I01
sg25
S'addPoint'
p716
sg32
(I-159
I112
tp717
s(dp718
g25
S'addPoint'
p719
sg32
(I-159
I86
tp720
s(dp721
g25
S'addPoint'
p722
sg32
(I-169
I66
tp723
s(dp724
g28
S'curve'
p725
sg30
I00
sg25
S'addPoint'
p726
sg32
(I-191
I49
tp727
s(dp728
g25
S'addPoint'
p729
sg32
(I-211
I31
tp730
s(dp731
g25
S'addPoint'
p732
sg32
(I-236
I22
tp733
s(dp734
g25
S'endPath'
p735
stp736
sS'org.robofab.fontlab.mark'
p737
I26
sS'com.typemytype.robofont.mark'
p738
(F1
F0.80000001192092896
F0.40000000596046448
F1
tp739
s."
AnchorPoint: "DVAnchor3" -150 730 mark 0
LayerCount: 2
Fore
SplineSet
-215 958 m 257
 -214 958 l 257
 -190 952 -174 935 -174 907 c 256
 -174 876 -189 858 -230 858 c 256
 -264 858 -289 875 -299 915 c 257
 -344 903 l 257
 -330 848 -289 818 -228 818 c 256
 -156 818 -125 854 -125 906 c 256
 -125 917 -127 928 -130 937 c 257
 -107 933 -84 937 -61 960 c 257
 -61 800 l 257
 -12 800 l 257
 -12 1096 l 257
 40 1096 l 257
 40 1129 l 257
 -113 1129 l 257
 -113 1096 l 257
 -61 1096 l 257
 -61 984 l 257
 -95 956 -128 963 -160 973 c 257
 -164 976 -169 978 -175 980 c 257
 -151 993 -134 1014 -134 1045 c 256
 -134 1098 -161 1135 -235 1135 c 256
 -309 1135 -334 1103 -334 1041 c 257
 -291 1041 l 257
 -291 1076 -277 1095 -239 1095 c 256
 -197 1095 -184 1076 -184 1046 c 256
 -184 1016 -199 995 -239 995 c 258
 -262 995 l 257
 -262 960 l 257
 -233 960 l 258
 -226 960 -220 959 -215 958 c 257
EndSplineSet
Validated: 41
EndChar

StartChar: acute
Encoding: 180 180 137
Width: 314
VWidth: 0
Flags: W
PickledData: "(dp1
S'org.robofab.postScriptHintData'
p2
(dp3
S'hHints'
p4
((I645
I-21
t(I827
I-20
ttp5
ssS'org.robofab.fontlab.mark'
p6
I144
s."
LayerCount: 2
Fore
SplineSet
92 624 m 257
 264 774 l 257
 211 827 l 257
 50 666 l 257
 92 624 l 257
EndSplineSet
Validated: 9
EndChar

StartChar: acute.case
Encoding: 65541 -1 138
Width: 314
VWidth: 0
Flags: W
PickledData: "(dp1
S'org.robofab.postScriptHintData'
p2
(dp3
S'hHints'
p4
((I803
I-21
t(I985
I-20
ttp5
ssS'org.robofab.fontlab.mark'
p6
I80
s."
LayerCount: 2
Fore
SplineSet
92 782 m 257
 264 932 l 257
 211 985 l 257
 50 824 l 257
 92 782 l 257
EndSplineSet
Validated: 9
EndChar

StartChar: acutedeva
Encoding: 2388 2388 142
Width: 0
VWidth: 0
Flags: W
PickledData: "(dp1
S'org.robofab.postScriptHintData'
p2
(dp3
S'hHints'
p4
((I803
I-21
t(I985
I-20
ttp5
ssS'com.typemytype.robofont.layerData'
p6
(dp7
sS'org.robofab.fontlab.maskData'
p8
((dp9
S'method'
p10
S'beginPath'
p11
s(dp12
S'segmentType'
p13
S'line'
p14
sS'smooth'
p15
I00
sg10
S'addPoint'
p16
sS'pt'
p17
(I-195
I783
tp18
s(dp19
g13
S'line'
p20
sg15
I00
sg10
S'addPoint'
p21
sg17
(I-136
I1014
tp22
s(dp23
g13
S'line'
p24
sg15
I00
sg10
S'addPoint'
p25
sg17
(I-40
I1014
tp26
s(dp27
g13
S'line'
p28
sg15
I00
sg10
S'addPoint'
p29
sg17
(I-142
I783
tp30
s(dp31
g10
S'endPath'
p32
stp33
sS'org.robofab.fontlab.mark'
p34
I26
sS'com.typemytype.robofont.mark'
p35
(F1
F0.80000001192092896
F0.40000000596046448
F1
tp36
s."
AnchorPoint: "DVAnchor3" -157 729 mark 0
LayerCount: 2
Fore
SplineSet
-195 782 m 257
 -23 932 l 257
 -76 985 l 257
 -237 824 l 257
 -195 782 l 257
EndSplineSet
Validated: 9
EndChar

StartChar: adeva
Encoding: 2309 2309 143
Width: 836
VWidth: 0
Flags: W
PickledData: "(dp1
S'org.robofab.postScriptHintData'
p2
(dp3
S'replaceTable'
p4
((dp5
S'index'
p6
I4
sS'type'
p7
I1
s(dp8
g6
I2
sg7
I2
s(dp9
g6
I2
sg7
I1
s(dp10
g6
I1
sg7
I2
s(dp11
g6
I0
sg7
I1
s(dp12
g6
I1
sg7
I1
s(dp13
g6
I0
sg7
I2
s(dp14
g6
I10
sg7
I255
s(dp15
g6
I3
sg7
I1
s(dp16
g6
I0
sg7
I2
s(dp17
g6
I1
sg7
I2
s(dp18
g6
I1
sg7
I1
s(dp19
g6
I0
sg7
I1
s(dp20
g6
I2
sg7
I2
s(dp21
g6
I4
sg7
I1
stp22
sS'vHints'
p23
((I49
I62
t(I398
I70
t(I651
I70
ttp24
sS'hHints'
p25
((I46
I58
t(I365
I54
t(I680
I50
t(I680
I64
t(I21
I-21
ttp26
ssS'com.typemytype.robofont.layerData'
p27
(dp28
sS'org.robofab.fontlab.maskData'
p29
((dp30
S'method'
p31
S'beginPath'
p32
s(dp33
S'segmentType'
p34
S'curve'
p35
sS'smooth'
p36
I01
sg31
S'addPoint'
p37
sS'pt'
p38
(I261
I46
tp39
s(dp40
g31
S'addPoint'
p41
sg38
(I403
I46
tp42
s(dp43
g31
S'addPoint'
p44
sg38
(I477
I111
tp45
s(dp46
g34
S'curve'
p47
sg36
I01
sg31
S'addPoint'
p48
sg38
(I477
I227
tp49
s(dp50
g31
S'addPoint'
p51
sg38
(I477
I351
tp52
s(dp53
g31
S'addPoint'
p54
sg38
(I386
I409
tp55
s(dp56
g34
S'curve'
p57
sg36
I01
sg31
S'addPoint'
p58
sg38
(I281
I409
tp59
s(dp60
g34
S'line'
p61
sg36
I00
sg31
S'addPoint'
p62
sg38
(I193
I409
tp63
s(dp64
g34
S'line'
p65
sg36
I00
sg31
S'addPoint'
p66
sg38
(I193
I365
tp67
s(dp68
g34
S'line'
p69
sg36
I01
sg31
S'addPoint'
p70
sg38
(I269
I365
tp71
s(dp72
g31
S'addPoint'
p73
sg38
(I371
I365
tp74
s(dp75
g31
S'addPoint'
p76
sg38
(I407
I304
tp77
s(dp78
g34
S'curve'
p79
sg36
I01
sg31
S'addPoint'
p80
sg38
(I407
I226
tp81
s(dp82
g31
S'addPoint'
p83
sg38
(I407
I150
tp84
s(dp85
g31
S'addPoint'
p86
sg38
(I362
I105
tp87
s(dp88
g34
S'curve'
p89
sg36
I01
sg31
S'addPoint'
p90
sg38
(I261
I104
tp91
s(dp92
g31
S'addPoint'
p93
sg38
(I160
I105
tp94
s(dp95
g31
S'addPoint'
p96
sg38
(I106
I149
tp97
s(dp98
g34
S'curve'
p99
sg36
I00
sg31
S'addPoint'
p100
sg38
(I97
I256
tp101
s(dp102
g34
S'line'
p103
sg36
I00
sg31
S'addPoint'
p104
sg38
(I35
I231
tp105
s(dp106
g31
S'addPoint'
p107
sg38
(I52
I104
tp108
s(dp109
g31
S'addPoint'
p110
sg38
(I125
I46
tp111
s(dp112
g31
S'endPath'
p113
s(dp114
g31
S'beginPath'
p115
s(dp116
g34
S'line'
p117
sg36
I00
sg31
S'addPoint'
p118
sg38
(I193
I375
tp119
s(dp120
g34
S'line'
p121
sg36
I01
sg31
S'addPoint'
p122
sg38
(I270
I375
tp123
s(dp124
g31
S'addPoint'
p125
sg38
(I375
I375
tp126
s(dp127
g31
S'addPoint'
p128
sg38
(I468
I443
tp129
s(dp130
g34
S'curve'
p131
sg36
I01
sg31
S'addPoint'
p132
sg38
(I468
I550
tp133
s(dp134
g31
S'addPoint'
p135
sg38
(I468
I668
tp136
s(dp137
g31
S'addPoint'
p138
sg38
(I413
I744
tp139
s(dp140
g34
S'curve'
p141
sg36
I01
sg31
S'addPoint'
p142
sg38
(I251
I744
tp143
s(dp144
g31
S'addPoint'
p145
sg38
(I104
I744
tp146
s(dp147
g31
S'addPoint'
p148
sg38
(I49
I668
tp149
s(dp150
g34
S'curve'
p151
sg36
I00
sg31
S'addPoint'
p152
sg38
(I49
I550
tp153
s(dp154
g34
S'line'
p155
sg36
I00
sg31
S'addPoint'
p156
sg38
(I111
I550
tp157
s(dp158
g31
S'addPoint'
p159
sg38
(I111
I631
tp160
s(dp161
g31
S'addPoint'
p162
sg38
(I147
I685
tp163
s(dp164
g34
S'curve'
p165
sg36
I01
sg31
S'addPoint'
p166
sg38
(I251
I685
tp167
s(dp168
g31
S'addPoint'
p169
sg38
(I366
I685
tp170
s(dp171
g31
S'addPoint'
p172
sg38
(I398
I632
tp173
s(dp174
g34
S'curve'
p175
sg36
I01
sg31
S'addPoint'
p176
sg38
(I398
I551
tp177
s(dp178
g31
S'addPoint'
p179
sg38
(I398
I477
tp180
s(dp181
g31
S'addPoint'
p182
sg38
(I352
I419
tp183
s(dp184
g34
S'curve'
p185
sg36
I01
sg31
S'addPoint'
p186
sg38
(I270
I419
tp187
s(dp188
g34
S'line'
p189
sg36
I00
sg31
S'addPoint'
p190
sg38
(I193
I419
tp191
s(dp192
g31
S'endPath'
p193
s(dp194
g31
S'beginPath'
p195
s(dp196
g34
S'line'
p197
sg36
I00
sg31
S'addPoint'
p198
sg38
(I721
I0
tp199
s(dp200
g34
S'line'
p201
sg36
I00
sg31
S'addPoint'
p202
sg38
(I721
I680
tp203
s(dp204
g34
S'line'
p205
sg36
I00
sg31
S'addPoint'
p206
sg38
(I846
I680
tp207
s(dp208
g34
S'line'
p209
sg36
I00
sg31
S'addPoint'
p210
sg38
(I846
I730
tp211
s(dp212
g34
S'line'
p213
sg36
I00
sg31
S'addPoint'
p214
sg38
(I526
I730
tp215
s(dp216
g34
S'line'
p217
sg36
I00
sg31
S'addPoint'
p218
sg38
(I526
I680
tp219
s(dp220
g34
S'line'
p221
sg36
I00
sg31
S'addPoint'
p222
sg38
(I651
I680
tp223
s(dp224
g34
S'line'
p225
sg36
I00
sg31
S'addPoint'
p226
sg38
(I651
I0
tp227
s(dp228
g31
S'endPath'
p229
s(dp230
g31
S'beginPath'
p231
s(dp232
g34
S'line'
p233
sg36
I00
sg31
S'addPoint'
p234
sg38
(I651
I404
tp235
s(dp236
g31
S'addPoint'
p237
sg38
(I525
I301
tp238
s(dp239
g31
S'addPoint'
p240
sg38
(I425
I414
tp241
s(dp242
g34
S'curve'
p243
sg36
I00
sg31
S'addPoint'
p244
sg38
(I293
I414
tp245
s(dp246
g34
S'line'
p247
sg36
I00
sg31
S'addPoint'
p248
sg38
(I293
I365
tp249
s(dp250
g31
S'addPoint'
p251
sg38
(I425
I365
tp252
s(dp253
g31
S'addPoint'
p254
sg38
(I525
I252
tp255
s(dp256
g34
S'curve'
p257
sg36
I00
sg31
S'addPoint'
p258
sg38
(I651
I355
tp259
s(dp260
g31
S'endPath'
p261
stp262
sS'org.robofab.fontlab.mark'
p263
I1
sS'com.typemytype.robofont.mark'
p264
(F0
F0.50196081399917603
F1
F1
tp265
s."
AnchorPoint: "DVAnchor3" 686 730 basechar 0
LayerCount: 2
Fore
SplineSet
721 0 m 257
 721 680 l 257
 846 680 l 257
 846 730 l 257
 526 730 l 257
 526 680 l 257
 651 680 l 257
 651 414 l 257
 555 335 474 379 383 404 c 257
 433 434 468 485 468 550 c 256
 468 668 413 744 251 744 c 256
 104 744 49 668 49 550 c 257
 111 550 l 257
 111 631 147 685 251 685 c 256
 366 685 398 632 398 551 c 256
 398 477 352 419 270 419 c 258
 193 419 l 257
 193 365 l 257
 269 365 l 258
 371 365 407 304 407 226 c 256
 407 150 362 105 261 104 c 257
 160 105 106 149 97 256 c 257
 35 231 l 257
 52 104 125 46 261 46 c 256
 403 46 477 111 477 227 c 256
 477 268 467 301 450 328 c 257
 516 308 579 296 651 355 c 257
 651 0 l 257
 721 0 l 257
EndSplineSet
Validated: 41
EndChar

StartChar: adieresis
Encoding: 228 228 144
Width: 612
VWidth: 0
Flags: W
PickledData: "(dp1
S'org.robofab.postScriptHintData'
p2
(dp3
S'replaceTable'
p4
((dp5
S'index'
p6
I4
sS'type'
p7
I1
s(dp8
g6
I4
sg7
I2
s(dp9
g6
I2
sg7
I2
s(dp10
g6
I0
sg7
I1
s(dp11
g6
I2
sg7
I1
s(dp12
g6
I3
sg7
I1
s(dp13
g6
I0
sg7
I2
s(dp14
g6
I11
sg7
I255
s(dp15
g6
I3
sg7
I2
s(dp16
g6
I0
sg7
I2
s(dp17
g6
I0
sg7
I1
s(dp18
g6
I2
sg7
I1
s(dp19
g6
I2
sg7
I2
s(dp20
g6
I3
sg7
I1
s(dp21
g6
I4
sg7
I1
s(dp22
g6
I23
sg7
I255
s(dp23
g6
I1
sg7
I2
s(dp24
g6
I3
sg7
I1
s(dp25
g6
I3
sg7
I2
s(dp26
g6
I1
sg7
I1
s(dp27
g6
I2
sg7
I1
s(dp28
g6
I4
sg7
I1
s(dp29
g6
I2
sg7
I2
stp30
sS'vHints'
p31
((I64
I68
t(I89
I59
t(I237
I122
t(I422
I70
t(I447
I45
ttp32
sS'hHints'
p33
((I-14
I57
t(I0
I43
t(I266
I48
t(I527
I59
t(I672
I107
ttp34
ssS'org.robofab.fontlab.mark'
p35
I144
s."
LayerCount: 2
Fore
SplineSet
445 0 m 257
 552 0 l 257
 552 50 l 257
 492 50 l 257
 492 426 l 258
 492 550 405 586 294 586 c 256
 130 586 97 514 89 410 c 257
 148 407 l 257
 153 480 172 527 294 527 c 256
 365 527 422 502 422 426 c 258
 422 326 l 257
 237 314 l 258
 97 305 64 255 64 145 c 256
 64 46 102 -14 233 -14 c 256
 318 -14 386 28 427 65 c 257
 445 0 l 257
243 43 m 256
 157 43 132 80 132 142 c 256
 132 235 158 256 241 261 c 258
 422 272 l 257
 422 121 l 257
 366 68 305 43 243 43 c 256
192 672 m 256
 151 672 149 700 149 725 c 256
 149 751 151 779 192 779 c 256
 235 779 237 751 237 725 c 256
 237 700 235 672 192 672 c 256
402 672 m 256
 361 672 359 700 359 725 c 256
 359 751 361 779 402 779 c 256
 445 779 447 751 447 725 c 256
 447 700 445 672 402 672 c 256
EndSplineSet
Validated: 9
EndChar

StartChar: ae
Encoding: 230 230 145
Width: 910
VWidth: 0
Flags: W
PickledData: "(dp1
S'org.robofab.postScriptHintData'
p2
(dp3
S'vHints'
p4
((I64
I68
t(I402
I70
t(I799
I71
ttp5
sS'hHints'
p6
((I-14
I59
t(I270
I44
t(I527
I59
ttp7
ssS'org.robofab.fontlab.maskData'
p8
((dp9
S'method'
p10
S'beginPath'
p11
s(dp12
S'segmentType'
p13
S'curve'
p14
sS'smooth'
p15
I01
sg10
S'addPoint'
p16
sS'pt'
p17
(I233
I-14
tp18
s(dp19
g10
S'addPoint'
p20
sg17
(I318
I-14
tp21
s(dp22
g10
S'addPoint'
p23
sg17
(I386
I28
tp24
s(dp25
g13
S'curve'
p26
sg15
I00
sg10
S'addPoint'
p27
sg17
(I427
I65
tp28
s(dp29
g13
S'line'
p30
sg15
I00
sg10
S'addPoint'
p31
sg17
(I445
I426
tp32
s(dp33
g13
S'line'
p34
sg15
I00
sg10
S'addPoint'
p35
sg17
(I468
I518
tp36
s(dp37
g10
S'addPoint'
p38
sg17
(I435
I569
tp39
s(dp40
g10
S'addPoint'
p41
sg17
(I370
I586
tp42
s(dp43
g13
S'curve'
p44
sg15
I01
sg10
S'addPoint'
p45
sg17
(I294
I586
tp46
s(dp47
g10
S'addPoint'
p48
sg17
(I130
I586
tp49
s(dp50
g10
S'addPoint'
p51
sg17
(I97
I514
tp52
s(dp53
g13
S'curve'
p54
sg15
I00
sg10
S'addPoint'
p55
sg17
(I89
I410
tp56
s(dp57
g13
S'line'
p58
sg15
I00
sg10
S'addPoint'
p59
sg17
(I148
I407
tp60
s(dp61
g10
S'addPoint'
p62
sg17
(I153
I480
tp63
s(dp64
g10
S'addPoint'
p65
sg17
(I172
I527
tp66
s(dp67
g13
S'curve'
p68
sg15
I01
sg10
S'addPoint'
p69
sg17
(I294
I527
tp70
s(dp71
g10
S'addPoint'
p72
sg17
(I365
I527
tp73
s(dp74
g10
S'addPoint'
p75
sg17
(I422
I502
tp76
s(dp77
g13
S'curve'
p78
sg15
I01
sg10
S'addPoint'
p79
sg17
(I422
I426
tp80
s(dp81
g13
S'line'
p82
sg15
I00
sg10
S'addPoint'
p83
sg17
(I422
I326
tp84
s(dp85
g13
S'line'
p86
sg15
I01
sg10
S'addPoint'
p87
sg17
(I237
I314
tp88
s(dp89
g10
S'addPoint'
p90
sg17
(I97
I305
tp91
s(dp92
g10
S'addPoint'
p93
sg17
(I64
I255
tp94
s(dp95
g13
S'curve'
p96
sg15
I01
sg10
S'addPoint'
p97
sg17
(I64
I145
tp98
s(dp99
g10
S'addPoint'
p100
sg17
(I64
I46
tp101
s(dp102
g10
S'addPoint'
p103
sg17
(I102
I-14
tp104
s(dp105
g10
S'endPath'
p106
s(dp107
g10
S'beginPath'
p108
s(dp109
g13
S'curve'
p110
sg15
I01
sg10
S'addPoint'
p111
sg17
(I243
I43
tp112
s(dp113
g10
S'addPoint'
p114
sg17
(I157
I43
tp115
s(dp116
g10
S'addPoint'
p117
sg17
(I132
I80
tp118
s(dp119
g13
S'curve'
p120
sg15
I01
sg10
S'addPoint'
p121
sg17
(I132
I142
tp122
s(dp123
g10
S'addPoint'
p124
sg17
(I132
I235
tp125
s(dp126
g10
S'addPoint'
p127
sg17
(I158
I256
tp128
s(dp129
g13
S'curve'
p130
sg15
I01
sg10
S'addPoint'
p131
sg17
(I241
I261
tp132
s(dp133
g13
S'line'
p134
sg15
I00
sg10
S'addPoint'
p135
sg17
(I422
I272
tp136
s(dp137
g13
S'line'
p138
sg15
I00
sg10
S'addPoint'
p139
sg17
(I422
I121
tp140
s(dp141
g10
S'addPoint'
p142
sg17
(I366
I68
tp143
s(dp144
g10
S'addPoint'
p145
sg17
(I305
I43
tp146
s(dp147
g10
S'endPath'
p148
s(dp149
g10
S'beginPath'
p150
s(dp151
g13
S'line'
p152
sg15
I00
sg10
S'addPoint'
p153
sg17
(I439
I270
tp154
s(dp155
g13
S'line'
p156
sg15
I00
sg10
S'addPoint'
p157
sg17
(I870
I270
tp158
s(dp159
g13
S'line'
p160
sg15
I00
sg10
S'addPoint'
p161
sg17
(I870
I286
tp162
s(dp163
g13
S'line'
p164
sg15
I00
sg10
S'addPoint'
p165
sg17
(I864
I325
tp166
s(dp167
g13
S'line'
p168
sg15
I00
sg10
S'addPoint'
p169
sg17
(I439
I325
tp170
s(dp171
g10
S'endPath'
p172
s(dp173
g10
S'beginPath'
p174
s(dp175
g13
S'curve'
p176
sg15
I01
sg10
S'addPoint'
p177
sg17
(I641
I-14
tp178
s(dp179
g10
S'addPoint'
p180
sg17
(I818
I-14
tp181
s(dp182
g10
S'addPoint'
p183
sg17
(I851
I76
tp184
s(dp185
g13
S'curve'
p186
sg15
I00
sg10
S'addPoint'
p187
sg17
(I861
I177
tp188
s(dp189
g13
S'line'
p190
sg15
I00
sg10
S'addPoint'
p191
sg17
(I803
I180
tp192
s(dp193
g10
S'addPoint'
p194
sg17
(I796
I103
tp195
s(dp196
g10
S'addPoint'
p197
sg17
(I770
I45
tp198
s(dp199
g13
S'curve'
p200
sg15
I01
sg10
S'addPoint'
p201
sg17
(I639
I45
tp202
s(dp203
g10
S'addPoint'
p204
sg17
(I496
I45
tp205
s(dp206
g10
S'addPoint'
p207
sg17
(I472
I122
tp208
s(dp209
g13
S'curve'
p210
sg15
I01
sg10
S'addPoint'
p211
sg17
(I472
I286
tp212
s(dp213
g10
S'addPoint'
p214
sg17
(I472
I405
tp215
s(dp216
g10
S'addPoint'
p217
sg17
(I479
I527
tp218
s(dp219
g13
S'curve'
p220
sg15
I01
sg10
S'addPoint'
p221
sg17
(I636
I527
tp222
s(dp223
g10
S'addPoint'
p224
sg17
(I793
I527
tp225
s(dp226
g10
S'addPoint'
p227
sg17
(I800
I415
tp228
s(dp229
g13
S'curve'
p230
sg15
I00
sg10
S'addPoint'
p231
sg17
(I800
I286
tp232
s(dp233
g13
S'line'
p234
sg15
I00
sg10
S'addPoint'
p235
sg17
(I870
I286
tp236
s(dp237
g10
S'addPoint'
p238
sg17
(I870
I441
tp239
s(dp240
g10
S'addPoint'
p241
sg17
(I847
I586
tp242
s(dp243
g13
S'curve'
p244
sg15
I01
sg10
S'addPoint'
p245
sg17
(I637
I586
tp246
s(dp247
g10
S'addPoint'
p248
sg17
(I426
I586
tp249
s(dp250
g10
S'addPoint'
p251
sg17
(I402
I441
tp252
s(dp253
g13
S'curve'
p254
sg15
I01
sg10
S'addPoint'
p255
sg17
(I402
I286
tp256
s(dp257
g10
S'addPoint'
p258
sg17
(I402
I92
tp259
s(dp260
g10
S'addPoint'
p261
sg17
(I444
I-14
tp262
s(dp263
g10
S'endPath'
p264
stp265
sS'org.robofab.fontlab.mark'
p266
I144
s."
LayerCount: 2
Fore
SplineSet
641 -14 m 256
 818 -14 851 76 861 177 c 257
 803 180 l 257
 796 103 770 45 639 45 c 256
 501 45 473 117 472 270 c 257
 870 270 l 257
 870 286 l 258
 870 441 847 586 637 586 c 256
 552 586 497 562 462 524 c 257
 427 573 357 586 294 586 c 256
 130 586 97 514 89 410 c 257
 148 407 l 257
 153 480 172 527 294 527 c 256
 357 527 410 507 420 448 c 257
 408 411 404 368 402 324 c 257
 237 314 l 258
 97 305 64 255 64 145 c 256
 64 46 102 -14 233 -14 c 256
 313 -14 390 24 440 75 c 257
 474 16 535 -14 641 -14 c 256
636 527 m 256
 777 527 797 436 799 325 c 257
 472 325 l 257
 475 430 496 527 636 527 c 256
243 43 m 256
 157 43 132 80 132 142 c 256
 132 235 158 256 241 261 c 258
 402 271 l 257
 402 211 408 161 421 120 c 257
 365 67 304 43 243 43 c 256
EndSplineSet
Validated: 9
EndChar

StartChar: aeacute
Encoding: 509 509 146
Width: 910
VWidth: 0
Flags: W
PickledData: "(dp1
S'org.robofab.postScriptHintData'
p2
(dp3
S'vHints'
p4
((I64
I68
t(I402
I70
t(I799
I71
ttp5
sS'hHints'
p6
((I-14
I59
t(I270
I44
t(I527
I59
t(I827
I-20
ttp7
ssS'org.robofab.fontlab.mark'
p8
I80
s."
LayerCount: 2
Fore
SplineSet
641 -14 m 256
 818 -14 851 76 861 177 c 257
 803 180 l 257
 796 103 770 45 639 45 c 256
 501 45 473 117 472 270 c 257
 870 270 l 257
 870 286 l 258
 870 441 847 586 637 586 c 256
 552 586 497 562 462 524 c 257
 427 573 357 586 294 586 c 256
 130 586 97 514 89 410 c 257
 148 407 l 257
 153 480 172 527 294 527 c 256
 357 527 410 507 420 448 c 257
 408 411 404 368 402 324 c 257
 237 314 l 258
 97 305 64 255 64 145 c 256
 64 46 102 -14 233 -14 c 256
 313 -14 390 24 440 75 c 257
 474 16 535 -14 641 -14 c 256
636 527 m 256
 777 527 797 436 799 325 c 257
 472 325 l 257
 475 430 496 527 636 527 c 256
243 43 m 256
 157 43 132 80 132 142 c 256
 132 235 158 256 241 261 c 258
 402 271 l 257
 402 211 408 161 421 120 c 257
 365 67 304 43 243 43 c 256
420 624 m 257
 592 774 l 257
 539 827 l 257
 378 666 l 257
 420 624 l 257
EndSplineSet
Validated: 9
EndChar

StartChar: agrave
Encoding: 224 224 147
Width: 612
VWidth: 0
Flags: W
PickledData: "(dp1
S'org.robofab.postScriptHintData'
p2
(dp3
S'replaceTable'
p4
((dp5
S'index'
p6
I4
sS'type'
p7
I1
s(dp8
g6
I0
sg7
I1
s(dp9
g6
I2
sg7
I2
s(dp10
g6
I0
sg7
I2
s(dp11
g6
I2
sg7
I1
s(dp12
g6
I3
sg7
I1
s(dp13
g6
I17
sg7
I255
s(dp14
g6
I1
sg7
I2
s(dp15
g6
I3
sg7
I1
s(dp16
g6
I2
sg7
I2
s(dp17
g6
I1
sg7
I1
s(dp18
g6
I2
sg7
I1
s(dp19
g6
I4
sg7
I1
stp20
sS'vHints'
p21
((I64
I68
t(I89
I59
t(I422
I70
ttp22
sS'hHints'
p23
((I-14
I57
t(I0
I43
t(I266
I48
t(I527
I59
t(I827
I-20
ttp24
ssS'org.robofab.fontlab.mark'
p25
I144
s."
LayerCount: 2
Fore
SplineSet
445 0 m 257
 552 0 l 257
 552 50 l 257
 492 50 l 257
 492 426 l 258
 492 550 405 586 294 586 c 256
 130 586 97 514 89 410 c 257
 148 407 l 257
 153 480 172 527 294 527 c 256
 365 527 422 502 422 426 c 258
 422 326 l 257
 237 314 l 258
 97 305 64 255 64 145 c 256
 64 46 102 -14 233 -14 c 256
 318 -14 386 28 427 65 c 257
 445 0 l 257
243 43 m 256
 157 43 132 80 132 142 c 256
 132 235 158 256 241 261 c 258
 422 272 l 257
 422 121 l 257
 366 68 305 43 243 43 c 256
356 624 m 257
 184 774 l 257
 237 827 l 257
 398 666 l 257
 356 624 l 257
EndSplineSet
Validated: 9
EndChar

StartChar: aideva
Encoding: 2320 2320 148
Width: 595
VWidth: 0
Flags: W
PickledData: "(dp1
S'org.robofab.postScriptHintData'
p2
(dp3
S'vHints'
p4
((I95
I70
t(I430
I70
ttp5
sS'hHints'
p6
((I680
I50
t(I1066
I-20
t(I23
I-21
ttp7
ssS'org.robofab.fontlab.maskData'
p8
((dp9
S'method'
p10
S'beginPath'
p11
s(dp12
S'segmentType'
p13
S'line'
p14
sS'smooth'
p15
I00
sg10
S'addPoint'
p16
sS'pt'
p17
(I379
I343
tp18
s(dp19
g13
S'line'
p20
sg15
I00
sg10
S'addPoint'
p21
sg17
(I418
I294
tp22
s(dp23
g10
S'endPath'
p24
stp25
sS'org.robofab.fontlab.mark'
p26
I26
s."
LayerCount: 2
Fore
SplineSet
418 294 m 257
 489 328 500 398 500 470 c 258
 500 680 l 257
 605 680 l 257
 605 730 l 257
 494 730 l 257
 203 1066 l 257
 152 1022 l 257
 422 730 l 257
 -10 730 l 257
 -10 680 l 257
 95 680 l 257
 95 357 l 258
 95 197 211 90 431 2 c 257
 453 61 l 257
 261 136 165 224 165 357 c 258
 165 680 l 257
 430 680 l 257
 430 470 l 258
 430 420 425 368 379 343 c 257
 418 294 l 257
EndSplineSet
Validated: 9
EndChar

